<?xml version="1.0" standalone="no"?>
<!DOCTYPE svg PUBLIC "-//W3C//DTD SVG 20010904//EN"
 "http://www.w3.org/TR/2001/REC-SVG-20010904/DTD/svg10.dtd">
<svg version="1.0" xmlns="http://www.w3.org/2000/svg"
 width="1376.000000pt" height="1376.000000pt" viewBox="0 0 1376.000000 1376.000000"
 preserveAspectRatio="xMidYMid meet">
<metadata>
Created by potrace 1.14, written by Peter Selinger 2001-2017
</metadata>
<g transform="translate(0.000000,1376.000000) scale(0.100000,-0.100000)"
fill="#000000" stroke="none">
<path d="M1370 11826 c-58 -16 -116 -43 -160 -75 -37 -26 -132 -120 -139 -136
-14 -35 -25 -55 -33 -55 -4 0 -7 -3 -6 -7 2 -7 -21 -84 -39 -133 -3 -8 -7 -26
-9 -39 -1 -13 -10 -51 -18 -85 -31 -124 -77 -322 -80 -341 -2 -11 -6 -27 -10
-36 -4 -9 -8 -29 -10 -45 -2 -16 -5 -29 -6 -29 -2 0 -8 -23 -16 -65 -10 -54
-12 -65 -15 -65 -1 0 -3 -9 -4 -20 -2 -11 -8 -35 -14 -52 -5 -18 -7 -33 -4
-33 3 0 0 -7 -7 -15 -7 -8 -10 -15 -7 -15 3 0 1 -15 -4 -32 -5 -18 -12 -46
-15 -63 -3 -16 -9 -46 -14 -65 -5 -19 -11 -46 -14 -60 -7 -40 -18 -84 -24 -94
-3 -6 -6 -19 -7 -30 -1 -12 -37 -167 -79 -346 -43 -179 -79 -336 -82 -350 -3
-14 -7 -32 -9 -40 -2 -8 -7 -30 -10 -49 -3 -19 -8 -38 -11 -43 -3 -5 -8 -21
-10 -36 -3 -15 -12 -54 -21 -87 -8 -33 -17 -69 -18 -80 -1 -11 -3 -20 -4 -20
-2 0 -4 -9 -6 -20 -14 -76 -17 -91 -23 -100 -3 -5 -7 -18 -8 -30 -3 -23 -9
-51 -25 -115 -14 -60 -19 -80 -25 -110 -3 -14 -10 -43 -16 -65 -5 -22 -12 -47
-13 -55 -2 -8 -11 -46 -20 -85 -9 -38 -18 -77 -20 -85 -2 -8 -13 -55 -25 -105
-12 -49 -24 -101 -26 -115 -3 -14 -7 -33 -10 -42 -3 -9 -7 -26 -9 -37 -3 -12
-7 -30 -10 -41 -3 -11 -7 -28 -9 -39 -2 -10 -9 -35 -14 -54 -6 -20 -8 -38 -5
-41 3 -3 1 -11 -4 -18 -10 -13 -22 -62 -25 -105 -1 -13 -5 -23 -8 -23 -3 0 -6
-8 -7 -17 -2 -29 -14 -87 -20 -103 -4 -8 -8 -22 -9 -30 -6 -36 -15 -77 -21
-95 -7 -21 -8 -25 -16 -65 -3 -14 -13 -63 -22 -109 -20 -95 -16 -203 10 -264
8 -20 12 -37 8 -37 -5 0 -3 -4 2 -8 6 -4 20 -27 31 -52 28 -58 91 -129 168
-187 33 -26 66 -52 72 -58 6 -5 26 -21 44 -35 31 -23 100 -78 181 -142 60 -48
91 -72 178 -140 47 -37 96 -77 108 -88 12 -11 27 -20 33 -20 5 0 10 -3 10 -7
0 -5 17 -19 37 -33 20 -14 43 -32 51 -40 9 -8 28 -24 43 -35 30 -22 387 -304
405 -320 23 -20 49 -41 84 -65 19 -13 41 -30 48 -37 7 -7 41 -34 75 -60 34
-26 67 -52 73 -58 6 -5 26 -21 44 -35 59 -45 294 -230 321 -253 15 -12 41 -33
60 -47 18 -14 69 -54 114 -90 45 -36 97 -76 115 -90 18 -14 41 -32 50 -40 46
-39 59 -49 123 -94 182 -130 407 -135 602 -13 60 37 181 188 190 237 0 3 6 21
13 40 6 19 14 58 18 85 3 28 8 59 10 70 2 11 6 48 9 83 3 35 7 75 9 90 3 15 7
58 11 96 3 38 8 72 9 75 2 3 7 43 10 88 4 46 9 91 10 100 5 26 19 151 22 198
1 22 3 40 4 40 4 0 12 65 26 225 1 19 4 35 5 35 0 0 3 18 5 40 1 22 6 63 9 90
7 57 11 86 19 165 3 30 8 73 11 95 3 22 8 63 10 90 3 28 7 64 9 80 2 17 7 57
10 90 11 99 13 111 20 123 4 7 2 12 -4 12 -6 0 -8 5 -4 11 7 11 8 21 19 139 3
36 8 78 11 95 3 16 8 48 10 70 11 130 22 230 30 275 3 14 6 48 9 75 2 28 6 68
9 90 3 22 8 69 11 105 4 36 8 72 10 81 2 8 6 48 10 88 3 40 8 80 10 89 1 9 6
46 10 82 3 36 8 76 10 90 2 14 6 56 10 93 3 37 8 77 10 87 2 10 6 50 9 87 4
37 8 79 11 93 2 14 7 50 10 80 3 30 7 71 9 90 3 19 8 62 11 95 4 33 9 74 11
90 2 17 6 62 8 100 3 39 6 70 6 70 3 0 10 44 14 90 3 28 7 66 10 85 3 19 8 62
12 95 3 33 7 74 9 90 21 186 23 217 12 270 -4 22 -9 47 -11 55 -8 44 -63 158
-89 188 -77 85 -82 89 -372 277 -49 32 -93 63 -97 69 -4 6 -8 7 -8 3 0 -9 -93
52 -98 65 -2 4 -8 8 -13 8 -6 0 -37 18 -70 40 -33 22 -64 40 -69 40 -5 0 -10
4 -12 8 -1 4 -38 30 -81 57 -43 26 -85 54 -93 62 -8 8 -14 11 -14 8 0 -4 -15
4 -32 17 -57 43 -379 248 -389 248 -5 0 -9 5 -9 10 0 6 -6 10 -14 10 -8 0 -16
3 -18 8 -3 8 -64 52 -72 52 -3 0 -65 39 -138 88 -141 92 -160 104 -195 123
-13 7 -23 16 -23 21 0 4 -4 8 -9 8 -5 0 -62 34 -126 75 -145 93 -212 115 -339
114 -50 0 -111 -6 -136 -13z"/>
<path d="M12090 11817 c-63 -23 -140 -62 -150 -76 -3 -4 -29 -21 -57 -37 -29
-16 -53 -32 -53 -36 0 -5 -4 -8 -9 -8 -8 0 -102 -58 -126 -77 -9 -7 -66 -45
-193 -125 -15 -10 -34 -21 -42 -25 -8 -4 -20 -12 -27 -17 -31 -28 -43 -36 -47
-36 -8 0 -259 -162 -274 -177 -7 -7 -20 -13 -28 -13 -8 0 -14 -4 -14 -8 0 -5
-17 -18 -38 -30 -20 -11 -68 -41 -105 -66 -38 -25 -71 -46 -73 -46 -3 0 -20
-11 -38 -25 -18 -14 -38 -25 -44 -25 -7 0 -12 -3 -12 -8 0 -4 -16 -16 -35 -26
-19 -11 -35 -23 -35 -28 0 -4 -6 -8 -13 -8 -8 0 -33 -13 -55 -30 -23 -16 -43
-30 -45 -30 -5 0 -167 -106 -184 -120 -7 -6 -24 -15 -38 -22 -14 -6 -25 -15
-25 -20 0 -4 -4 -8 -10 -8 -5 0 -42 -22 -82 -48 -40 -27 -98 -65 -128 -84 -61
-39 -156 -131 -165 -160 -4 -10 -11 -18 -16 -18 -5 0 -8 -3 -7 -7 0 -5 -9 -29
-20 -54 -12 -25 -24 -57 -26 -70 -3 -13 -5 -24 -6 -24 -8 0 -19 -153 -11 -160
3 -3 6 -27 7 -53 2 -43 6 -80 18 -172 3 -19 7 -62 11 -95 3 -33 8 -78 11 -100
6 -49 13 -116 18 -170 4 -41 12 -110 22 -180 2 -22 6 -58 8 -80 5 -57 16 -156
21 -184 2 -12 7 -60 11 -105 3 -44 8 -84 11 -88 2 -4 6 -36 9 -70 2 -35 6 -77
9 -94 2 -17 7 -57 10 -90 4 -32 8 -70 11 -84 2 -14 6 -54 10 -90 3 -36 7 -76
10 -90 2 -14 6 -54 10 -90 3 -36 7 -81 10 -100 2 -19 7 -55 9 -80 3 -25 7 -65
10 -90 3 -25 8 -67 10 -93 11 -106 14 -132 16 -132 2 0 5 -22 13 -110 4 -38 9
-88 12 -110 2 -22 7 -62 10 -90 6 -57 9 -87 19 -165 3 -30 8 -75 11 -100 3
-25 6 -58 8 -75 2 -16 7 -59 11 -95 4 -36 8 -81 11 -100 2 -19 6 -57 8 -85 2
-27 7 -63 10 -80 3 -16 8 -61 11 -100 3 -38 8 -83 12 -100 3 -16 7 -50 9 -75
1 -25 5 -63 8 -85 3 -22 8 -65 11 -95 8 -76 14 -129 20 -170 5 -38 14 -121 20
-185 2 -22 11 -101 20 -175 8 -74 18 -155 21 -180 13 -122 33 -189 78 -265 33
-55 135 -160 166 -170 11 -4 20 -11 20 -16 0 -5 3 -8 8 -7 4 1 24 -6 45 -15
98 -42 219 -54 321 -30 72 16 170 62 208 98 15 14 30 25 33 25 4 0 12 6 19 13
7 6 30 26 51 42 21 17 56 45 79 63 60 49 65 52 136 107 36 28 70 55 76 60 6 6
23 19 38 30 16 11 33 25 40 31 6 5 99 79 206 163 107 84 204 160 215 169 11 9
128 101 260 205 132 104 249 196 260 205 11 9 63 50 115 91 52 41 98 79 102
85 4 6 8 8 8 4 0 -5 8 0 18 10 26 24 101 85 121 96 9 5 22 16 29 23 8 7 30 26
50 41 21 15 39 30 42 33 3 3 28 23 55 44 28 20 52 40 55 44 3 4 21 18 40 31
19 13 37 27 40 30 3 3 41 34 85 68 153 120 215 176 215 194 0 5 5 6 12 2 7 -5
8 -3 3 6 -5 8 -2 17 7 24 8 6 16 14 16 19 6 32 15 57 22 57 4 0 15 37 25 82
16 76 17 164 1 233 -2 11 -9 40 -15 64 -5 25 -8 48 -5 52 2 4 0 9 -6 11 -5 1
-10 18 -12 36 -1 19 -6 36 -10 38 -4 2 -5 13 -3 24 2 11 0 20 -5 20 -4 0 -7 8
-5 18 1 9 -1 24 -6 33 -4 8 -10 29 -13 45 -2 16 -5 29 -6 29 -1 0 -3 10 -6 23
-2 12 -6 32 -8 45 -3 12 -5 23 -7 25 -1 1 -3 7 -4 12 -1 6 -4 11 -5 13 -1 1
-3 13 -5 27 -2 14 -7 39 -10 55 -4 17 -8 35 -9 40 -1 6 -5 19 -9 30 -3 11 -8
31 -11 45 -8 45 -37 165 -43 180 -3 8 -7 27 -9 42 -2 15 -22 103 -45 195 -73
303 -81 338 -84 363 -2 14 -4 25 -5 25 -2 0 -11 36 -15 60 -1 11 -5 27 -8 35
-4 8 -9 26 -12 40 -6 30 -23 107 -30 135 -8 31 -34 147 -40 175 -3 14 -8 36
-12 50 -9 35 -10 42 -17 70 -3 14 -14 61 -24 105 -11 44 -36 151 -56 237 -46
196 -44 185 -55 233 -6 22 -8 41 -6 44 3 2 0 10 -5 16 -6 7 -11 25 -12 41 -1
16 -6 35 -11 41 -5 7 -7 19 -4 27 3 8 2 16 -4 18 -5 2 -11 21 -13 43 -2 22 -5
40 -6 40 -2 0 -10 33 -15 60 -2 11 -4 20 -5 20 -2 0 -9 27 -15 65 -3 19 -9 42
-12 50 -7 18 -10 27 -17 65 -10 54 -24 110 -26 110 -1 0 -3 9 -4 21 -1 11 -7
40 -14 65 -14 56 -24 100 -28 119 -2 8 -7 33 -13 55 -10 41 -23 98 -22 102 0
2 -5 17 -10 35 -5 18 -11 44 -14 58 -2 14 -19 81 -36 150 -17 69 -32 130 -33
135 -4 20 -51 110 -71 135 -116 143 -243 207 -420 209 -82 1 -112 -3 -165 -22z"/>
<path d="M6842 11189 c-78 -10 -140 -30 -211 -69 -30 -17 -61 -30 -69 -30 -9
0 -13 -3 -9 -6 3 -3 -27 -23 -66 -44 -40 -21 -92 -49 -117 -62 -119 -65 -210
-115 -265 -145 -33 -19 -72 -39 -87 -44 -16 -6 -28 -15 -28 -19 0 -5 -13 -11
-30 -15 -16 -4 -30 -10 -30 -13 0 -4 -21 -17 -47 -30 -49 -23 -68 -34 -115
-65 -16 -10 -28 -15 -28 -12 0 3 -12 -2 -27 -13 -16 -10 -46 -28 -68 -39 -190
-97 -256 -148 -320 -248 -74 -116 -81 -153 -100 -520 -2 -38 -7 -110 -10 -160
-3 -49 -8 -126 -10 -170 -2 -44 -4 -80 -5 -80 -1 0 -4 -29 -5 -65 -4 -64 -10
-177 -20 -340 -3 -47 -7 -121 -11 -165 -3 -44 -7 -111 -9 -150 -2 -38 -6 -110
-10 -160 -3 -49 -8 -124 -10 -165 -2 -41 -4 -75 -5 -75 -1 0 -3 -36 -5 -80 -1
-44 -4 -80 -5 -80 0 0 -3 -43 -6 -95 -7 -137 -12 -215 -13 -215 -1 0 -4 -47
-6 -105 -3 -58 -7 -132 -10 -165 -2 -33 -7 -107 -10 -165 -3 -58 -7 -132 -10
-165 -5 -56 -7 -98 -20 -320 -5 -86 -8 -132 -20 -305 -3 -41 -7 -122 -10 -180
-7 -135 -12 -207 -20 -300 -3 -41 -8 -113 -10 -160 -2 -47 -7 -121 -10 -165
-3 -44 -8 -118 -10 -165 -5 -89 -10 -170 -20 -330 -7 -102 -14 -215 -20 -320
-2 -36 -6 -105 -10 -155 -4 -49 -8 -124 -10 -165 -2 -41 -7 -115 -10 -165 -3
-49 -7 -120 -9 -157 -2 -37 -7 -72 -12 -79 -5 -8 -3 -9 6 -4 9 5 11 4 6 -4 -4
-6 -10 -47 -12 -89 -8 -151 -13 -227 -14 -227 -1 0 -3 -45 -6 -100 -2 -55 -6
-106 -9 -112 -2 -7 -1 -13 3 -13 4 0 8 -17 8 -38 1 -33 9 -83 15 -89 1 -2 2
-7 3 -11 0 -4 17 -39 36 -77 33 -65 147 -195 171 -195 6 0 17 -7 26 -16 9 -8
160 -124 337 -257 176 -132 326 -246 333 -251 34 -30 43 -36 52 -36 5 0 11 -3
13 -7 2 -5 30 -28 63 -53 33 -24 65 -49 72 -55 6 -5 54 -41 107 -80 53 -38 96
-73 96 -77 0 -5 6 -8 14 -8 8 0 16 -3 18 -8 2 -4 28 -25 58 -47 30 -22 62 -45
70 -52 8 -7 60 -46 115 -87 55 -41 107 -82 116 -90 9 -9 19 -16 23 -16 4 0 23
-12 41 -26 19 -14 36 -25 39 -25 3 0 21 -6 40 -14 54 -23 126 -36 184 -35 106
3 122 4 122 12 0 4 3 7 8 6 28 -7 169 59 180 85 2 4 8 7 12 7 5 0 83 55 172
122 90 67 197 147 238 177 41 31 82 61 90 68 84 66 190 142 190 137 0 -4 8 2
18 12 9 11 42 37 72 59 30 22 66 50 80 62 14 13 27 23 31 23 3 0 30 19 61 43
30 23 67 51 82 62 24 17 79 58 111 82 6 5 28 21 50 38 22 16 47 35 55 42 8 6
85 64 171 127 136 100 228 176 213 176 -3 0 4 10 16 22 11 12 20 25 20 29 0 4
7 15 16 23 9 9 17 22 18 29 1 6 8 22 14 35 7 12 10 22 7 22 -3 0 -1 8 4 19 17
31 23 82 22 181 -1 93 -8 225 -12 225 0 0 -3 25 -4 55 -10 171 -15 235 -16
235 -1 0 -6 65 -13 175 -3 47 -8 112 -10 145 -8 95 -17 224 -21 295 -6 109
-13 169 -21 181 -5 8 -3 9 6 4 9 -6 11 -4 5 5 -5 8 -10 43 -11 79 -1 36 -3 66
-4 66 -1 0 -3 27 -5 60 -5 90 -14 232 -20 300 -3 33 -7 92 -10 130 -2 39 -7
102 -10 140 -3 39 -7 106 -10 150 -3 44 -8 105 -11 135 -2 30 -7 91 -9 135 -3
44 -8 109 -11 145 -3 36 -7 92 -9 125 -6 102 -15 218 -19 275 -3 30 -8 96 -11
145 -3 50 -8 117 -11 150 -2 33 -7 94 -9 135 -2 41 -7 95 -9 120 -3 25 -8 88
-11 140 -2 52 -7 118 -9 145 -3 28 -8 91 -11 140 -4 50 -8 115 -11 145 -2 30
-6 90 -8 133 -2 43 -6 81 -10 84 -3 3 -1 14 5 24 5 11 6 19 1 19 -5 0 -11 33
-12 73 -3 96 -8 172 -10 172 -1 0 -3 25 -5 55 -8 143 -14 202 -19 207 -3 4 -1
12 5 20 6 7 7 13 3 13 -5 0 -10 21 -11 48 -1 26 -4 85 -8 132 -3 47 -8 112
-10 145 -2 33 -7 94 -10 135 -10 136 -14 194 -20 275 -6 96 -13 190 -19 265
-2 30 -7 105 -11 165 -17 282 -31 339 -104 451 -38 60 -111 131 -159 155 -15
8 -55 31 -90 51 -34 21 -64 38 -67 38 -2 0 -30 15 -62 34 -70 40 -142 81 -203
114 -86 46 -105 57 -110 63 -3 3 -27 16 -55 30 -27 13 -51 27 -53 32 -2 4 -8
7 -12 7 -5 0 -36 16 -69 35 -33 20 -64 36 -68 36 -5 0 -14 5 -21 11 -18 15
-71 46 -112 64 -19 9 -37 19 -40 23 -3 3 -34 22 -70 40 -36 19 -67 37 -70 41
-4 5 -64 30 -145 59 -11 4 -40 9 -65 10 -25 2 -47 4 -50 5 -3 1 -34 -1 -68 -5z"/>
</g>
</svg>
