<svg width="768" height="1091" viewBox="0 0 768 1091" fill="none" xmlns="http://www.w3.org/2000/svg">
<g opacity="0.09">
<path d="M25.207 1022.95L-35.8202 1054.03" stroke="#F5F1EE" stroke-width="2.11606" stroke-linecap="round" stroke-linejoin="round"/>
<path d="M25.2084 1022.95V884.163" stroke="#F5F1EE" stroke-width="2.11606" stroke-linecap="round" stroke-linejoin="round"/>
<path d="M25.207 884.163L-35.8202 909.59" stroke="#F5F1EE" stroke-width="2.11606" stroke-linecap="round" stroke-linejoin="round"/>
<path d="M25.2084 884.162V745.306" stroke="#F5F1EE" stroke-width="2.11606" stroke-linecap="round" stroke-linejoin="round"/>
<path d="M25.207 745.306L-35.8202 765.082" stroke="#F5F1EE" stroke-width="2.11606" stroke-linecap="round" stroke-linejoin="round"/>
<path d="M25.2084 745.307V606.521" stroke="#F5F1EE" stroke-width="2.11606" stroke-linecap="round" stroke-linejoin="round"/>
<path d="M25.207 606.521L-35.8202 620.647" stroke="#F5F1EE" stroke-width="2.11606" stroke-linecap="round" stroke-linejoin="round"/>
<path d="M25.2084 606.521V467.736" stroke="#F5F1EE" stroke-width="2.11606" stroke-linecap="round" stroke-linejoin="round"/>
<path d="M25.207 467.736L-35.8202 476.211" stroke="#F5F1EE" stroke-width="2.11606" stroke-linecap="round" stroke-linejoin="round"/>
<path d="M25.2084 467.735V328.879" stroke="#F5F1EE" stroke-width="2.11606" stroke-linecap="round" stroke-linejoin="round"/>
<path d="M25.207 328.879L-35.8202 331.704" stroke="#F5F1EE" stroke-width="2.11606" stroke-linecap="round" stroke-linejoin="round"/>
<path d="M25.2084 328.88V190.094" stroke="#F5F1EE" stroke-width="2.11606" stroke-linecap="round" stroke-linejoin="round"/>
<path d="M25.207 190.095L-35.8202 187.27" stroke="#F5F1EE" stroke-width="2.11606" stroke-linecap="round" stroke-linejoin="round"/>
<path d="M25.2084 190.094V51.3086" stroke="#F5F1EE" stroke-width="2.11606" stroke-linecap="round" stroke-linejoin="round"/>
<path d="M25.207 51.3076L-35.8202 42.832" stroke="#F5F1EE" stroke-width="2.11606" stroke-linecap="round" stroke-linejoin="round"/>
<path d="M25.2084 51.3079V-87.5483" stroke="#F5F1EE" stroke-width="2.11606" stroke-linecap="round" stroke-linejoin="round"/>
<path d="M81.664 994.203L25.2084 1022.95" stroke="#F5F1EE" stroke-width="2.11606" stroke-linecap="round" stroke-linejoin="round"/>
<path d="M81.6584 994.203V860.644" stroke="#F5F1EE" stroke-width="2.11606" stroke-linecap="round" stroke-linejoin="round"/>
<path d="M81.664 860.644L25.2084 884.163" stroke="#F5F1EE" stroke-width="2.11606" stroke-linecap="round" stroke-linejoin="round"/>
<path d="M81.6584 860.644V727.014" stroke="#F5F1EE" stroke-width="2.11606" stroke-linecap="round" stroke-linejoin="round"/>
<path d="M81.664 727.014L25.2084 745.307" stroke="#F5F1EE" stroke-width="2.11606" stroke-linecap="round" stroke-linejoin="round"/>
<path d="M81.6584 727.013V593.454" stroke="#F5F1EE" stroke-width="2.11606" stroke-linecap="round" stroke-linejoin="round"/>
<path d="M81.664 593.454L25.2084 606.52" stroke="#F5F1EE" stroke-width="2.11606" stroke-linecap="round" stroke-linejoin="round"/>
<path d="M81.6584 593.457V459.897" stroke="#F5F1EE" stroke-width="2.11606" stroke-linecap="round" stroke-linejoin="round"/>
<path d="M81.664 459.897L25.2084 467.737" stroke="#F5F1EE" stroke-width="2.11606" stroke-linecap="round" stroke-linejoin="round"/>
<path d="M81.6584 459.894V326.265" stroke="#F5F1EE" stroke-width="2.11606" stroke-linecap="round" stroke-linejoin="round"/>
<path d="M81.664 326.265L25.2084 328.878" stroke="#F5F1EE" stroke-width="2.11606" stroke-linecap="round" stroke-linejoin="round"/>
<path d="M81.6584 326.267V192.708" stroke="#F5F1EE" stroke-width="2.11606" stroke-linecap="round" stroke-linejoin="round"/>
<path d="M81.664 192.707L25.2084 190.094" stroke="#F5F1EE" stroke-width="2.11606" stroke-linecap="round" stroke-linejoin="round"/>
<path d="M81.6584 192.707V59.1475" stroke="#F5F1EE" stroke-width="2.11606" stroke-linecap="round" stroke-linejoin="round"/>
<path d="M81.664 59.1483L25.2084 51.3086" stroke="#F5F1EE" stroke-width="2.11606" stroke-linecap="round" stroke-linejoin="round"/>
<path d="M81.6584 59.1486V-74.481" stroke="#F5F1EE" stroke-width="2.11606" stroke-linecap="round" stroke-linejoin="round"/>
<path d="M134.05 967.576L81.6584 994.203" stroke="#F5F1EE" stroke-width="2.11606" stroke-linecap="round" stroke-linejoin="round"/>
<path d="M134.056 967.576V838.82" stroke="#F5F1EE" stroke-width="2.11606" stroke-linecap="round" stroke-linejoin="round"/>
<path d="M134.05 838.82L81.6584 860.645" stroke="#F5F1EE" stroke-width="2.11606" stroke-linecap="round" stroke-linejoin="round"/>
<path d="M134.056 838.821V710.064" stroke="#F5F1EE" stroke-width="2.11606" stroke-linecap="round" stroke-linejoin="round"/>
<path d="M134.05 710.064L81.6584 727.015" stroke="#F5F1EE" stroke-width="2.11606" stroke-linecap="round" stroke-linejoin="round"/>
<path d="M134.056 710.064V581.308" stroke="#F5F1EE" stroke-width="2.11606" stroke-linecap="round" stroke-linejoin="round"/>
<path d="M134.05 581.308L81.6584 593.456" stroke="#F5F1EE" stroke-width="2.11606" stroke-linecap="round" stroke-linejoin="round"/>
<path d="M134.056 581.307V452.621" stroke="#F5F1EE" stroke-width="2.11606" stroke-linecap="round" stroke-linejoin="round"/>
<path d="M134.05 452.621L81.6584 459.896" stroke="#F5F1EE" stroke-width="2.11606" stroke-linecap="round" stroke-linejoin="round"/>
<path d="M134.056 452.621V323.864" stroke="#F5F1EE" stroke-width="2.11606" stroke-linecap="round" stroke-linejoin="round"/>
<path d="M134.05 323.864L81.6584 326.266" stroke="#F5F1EE" stroke-width="2.11606" stroke-linecap="round" stroke-linejoin="round"/>
<path d="M134.056 323.865V195.108" stroke="#F5F1EE" stroke-width="2.11606" stroke-linecap="round" stroke-linejoin="round"/>
<path d="M134.05 195.109L81.6584 192.708" stroke="#F5F1EE" stroke-width="2.11606" stroke-linecap="round" stroke-linejoin="round"/>
<path d="M134.056 195.111V66.4248" stroke="#F5F1EE" stroke-width="2.11606" stroke-linecap="round" stroke-linejoin="round"/>
<path d="M134.05 66.4222L81.6584 59.1475" stroke="#F5F1EE" stroke-width="2.11606" stroke-linecap="round" stroke-linejoin="round"/>
<path d="M134.056 66.4246V-62.3315" stroke="#F5F1EE" stroke-width="2.11606" stroke-linecap="round" stroke-linejoin="round"/>
<path d="M182.747 942.784L134.056 967.574" stroke="#F5F1EE" stroke-width="2.11606" stroke-linecap="round" stroke-linejoin="round"/>
<path d="M182.746 942.785V818.549" stroke="#F5F1EE" stroke-width="2.11606" stroke-linecap="round" stroke-linejoin="round"/>
<path d="M182.747 818.549L134.056 838.819" stroke="#F5F1EE" stroke-width="2.11606" stroke-linecap="round" stroke-linejoin="round"/>
<path d="M182.746 818.55V694.314" stroke="#F5F1EE" stroke-width="2.11606" stroke-linecap="round" stroke-linejoin="round"/>
<path d="M182.747 694.314L134.056 710.064" stroke="#F5F1EE" stroke-width="2.11606" stroke-linecap="round" stroke-linejoin="round"/>
<path d="M182.746 694.311V570.075" stroke="#F5F1EE" stroke-width="2.11606" stroke-linecap="round" stroke-linejoin="round"/>
<path d="M182.747 570.075L134.056 581.305" stroke="#F5F1EE" stroke-width="2.11606" stroke-linecap="round" stroke-linejoin="round"/>
<path d="M182.746 570.076V445.84" stroke="#F5F1EE" stroke-width="2.11606" stroke-linecap="round" stroke-linejoin="round"/>
<path d="M182.747 445.84L134.056 452.621" stroke="#F5F1EE" stroke-width="2.11606" stroke-linecap="round" stroke-linejoin="round"/>
<path d="M182.746 445.842V321.605" stroke="#F5F1EE" stroke-width="2.11606" stroke-linecap="round" stroke-linejoin="round"/>
<path d="M182.747 321.605L134.056 323.866" stroke="#F5F1EE" stroke-width="2.11606" stroke-linecap="round" stroke-linejoin="round"/>
<path d="M182.746 321.603V197.367" stroke="#F5F1EE" stroke-width="2.11606" stroke-linecap="round" stroke-linejoin="round"/>
<path d="M182.747 197.369L134.056 195.108" stroke="#F5F1EE" stroke-width="2.11606" stroke-linecap="round" stroke-linejoin="round"/>
<path d="M182.746 197.368V73.1323" stroke="#F5F1EE" stroke-width="2.11606" stroke-linecap="round" stroke-linejoin="round"/>
<path d="M182.747 73.1346L134.056 66.4248" stroke="#F5F1EE" stroke-width="2.11606" stroke-linecap="round" stroke-linejoin="round"/>
<path d="M182.746 73.1312V-51.0342" stroke="#F5F1EE" stroke-width="2.11606" stroke-linecap="round" stroke-linejoin="round"/>
<path d="M228.099 919.619L182.746 942.785" stroke="#F5F1EE" stroke-width="2.11606" stroke-linecap="round" stroke-linejoin="round"/>
<path d="M228.1 919.618V799.619" stroke="#F5F1EE" stroke-width="2.11606" stroke-linecap="round" stroke-linejoin="round"/>
<path d="M228.099 799.619L182.746 818.548" stroke="#F5F1EE" stroke-width="2.11606" stroke-linecap="round" stroke-linejoin="round"/>
<path d="M228.1 799.619V679.55" stroke="#F5F1EE" stroke-width="2.11606" stroke-linecap="round" stroke-linejoin="round"/>
<path d="M228.099 679.55L182.746 694.312" stroke="#F5F1EE" stroke-width="2.11606" stroke-linecap="round" stroke-linejoin="round"/>
<path d="M228.1 679.552V559.554" stroke="#F5F1EE" stroke-width="2.11606" stroke-linecap="round" stroke-linejoin="round"/>
<path d="M228.099 559.554L182.746 570.077" stroke="#F5F1EE" stroke-width="2.11606" stroke-linecap="round" stroke-linejoin="round"/>
<path d="M228.1 559.551V439.553" stroke="#F5F1EE" stroke-width="2.11606" stroke-linecap="round" stroke-linejoin="round"/>
<path d="M228.099 439.553L182.746 445.839" stroke="#F5F1EE" stroke-width="2.11606" stroke-linecap="round" stroke-linejoin="round"/>
<path d="M228.1 439.553V319.484" stroke="#F5F1EE" stroke-width="2.11606" stroke-linecap="round" stroke-linejoin="round"/>
<path d="M228.099 319.484L182.746 321.603" stroke="#F5F1EE" stroke-width="2.11606" stroke-linecap="round" stroke-linejoin="round"/>
<path d="M228.1 319.487V199.488" stroke="#F5F1EE" stroke-width="2.11606" stroke-linecap="round" stroke-linejoin="round"/>
<path d="M228.099 199.486L182.746 197.367" stroke="#F5F1EE" stroke-width="2.11606" stroke-linecap="round" stroke-linejoin="round"/>
<path d="M228.1 199.487V79.4883" stroke="#F5F1EE" stroke-width="2.11606" stroke-linecap="round" stroke-linejoin="round"/>
<path d="M228.099 79.4889L182.746 73.1323" stroke="#F5F1EE" stroke-width="2.11606" stroke-linecap="round" stroke-linejoin="round"/>
<path d="M228.1 79.4879V-40.5811" stroke="#F5F1EE" stroke-width="2.11606" stroke-linecap="round" stroke-linejoin="round"/>
<path d="M270.55 898.006L228.1 919.619" stroke="#F5F1EE" stroke-width="2.11606" stroke-linecap="round" stroke-linejoin="round"/>
<path d="M270.547 898.005V781.962" stroke="#F5F1EE" stroke-width="2.11606" stroke-linecap="round" stroke-linejoin="round"/>
<path d="M270.55 781.962L228.1 799.619" stroke="#F5F1EE" stroke-width="2.11606" stroke-linecap="round" stroke-linejoin="round"/>
<path d="M270.547 781.962V665.849" stroke="#F5F1EE" stroke-width="2.11606" stroke-linecap="round" stroke-linejoin="round"/>
<path d="M270.55 665.849L228.1 679.55" stroke="#F5F1EE" stroke-width="2.11606" stroke-linecap="round" stroke-linejoin="round"/>
<path d="M270.547 665.849V549.735" stroke="#F5F1EE" stroke-width="2.11606" stroke-linecap="round" stroke-linejoin="round"/>
<path d="M270.55 549.735L228.1 559.552" stroke="#F5F1EE" stroke-width="2.11606" stroke-linecap="round" stroke-linejoin="round"/>
<path d="M270.547 549.735V433.622" stroke="#F5F1EE" stroke-width="2.11606" stroke-linecap="round" stroke-linejoin="round"/>
<path d="M270.55 433.622L228.1 439.554" stroke="#F5F1EE" stroke-width="2.11606" stroke-linecap="round" stroke-linejoin="round"/>
<path d="M270.547 433.621V317.578" stroke="#F5F1EE" stroke-width="2.11606" stroke-linecap="round" stroke-linejoin="round"/>
<path d="M270.55 317.578L228.1 319.485" stroke="#F5F1EE" stroke-width="2.11606" stroke-linecap="round" stroke-linejoin="round"/>
<path d="M270.547 317.577V201.464" stroke="#F5F1EE" stroke-width="2.11606" stroke-linecap="round" stroke-linejoin="round"/>
<path d="M270.55 201.466L228.1 199.488" stroke="#F5F1EE" stroke-width="2.11606" stroke-linecap="round" stroke-linejoin="round"/>
<path d="M270.547 201.465V85.3511" stroke="#F5F1EE" stroke-width="2.11606" stroke-linecap="round" stroke-linejoin="round"/>
<path d="M270.55 85.3506L228.1 79.4883" stroke="#F5F1EE" stroke-width="2.11606" stroke-linecap="round" stroke-linejoin="round"/>
<path d="M270.547 85.3511V-30.7627" stroke="#F5F1EE" stroke-width="2.11606" stroke-linecap="round" stroke-linejoin="round"/>
<path d="M310.24 877.808L270.547 898.008" stroke="#F5F1EE" stroke-width="2.11606" stroke-linecap="round" stroke-linejoin="round"/>
<path d="M310.238 877.808V765.367" stroke="#F5F1EE" stroke-width="2.11606" stroke-linecap="round" stroke-linejoin="round"/>
<path d="M310.24 765.367L270.547 781.965" stroke="#F5F1EE" stroke-width="2.11606" stroke-linecap="round" stroke-linejoin="round"/>
<path d="M310.238 765.364V652.923" stroke="#F5F1EE" stroke-width="2.11606" stroke-linecap="round" stroke-linejoin="round"/>
<path d="M310.24 652.923L270.547 665.849" stroke="#F5F1EE" stroke-width="2.11606" stroke-linecap="round" stroke-linejoin="round"/>
<path d="M310.238 652.925V540.555" stroke="#F5F1EE" stroke-width="2.11606" stroke-linecap="round" stroke-linejoin="round"/>
<path d="M310.24 540.555L270.547 549.737" stroke="#F5F1EE" stroke-width="2.11606" stroke-linecap="round" stroke-linejoin="round"/>
<path d="M310.238 540.556V428.115" stroke="#F5F1EE" stroke-width="2.11606" stroke-linecap="round" stroke-linejoin="round"/>
<path d="M310.24 428.115L270.547 433.624" stroke="#F5F1EE" stroke-width="2.11606" stroke-linecap="round" stroke-linejoin="round"/>
<path d="M310.238 428.114V315.743" stroke="#F5F1EE" stroke-width="2.11606" stroke-linecap="round" stroke-linejoin="round"/>
<path d="M310.24 315.743L270.547 317.579" stroke="#F5F1EE" stroke-width="2.11606" stroke-linecap="round" stroke-linejoin="round"/>
<path d="M310.238 315.743V203.302" stroke="#F5F1EE" stroke-width="2.11606" stroke-linecap="round" stroke-linejoin="round"/>
<path d="M310.24 203.3L270.547 201.464" stroke="#F5F1EE" stroke-width="2.11606" stroke-linecap="round" stroke-linejoin="round"/>
<path d="M310.238 203.303V90.8623" stroke="#F5F1EE" stroke-width="2.11606" stroke-linecap="round" stroke-linejoin="round"/>
<path d="M310.24 90.8601L270.547 85.3511" stroke="#F5F1EE" stroke-width="2.11606" stroke-linecap="round" stroke-linejoin="round"/>
<path d="M310.238 90.8607V-21.5098" stroke="#F5F1EE" stroke-width="2.11606" stroke-linecap="round" stroke-linejoin="round"/>
<path d="M347.537 858.809L310.238 877.808" stroke="#F5F1EE" stroke-width="2.11606" stroke-linecap="round" stroke-linejoin="round"/>
<path d="M347.541 858.807V749.827" stroke="#F5F1EE" stroke-width="2.11606" stroke-linecap="round" stroke-linejoin="round"/>
<path d="M347.537 749.827L310.238 765.365" stroke="#F5F1EE" stroke-width="2.11606" stroke-linecap="round" stroke-linejoin="round"/>
<path d="M347.541 749.825V640.845" stroke="#F5F1EE" stroke-width="2.11606" stroke-linecap="round" stroke-linejoin="round"/>
<path d="M347.537 640.845L310.238 652.923" stroke="#F5F1EE" stroke-width="2.11606" stroke-linecap="round" stroke-linejoin="round"/>
<path d="M347.541 640.847V531.937" stroke="#F5F1EE" stroke-width="2.11606" stroke-linecap="round" stroke-linejoin="round"/>
<path d="M347.537 531.937L310.238 540.554" stroke="#F5F1EE" stroke-width="2.11606" stroke-linecap="round" stroke-linejoin="round"/>
<path d="M347.541 531.939V422.958" stroke="#F5F1EE" stroke-width="2.11606" stroke-linecap="round" stroke-linejoin="round"/>
<path d="M347.537 422.958L310.238 428.114" stroke="#F5F1EE" stroke-width="2.11606" stroke-linecap="round" stroke-linejoin="round"/>
<path d="M347.541 422.957V313.977" stroke="#F5F1EE" stroke-width="2.11606" stroke-linecap="round" stroke-linejoin="round"/>
<path d="M347.537 313.977L310.238 315.743" stroke="#F5F1EE" stroke-width="2.11606" stroke-linecap="round" stroke-linejoin="round"/>
<path d="M347.541 313.976V204.996" stroke="#F5F1EE" stroke-width="2.11606" stroke-linecap="round" stroke-linejoin="round"/>
<path d="M347.537 204.997L310.238 203.302" stroke="#F5F1EE" stroke-width="2.11606" stroke-linecap="round" stroke-linejoin="round"/>
<path d="M347.541 204.997V96.0869" stroke="#F5F1EE" stroke-width="2.11606" stroke-linecap="round" stroke-linejoin="round"/>
<path d="M347.537 96.0888L310.238 90.8623" stroke="#F5F1EE" stroke-width="2.11606" stroke-linecap="round" stroke-linejoin="round"/>
<path d="M347.541 96.0886V-12.8916" stroke="#F5F1EE" stroke-width="2.11606" stroke-linecap="round" stroke-linejoin="round"/>
<path d="M780.753 994.203L754.557 967.576" stroke="#F5F1EE" stroke-width="2.11606" stroke-linecap="round" stroke-linejoin="round"/>
<path d="M754.557 838.82V967.576" stroke="#F5F1EE" stroke-width="2.11606" stroke-linecap="round" stroke-linejoin="round"/>
<path d="M780.753 860.645L754.557 838.82" stroke="#F5F1EE" stroke-width="2.11606" stroke-linecap="round" stroke-linejoin="round"/>
<path d="M754.557 710.064V838.821" stroke="#F5F1EE" stroke-width="2.11606" stroke-linecap="round" stroke-linejoin="round"/>
<path d="M780.753 727.015L754.557 710.064" stroke="#F5F1EE" stroke-width="2.11606" stroke-linecap="round" stroke-linejoin="round"/>
<path d="M754.557 581.309V710.065" stroke="#F5F1EE" stroke-width="2.11606" stroke-linecap="round" stroke-linejoin="round"/>
<path d="M780.753 593.457L754.557 581.309" stroke="#F5F1EE" stroke-width="2.11606" stroke-linecap="round" stroke-linejoin="round"/>
<path d="M754.557 452.621V581.307" stroke="#F5F1EE" stroke-width="2.11606" stroke-linecap="round" stroke-linejoin="round"/>
<path d="M780.753 459.896L754.557 452.621" stroke="#F5F1EE" stroke-width="2.11606" stroke-linecap="round" stroke-linejoin="round"/>
<path d="M754.557 323.864V452.621" stroke="#F5F1EE" stroke-width="2.11606" stroke-linecap="round" stroke-linejoin="round"/>
<path d="M780.753 326.266L754.557 323.864" stroke="#F5F1EE" stroke-width="2.11606" stroke-linecap="round" stroke-linejoin="round"/>
<path d="M754.557 195.108V323.865" stroke="#F5F1EE" stroke-width="2.11606" stroke-linecap="round" stroke-linejoin="round"/>
<path d="M780.753 192.708L754.557 195.109" stroke="#F5F1EE" stroke-width="2.11606" stroke-linecap="round" stroke-linejoin="round"/>
<path d="M754.557 66.4248V195.111" stroke="#F5F1EE" stroke-width="2.11606" stroke-linecap="round" stroke-linejoin="round"/>
<path d="M780.753 59.1479L754.557 66.4227" stroke="#F5F1EE" stroke-width="2.11606" stroke-linecap="round" stroke-linejoin="round"/>
<path d="M754.557 -62.3311V66.4251" stroke="#F5F1EE" stroke-width="2.11606" stroke-linecap="round" stroke-linejoin="round"/>
<path d="M754.56 967.575L730.251 942.785" stroke="#F5F1EE" stroke-width="2.11606" stroke-linecap="round" stroke-linejoin="round"/>
<path d="M730.251 818.549V942.785" stroke="#F5F1EE" stroke-width="2.11606" stroke-linecap="round" stroke-linejoin="round"/>
<path d="M754.56 838.819L730.251 818.549" stroke="#F5F1EE" stroke-width="2.11606" stroke-linecap="round" stroke-linejoin="round"/>
<path d="M730.251 694.314V818.55" stroke="#F5F1EE" stroke-width="2.11606" stroke-linecap="round" stroke-linejoin="round"/>
<path d="M754.56 710.064L730.251 694.314" stroke="#F5F1EE" stroke-width="2.11606" stroke-linecap="round" stroke-linejoin="round"/>
<path d="M730.251 570.076V694.312" stroke="#F5F1EE" stroke-width="2.11606" stroke-linecap="round" stroke-linejoin="round"/>
<path d="M754.56 581.306L730.251 570.076" stroke="#F5F1EE" stroke-width="2.11606" stroke-linecap="round" stroke-linejoin="round"/>
<path d="M730.251 445.84V570.076" stroke="#F5F1EE" stroke-width="2.11606" stroke-linecap="round" stroke-linejoin="round"/>
<path d="M754.56 452.621L730.251 445.84" stroke="#F5F1EE" stroke-width="2.11606" stroke-linecap="round" stroke-linejoin="round"/>
<path d="M730.251 321.605V445.842" stroke="#F5F1EE" stroke-width="2.11606" stroke-linecap="round" stroke-linejoin="round"/>
<path d="M754.56 323.866L730.251 321.605" stroke="#F5F1EE" stroke-width="2.11606" stroke-linecap="round" stroke-linejoin="round"/>
<path d="M730.251 197.367V321.603" stroke="#F5F1EE" stroke-width="2.11606" stroke-linecap="round" stroke-linejoin="round"/>
<path d="M754.56 195.108L730.251 197.369" stroke="#F5F1EE" stroke-width="2.11606" stroke-linecap="round" stroke-linejoin="round"/>
<path d="M730.251 73.1323V197.368" stroke="#F5F1EE" stroke-width="2.11606" stroke-linecap="round" stroke-linejoin="round"/>
<path d="M754.56 66.4248L730.251 73.1346" stroke="#F5F1EE" stroke-width="2.11606" stroke-linecap="round" stroke-linejoin="round"/>
<path d="M730.251 -51.0337V73.1317" stroke="#F5F1EE" stroke-width="2.11606" stroke-linecap="round" stroke-linejoin="round"/>
<path d="M730.252 942.785L707.539 919.619" stroke="#F5F1EE" stroke-width="2.11606" stroke-linecap="round" stroke-linejoin="round"/>
<path d="M707.539 799.619V919.618" stroke="#F5F1EE" stroke-width="2.11606" stroke-linecap="round" stroke-linejoin="round"/>
<path d="M730.252 818.548L707.539 799.619" stroke="#F5F1EE" stroke-width="2.11606" stroke-linecap="round" stroke-linejoin="round"/>
<path d="M707.539 679.55V799.619" stroke="#F5F1EE" stroke-width="2.11606" stroke-linecap="round" stroke-linejoin="round"/>
<path d="M730.252 694.312L707.539 679.55" stroke="#F5F1EE" stroke-width="2.11606" stroke-linecap="round" stroke-linejoin="round"/>
<path d="M707.539 559.554V679.552" stroke="#F5F1EE" stroke-width="2.11606" stroke-linecap="round" stroke-linejoin="round"/>
<path d="M730.252 570.077L707.539 559.554" stroke="#F5F1EE" stroke-width="2.11606" stroke-linecap="round" stroke-linejoin="round"/>
<path d="M707.539 439.553V559.551" stroke="#F5F1EE" stroke-width="2.11606" stroke-linecap="round" stroke-linejoin="round"/>
<path d="M730.252 445.839L707.539 439.553" stroke="#F5F1EE" stroke-width="2.11606" stroke-linecap="round" stroke-linejoin="round"/>
<path d="M707.539 319.485V439.554" stroke="#F5F1EE" stroke-width="2.11606" stroke-linecap="round" stroke-linejoin="round"/>
<path d="M730.252 321.604L707.539 319.485" stroke="#F5F1EE" stroke-width="2.11606" stroke-linecap="round" stroke-linejoin="round"/>
<path d="M707.539 199.488V319.487" stroke="#F5F1EE" stroke-width="2.11606" stroke-linecap="round" stroke-linejoin="round"/>
<path d="M730.252 197.367L707.539 199.486" stroke="#F5F1EE" stroke-width="2.11606" stroke-linecap="round" stroke-linejoin="round"/>
<path d="M707.539 79.4883V199.487" stroke="#F5F1EE" stroke-width="2.11606" stroke-linecap="round" stroke-linejoin="round"/>
<path d="M730.252 73.1323L707.539 79.4889" stroke="#F5F1EE" stroke-width="2.11606" stroke-linecap="round" stroke-linejoin="round"/>
<path d="M707.539 -40.5806V79.4884" stroke="#F5F1EE" stroke-width="2.11606" stroke-linecap="round" stroke-linejoin="round"/>
<path d="M707.532 919.619L686.343 898.006" stroke="#F5F1EE" stroke-width="2.11606" stroke-linecap="round" stroke-linejoin="round"/>
<path d="M686.343 781.962V898.005" stroke="#F5F1EE" stroke-width="2.11606" stroke-linecap="round" stroke-linejoin="round"/>
<path d="M707.532 799.619L686.343 781.962" stroke="#F5F1EE" stroke-width="2.11606" stroke-linecap="round" stroke-linejoin="round"/>
<path d="M686.343 665.849V781.962" stroke="#F5F1EE" stroke-width="2.11606" stroke-linecap="round" stroke-linejoin="round"/>
<path d="M707.532 679.55L686.343 665.849" stroke="#F5F1EE" stroke-width="2.11606" stroke-linecap="round" stroke-linejoin="round"/>
<path d="M686.343 549.735V665.849" stroke="#F5F1EE" stroke-width="2.11606" stroke-linecap="round" stroke-linejoin="round"/>
<path d="M707.532 559.552L686.343 549.735" stroke="#F5F1EE" stroke-width="2.11606" stroke-linecap="round" stroke-linejoin="round"/>
<path d="M686.343 433.622V549.735" stroke="#F5F1EE" stroke-width="2.11606" stroke-linecap="round" stroke-linejoin="round"/>
<path d="M707.532 439.554L686.343 433.622" stroke="#F5F1EE" stroke-width="2.11606" stroke-linecap="round" stroke-linejoin="round"/>
<path d="M686.343 317.578V433.621" stroke="#F5F1EE" stroke-width="2.11606" stroke-linecap="round" stroke-linejoin="round"/>
<path d="M707.532 319.485L686.343 317.578" stroke="#F5F1EE" stroke-width="2.11606" stroke-linecap="round" stroke-linejoin="round"/>
<path d="M686.343 201.464V317.578" stroke="#F5F1EE" stroke-width="2.11606" stroke-linecap="round" stroke-linejoin="round"/>
<path d="M707.532 199.488L686.343 201.466" stroke="#F5F1EE" stroke-width="2.11606" stroke-linecap="round" stroke-linejoin="round"/>
<path d="M686.343 85.3511V201.465" stroke="#F5F1EE" stroke-width="2.11606" stroke-linecap="round" stroke-linejoin="round"/>
<path d="M707.532 79.4883L686.343 85.3506" stroke="#F5F1EE" stroke-width="2.11606" stroke-linecap="round" stroke-linejoin="round"/>
<path d="M686.343 -30.7622V85.3516" stroke="#F5F1EE" stroke-width="2.11606" stroke-linecap="round" stroke-linejoin="round"/>
<path d="M686.348 898.008L666.466 877.808" stroke="#F5F1EE" stroke-width="2.11606" stroke-linecap="round" stroke-linejoin="round"/>
<path d="M666.466 765.367V877.808" stroke="#F5F1EE" stroke-width="2.11606" stroke-linecap="round" stroke-linejoin="round"/>
<path d="M686.348 781.965L666.466 765.367" stroke="#F5F1EE" stroke-width="2.11606" stroke-linecap="round" stroke-linejoin="round"/>
<path d="M666.466 652.923V765.364" stroke="#F5F1EE" stroke-width="2.11606" stroke-linecap="round" stroke-linejoin="round"/>
<path d="M686.348 665.849L666.466 652.923" stroke="#F5F1EE" stroke-width="2.11606" stroke-linecap="round" stroke-linejoin="round"/>
<path d="M666.466 540.555V652.925" stroke="#F5F1EE" stroke-width="2.11606" stroke-linecap="round" stroke-linejoin="round"/>
<path d="M686.348 549.737L666.466 540.555" stroke="#F5F1EE" stroke-width="2.11606" stroke-linecap="round" stroke-linejoin="round"/>
<path d="M666.466 428.115V540.556" stroke="#F5F1EE" stroke-width="2.11606" stroke-linecap="round" stroke-linejoin="round"/>
<path d="M686.348 433.624L666.466 428.115" stroke="#F5F1EE" stroke-width="2.11606" stroke-linecap="round" stroke-linejoin="round"/>
<path d="M666.466 315.743V428.114" stroke="#F5F1EE" stroke-width="2.11606" stroke-linecap="round" stroke-linejoin="round"/>
<path d="M686.348 317.579L666.466 315.743" stroke="#F5F1EE" stroke-width="2.11606" stroke-linecap="round" stroke-linejoin="round"/>
<path d="M666.466 203.302V315.743" stroke="#F5F1EE" stroke-width="2.11606" stroke-linecap="round" stroke-linejoin="round"/>
<path d="M686.348 201.464L666.466 203.3" stroke="#F5F1EE" stroke-width="2.11606" stroke-linecap="round" stroke-linejoin="round"/>
<path d="M666.466 90.8623V203.303" stroke="#F5F1EE" stroke-width="2.11606" stroke-linecap="round" stroke-linejoin="round"/>
<path d="M686.348 85.3511L666.466 90.8601" stroke="#F5F1EE" stroke-width="2.11606" stroke-linecap="round" stroke-linejoin="round"/>
<path d="M666.466 -21.5098V90.8607" stroke="#F5F1EE" stroke-width="2.11606" stroke-linecap="round" stroke-linejoin="round"/>
<path d="M666.464 877.808L647.814 858.809" stroke="#F5F1EE" stroke-width="2.11606" stroke-linecap="round" stroke-linejoin="round"/>
<path d="M647.814 749.827V858.807" stroke="#F5F1EE" stroke-width="2.11606" stroke-linecap="round" stroke-linejoin="round"/>
<path d="M666.464 765.365L647.814 749.827" stroke="#F5F1EE" stroke-width="2.11606" stroke-linecap="round" stroke-linejoin="round"/>
<path d="M647.814 640.845V749.825" stroke="#F5F1EE" stroke-width="2.11606" stroke-linecap="round" stroke-linejoin="round"/>
<path d="M666.464 652.923L647.814 640.845" stroke="#F5F1EE" stroke-width="2.11606" stroke-linecap="round" stroke-linejoin="round"/>
<path d="M647.814 531.937V640.847" stroke="#F5F1EE" stroke-width="2.11606" stroke-linecap="round" stroke-linejoin="round"/>
<path d="M666.464 540.554L647.814 531.937" stroke="#F5F1EE" stroke-width="2.11606" stroke-linecap="round" stroke-linejoin="round"/>
<path d="M647.814 422.958V531.939" stroke="#F5F1EE" stroke-width="2.11606" stroke-linecap="round" stroke-linejoin="round"/>
<path d="M666.464 428.114L647.814 422.958" stroke="#F5F1EE" stroke-width="2.11606" stroke-linecap="round" stroke-linejoin="round"/>
<path d="M647.814 313.977V422.957" stroke="#F5F1EE" stroke-width="2.11606" stroke-linecap="round" stroke-linejoin="round"/>
<path d="M666.464 315.743L647.814 313.977" stroke="#F5F1EE" stroke-width="2.11606" stroke-linecap="round" stroke-linejoin="round"/>
<path d="M647.814 204.996V313.976" stroke="#F5F1EE" stroke-width="2.11606" stroke-linecap="round" stroke-linejoin="round"/>
<path d="M666.464 203.302L647.814 204.997" stroke="#F5F1EE" stroke-width="2.11606" stroke-linecap="round" stroke-linejoin="round"/>
<path d="M647.814 96.0869V204.997" stroke="#F5F1EE" stroke-width="2.11606" stroke-linecap="round" stroke-linejoin="round"/>
<path d="M666.464 90.8623L647.814 96.0888" stroke="#F5F1EE" stroke-width="2.11606" stroke-linecap="round" stroke-linejoin="round"/>
<path d="M647.814 -12.8916V96.0886" stroke="#F5F1EE" stroke-width="2.11606" stroke-linecap="round" stroke-linejoin="round"/>
<path d="M647.815 858.809H347.541" stroke="#F5F1EE" stroke-width="2.11606" stroke-linecap="round" stroke-linejoin="round"/>
<path d="M647.815 749.831H347.541" stroke="#F5F1EE" stroke-width="2.11606" stroke-linecap="round" stroke-linejoin="round"/>
<path d="M647.815 640.849H347.541" stroke="#F5F1EE" stroke-width="2.11606" stroke-linecap="round" stroke-linejoin="round"/>
<path d="M647.815 531.94H347.541" stroke="#F5F1EE" stroke-width="2.11606" stroke-linecap="round" stroke-linejoin="round"/>
<path d="M647.815 422.958H347.541" stroke="#F5F1EE" stroke-width="2.11606" stroke-linecap="round" stroke-linejoin="round"/>
<path d="M647.815 313.977H347.541" stroke="#F5F1EE" stroke-width="2.11606" stroke-linecap="round" stroke-linejoin="round"/>
<path d="M647.815 204.999H347.541" stroke="#F5F1EE" stroke-width="2.11606" stroke-linecap="round" stroke-linejoin="round"/>
<path d="M647.815 96.0898H347.541" stroke="#F5F1EE" stroke-width="2.11606" stroke-linecap="round" stroke-linejoin="round"/>
<path d="M347.541 858.809V-12.8916" stroke="#F5F1EE" stroke-width="2.11606" stroke-linecap="round" stroke-linejoin="round"/>
<path d="M397.614 858.809V-12.8916" stroke="#F5F1EE" stroke-width="2.11606" stroke-linecap="round" stroke-linejoin="round"/>
<path d="M447.609 858.809V-12.8916" stroke="#F5F1EE" stroke-width="2.11606" stroke-linecap="round" stroke-linejoin="round"/>
<path d="M497.682 858.809V-12.8916" stroke="#F5F1EE" stroke-width="2.11606" stroke-linecap="round" stroke-linejoin="round"/>
<path d="M547.747 858.809V-12.8916" stroke="#F5F1EE" stroke-width="2.11606" stroke-linecap="round" stroke-linejoin="round"/>
<path d="M597.741 858.809V-12.8916" stroke="#F5F1EE" stroke-width="2.11606" stroke-linecap="round" stroke-linejoin="round"/>
<path d="M647.815 858.809V-12.8916" stroke="#F5F1EE" stroke-width="2.11606" stroke-linecap="round" stroke-linejoin="round"/>
<path d="M347.54 858.808L-102 1087.79V-117L347.54 -12.893H647.814L872.62 -117V1087.79L647.814 858.808H347.54Z" stroke="#F5F1EE" stroke-opacity="0.32" stroke-width="5.29015" stroke-linecap="round" stroke-linejoin="round"/>
<path d="M647.814 -12.8916V858.809" stroke="#F5F1EE" stroke-opacity="0.32" stroke-width="5.29015" stroke-linecap="round" stroke-linejoin="round"/>
<path d="M347.541 -12.8916V858.809" stroke="#F5F1EE" stroke-opacity="0.32" stroke-width="5.29015" stroke-linecap="round" stroke-linejoin="round"/>
</g>
</svg>
