<svg width="1466" height="1357" viewBox="0 0 1466 1357" fill="none" xmlns="http://www.w3.org/2000/svg">
<g opacity="0.09">
<path d="M102.137 1303.21L3 1353.78" stroke="#F5F1EE" stroke-width="2.11606" stroke-linecap="round" stroke-linejoin="round"/>
<path d="M3 1128.21V1353.78" stroke="#F5F1EE" stroke-width="2.11606" stroke-linecap="round" stroke-linejoin="round"/>
<path d="M102.138 1303.21V1086.85" stroke="#F5F1EE" stroke-width="2.11606" stroke-linecap="round" stroke-linejoin="round"/>
<path d="M102.137 1086.85L3 1128.22" stroke="#F5F1EE" stroke-width="2.11606" stroke-linecap="round" stroke-linejoin="round"/>
<path d="M3 902.539V1128.22" stroke="#F5F1EE" stroke-width="2.11606" stroke-linecap="round" stroke-linejoin="round"/>
<path d="M102.138 1086.85V870.374" stroke="#F5F1EE" stroke-width="2.11606" stroke-linecap="round" stroke-linejoin="round"/>
<path d="M102.137 870.374L3 902.538" stroke="#F5F1EE" stroke-width="2.11606" stroke-linecap="round" stroke-linejoin="round"/>
<path d="M3 676.963V902.535" stroke="#F5F1EE" stroke-width="2.11606" stroke-linecap="round" stroke-linejoin="round"/>
<path d="M102.138 870.372V654.005" stroke="#F5F1EE" stroke-width="2.11606" stroke-linecap="round" stroke-linejoin="round"/>
<path d="M102.137 654.005L3 676.964" stroke="#F5F1EE" stroke-width="2.11606" stroke-linecap="round" stroke-linejoin="round"/>
<path d="M3 451.394V676.965" stroke="#F5F1EE" stroke-width="2.11606" stroke-linecap="round" stroke-linejoin="round"/>
<path d="M102.138 654.007V437.641" stroke="#F5F1EE" stroke-width="2.11606" stroke-linecap="round" stroke-linejoin="round"/>
<path d="M102.137 437.641L3 451.395" stroke="#F5F1EE" stroke-width="2.11606" stroke-linecap="round" stroke-linejoin="round"/>
<path d="M3 225.823V451.395" stroke="#F5F1EE" stroke-width="2.11606" stroke-linecap="round" stroke-linejoin="round"/>
<path d="M102.138 437.636V221.163" stroke="#F5F1EE" stroke-width="2.11606" stroke-linecap="round" stroke-linejoin="round"/>
<path d="M102.137 221.163L3 225.818" stroke="#F5F1EE" stroke-width="2.11606" stroke-linecap="round" stroke-linejoin="round"/>
<path d="M3 0.248047V225.82" stroke="#F5F1EE" stroke-width="2.11606" stroke-linecap="round" stroke-linejoin="round"/>
<path d="M102.138 221.167V4.7998" stroke="#F5F1EE" stroke-width="2.11606" stroke-linecap="round" stroke-linejoin="round"/>
<path d="M102.137 4.7975L3 0.248047" stroke="#F5F1EE" stroke-width="2.11606" stroke-linecap="round" stroke-linejoin="round"/>
<path d="M3 -225.43V0.247648" stroke="#F5F1EE" stroke-width="2.11606" stroke-linecap="round" stroke-linejoin="round"/>
<path d="M102.138 4.79778V-211.569" stroke="#F5F1EE" stroke-width="2.11606" stroke-linecap="round" stroke-linejoin="round"/>
<path d="M193.558 1256.66L102.138 1303.22" stroke="#F5F1EE" stroke-width="2.11606" stroke-linecap="round" stroke-linejoin="round"/>
<path d="M193.56 1256.66V1048.76" stroke="#F5F1EE" stroke-width="2.11606" stroke-linecap="round" stroke-linejoin="round"/>
<path d="M193.558 1048.76L102.138 1086.84" stroke="#F5F1EE" stroke-width="2.11606" stroke-linecap="round" stroke-linejoin="round"/>
<path d="M193.56 1048.75V840.746" stroke="#F5F1EE" stroke-width="2.11606" stroke-linecap="round" stroke-linejoin="round"/>
<path d="M193.558 840.746L102.138 870.371" stroke="#F5F1EE" stroke-width="2.11606" stroke-linecap="round" stroke-linejoin="round"/>
<path d="M193.56 840.748V632.845" stroke="#F5F1EE" stroke-width="2.11606" stroke-linecap="round" stroke-linejoin="round"/>
<path d="M193.558 632.845L102.138 654.005" stroke="#F5F1EE" stroke-width="2.11606" stroke-linecap="round" stroke-linejoin="round"/>
<path d="M193.56 632.845V424.942" stroke="#F5F1EE" stroke-width="2.11606" stroke-linecap="round" stroke-linejoin="round"/>
<path d="M193.558 424.942L102.138 437.639" stroke="#F5F1EE" stroke-width="2.11606" stroke-linecap="round" stroke-linejoin="round"/>
<path d="M193.56 424.941V216.933" stroke="#F5F1EE" stroke-width="2.11606" stroke-linecap="round" stroke-linejoin="round"/>
<path d="M193.558 216.933L102.138 221.165" stroke="#F5F1EE" stroke-width="2.11606" stroke-linecap="round" stroke-linejoin="round"/>
<path d="M193.56 216.933V9.03076" stroke="#F5F1EE" stroke-width="2.11606" stroke-linecap="round" stroke-linejoin="round"/>
<path d="M193.558 9.03186L102.138 4.7998" stroke="#F5F1EE" stroke-width="2.11606" stroke-linecap="round" stroke-linejoin="round"/>
<path d="M193.56 9.03159V-198.871" stroke="#F5F1EE" stroke-width="2.11606" stroke-linecap="round" stroke-linejoin="round"/>
<path d="M278.131 1213.6L193.56 1256.66" stroke="#F5F1EE" stroke-width="2.11606" stroke-linecap="round" stroke-linejoin="round"/>
<path d="M278.123 1213.6V1013.52" stroke="#F5F1EE" stroke-width="2.11606" stroke-linecap="round" stroke-linejoin="round"/>
<path d="M278.131 1013.52L193.56 1048.76" stroke="#F5F1EE" stroke-width="2.11606" stroke-linecap="round" stroke-linejoin="round"/>
<path d="M278.123 1013.52V813.345" stroke="#F5F1EE" stroke-width="2.11606" stroke-linecap="round" stroke-linejoin="round"/>
<path d="M278.131 813.345L193.56 840.748" stroke="#F5F1EE" stroke-width="2.11606" stroke-linecap="round" stroke-linejoin="round"/>
<path d="M278.123 813.343V613.27" stroke="#F5F1EE" stroke-width="2.11606" stroke-linecap="round" stroke-linejoin="round"/>
<path d="M278.131 613.27L193.56 632.843" stroke="#F5F1EE" stroke-width="2.11606" stroke-linecap="round" stroke-linejoin="round"/>
<path d="M278.123 613.274V413.2" stroke="#F5F1EE" stroke-width="2.11606" stroke-linecap="round" stroke-linejoin="round"/>
<path d="M278.131 413.2L193.56 424.944" stroke="#F5F1EE" stroke-width="2.11606" stroke-linecap="round" stroke-linejoin="round"/>
<path d="M278.123 413.196V213.017" stroke="#F5F1EE" stroke-width="2.11606" stroke-linecap="round" stroke-linejoin="round"/>
<path d="M278.131 213.017L193.56 216.931" stroke="#F5F1EE" stroke-width="2.11606" stroke-linecap="round" stroke-linejoin="round"/>
<path d="M278.123 213.02V12.9468" stroke="#F5F1EE" stroke-width="2.11606" stroke-linecap="round" stroke-linejoin="round"/>
<path d="M278.131 12.9454L193.56 9.03076" stroke="#F5F1EE" stroke-width="2.11606" stroke-linecap="round" stroke-linejoin="round"/>
<path d="M278.123 12.9449V-187.128" stroke="#F5F1EE" stroke-width="2.11606" stroke-linecap="round" stroke-linejoin="round"/>
<path d="M356.607 1173.71L278.123 1213.6" stroke="#F5F1EE" stroke-width="2.11606" stroke-linecap="round" stroke-linejoin="round"/>
<path d="M356.615 1173.71V980.832" stroke="#F5F1EE" stroke-width="2.11606" stroke-linecap="round" stroke-linejoin="round"/>
<path d="M356.607 980.832L278.123 1013.53" stroke="#F5F1EE" stroke-width="2.11606" stroke-linecap="round" stroke-linejoin="round"/>
<path d="M356.615 980.832V787.953" stroke="#F5F1EE" stroke-width="2.11606" stroke-linecap="round" stroke-linejoin="round"/>
<path d="M356.607 787.953L278.123 813.346" stroke="#F5F1EE" stroke-width="2.11606" stroke-linecap="round" stroke-linejoin="round"/>
<path d="M356.615 787.953V595.074" stroke="#F5F1EE" stroke-width="2.11606" stroke-linecap="round" stroke-linejoin="round"/>
<path d="M356.607 595.074L278.123 613.272" stroke="#F5F1EE" stroke-width="2.11606" stroke-linecap="round" stroke-linejoin="round"/>
<path d="M356.615 595.073V402.3" stroke="#F5F1EE" stroke-width="2.11606" stroke-linecap="round" stroke-linejoin="round"/>
<path d="M356.607 402.3L278.123 413.197" stroke="#F5F1EE" stroke-width="2.11606" stroke-linecap="round" stroke-linejoin="round"/>
<path d="M356.615 402.3V209.421" stroke="#F5F1EE" stroke-width="2.11606" stroke-linecap="round" stroke-linejoin="round"/>
<path d="M356.607 209.421L278.123 213.018" stroke="#F5F1EE" stroke-width="2.11606" stroke-linecap="round" stroke-linejoin="round"/>
<path d="M356.615 209.421V16.5425" stroke="#F5F1EE" stroke-width="2.11606" stroke-linecap="round" stroke-linejoin="round"/>
<path d="M356.607 16.544L278.123 12.9468" stroke="#F5F1EE" stroke-width="2.11606" stroke-linecap="round" stroke-linejoin="round"/>
<path d="M356.615 16.5454V-176.228" stroke="#F5F1EE" stroke-width="2.11606" stroke-linecap="round" stroke-linejoin="round"/>
<path d="M429.555 1136.57L356.615 1173.71" stroke="#F5F1EE" stroke-width="2.11606" stroke-linecap="round" stroke-linejoin="round"/>
<path d="M429.554 1136.57V950.465" stroke="#F5F1EE" stroke-width="2.11606" stroke-linecap="round" stroke-linejoin="round"/>
<path d="M429.555 950.465L356.615 980.83" stroke="#F5F1EE" stroke-width="2.11606" stroke-linecap="round" stroke-linejoin="round"/>
<path d="M429.554 950.467V764.359" stroke="#F5F1EE" stroke-width="2.11606" stroke-linecap="round" stroke-linejoin="round"/>
<path d="M429.555 764.359L356.615 787.953" stroke="#F5F1EE" stroke-width="2.11606" stroke-linecap="round" stroke-linejoin="round"/>
<path d="M429.554 764.356V578.248" stroke="#F5F1EE" stroke-width="2.11606" stroke-linecap="round" stroke-linejoin="round"/>
<path d="M429.555 578.248L356.615 595.071" stroke="#F5F1EE" stroke-width="2.11606" stroke-linecap="round" stroke-linejoin="round"/>
<path d="M429.554 578.25V392.143" stroke="#F5F1EE" stroke-width="2.11606" stroke-linecap="round" stroke-linejoin="round"/>
<path d="M429.555 392.143L356.615 402.3" stroke="#F5F1EE" stroke-width="2.11606" stroke-linecap="round" stroke-linejoin="round"/>
<path d="M429.554 392.144V206.037" stroke="#F5F1EE" stroke-width="2.11606" stroke-linecap="round" stroke-linejoin="round"/>
<path d="M429.555 206.037L356.615 209.423" stroke="#F5F1EE" stroke-width="2.11606" stroke-linecap="round" stroke-linejoin="round"/>
<path d="M429.554 206.034V19.9263" stroke="#F5F1EE" stroke-width="2.11606" stroke-linecap="round" stroke-linejoin="round"/>
<path d="M429.555 19.9283L356.615 16.5425" stroke="#F5F1EE" stroke-width="2.11606" stroke-linecap="round" stroke-linejoin="round"/>
<path d="M429.554 19.9276V-166.18" stroke="#F5F1EE" stroke-width="2.11606" stroke-linecap="round" stroke-linejoin="round"/>
<path d="M497.494 1101.87L429.554 1136.57" stroke="#F5F1EE" stroke-width="2.11606" stroke-linecap="round" stroke-linejoin="round"/>
<path d="M497.494 1101.87V922.107" stroke="#F5F1EE" stroke-width="2.11606" stroke-linecap="round" stroke-linejoin="round"/>
<path d="M497.494 922.107L429.554 950.463" stroke="#F5F1EE" stroke-width="2.11606" stroke-linecap="round" stroke-linejoin="round"/>
<path d="M497.494 922.108V742.243" stroke="#F5F1EE" stroke-width="2.11606" stroke-linecap="round" stroke-linejoin="round"/>
<path d="M497.494 742.243L429.554 764.356" stroke="#F5F1EE" stroke-width="2.11606" stroke-linecap="round" stroke-linejoin="round"/>
<path d="M497.494 742.245V562.486" stroke="#F5F1EE" stroke-width="2.11606" stroke-linecap="round" stroke-linejoin="round"/>
<path d="M497.494 562.486L429.554 578.251" stroke="#F5F1EE" stroke-width="2.11606" stroke-linecap="round" stroke-linejoin="round"/>
<path d="M497.494 562.484V382.725" stroke="#F5F1EE" stroke-width="2.11606" stroke-linecap="round" stroke-linejoin="round"/>
<path d="M497.494 382.725L429.554 392.141" stroke="#F5F1EE" stroke-width="2.11606" stroke-linecap="round" stroke-linejoin="round"/>
<path d="M497.494 382.724V202.859" stroke="#F5F1EE" stroke-width="2.11606" stroke-linecap="round" stroke-linejoin="round"/>
<path d="M497.494 202.859L429.554 206.033" stroke="#F5F1EE" stroke-width="2.11606" stroke-linecap="round" stroke-linejoin="round"/>
<path d="M497.494 202.863V23.1035" stroke="#F5F1EE" stroke-width="2.11606" stroke-linecap="round" stroke-linejoin="round"/>
<path d="M497.494 23.1002L429.554 19.9263" stroke="#F5F1EE" stroke-width="2.11606" stroke-linecap="round" stroke-linejoin="round"/>
<path d="M497.494 23.1009V-156.658" stroke="#F5F1EE" stroke-width="2.11606" stroke-linecap="round" stroke-linejoin="round"/>
<path d="M561.085 1069.49L497.494 1101.87" stroke="#F5F1EE" stroke-width="2.11606" stroke-linecap="round" stroke-linejoin="round"/>
<path d="M561.081 1069.49V895.657" stroke="#F5F1EE" stroke-width="2.11606" stroke-linecap="round" stroke-linejoin="round"/>
<path d="M561.085 895.657L497.494 922.108" stroke="#F5F1EE" stroke-width="2.11606" stroke-linecap="round" stroke-linejoin="round"/>
<path d="M561.081 895.657V721.718" stroke="#F5F1EE" stroke-width="2.11606" stroke-linecap="round" stroke-linejoin="round"/>
<path d="M561.085 721.718L497.494 742.243" stroke="#F5F1EE" stroke-width="2.11606" stroke-linecap="round" stroke-linejoin="round"/>
<path d="M561.081 721.718V547.778" stroke="#F5F1EE" stroke-width="2.11606" stroke-linecap="round" stroke-linejoin="round"/>
<path d="M561.085 547.778L497.494 562.485" stroke="#F5F1EE" stroke-width="2.11606" stroke-linecap="round" stroke-linejoin="round"/>
<path d="M561.081 547.779V373.839" stroke="#F5F1EE" stroke-width="2.11606" stroke-linecap="round" stroke-linejoin="round"/>
<path d="M561.085 373.839L497.494 382.726" stroke="#F5F1EE" stroke-width="2.11606" stroke-linecap="round" stroke-linejoin="round"/>
<path d="M561.081 373.837V200.003" stroke="#F5F1EE" stroke-width="2.11606" stroke-linecap="round" stroke-linejoin="round"/>
<path d="M561.085 200.003L497.494 202.86" stroke="#F5F1EE" stroke-width="2.11606" stroke-linecap="round" stroke-linejoin="round"/>
<path d="M561.081 200.003V26.0635" stroke="#F5F1EE" stroke-width="2.11606" stroke-linecap="round" stroke-linejoin="round"/>
<path d="M561.085 26.0663L497.494 23.1035" stroke="#F5F1EE" stroke-width="2.11606" stroke-linecap="round" stroke-linejoin="round"/>
<path d="M561.081 26.0641V-147.876" stroke="#F5F1EE" stroke-width="2.11606" stroke-linecap="round" stroke-linejoin="round"/>
<path d="M620.542 1039.24L561.081 1069.5" stroke="#F5F1EE" stroke-width="2.11606" stroke-linecap="round" stroke-linejoin="round"/>
<path d="M620.538 1039.24V870.798" stroke="#F5F1EE" stroke-width="2.11606" stroke-linecap="round" stroke-linejoin="round"/>
<path d="M620.542 870.798L561.081 895.661" stroke="#F5F1EE" stroke-width="2.11606" stroke-linecap="round" stroke-linejoin="round"/>
<path d="M620.538 870.794V702.355" stroke="#F5F1EE" stroke-width="2.11606" stroke-linecap="round" stroke-linejoin="round"/>
<path d="M620.542 702.355L561.081 721.718" stroke="#F5F1EE" stroke-width="2.11606" stroke-linecap="round" stroke-linejoin="round"/>
<path d="M620.538 702.359V534.026" stroke="#F5F1EE" stroke-width="2.11606" stroke-linecap="round" stroke-linejoin="round"/>
<path d="M620.542 534.026L561.081 547.781" stroke="#F5F1EE" stroke-width="2.11606" stroke-linecap="round" stroke-linejoin="round"/>
<path d="M620.538 534.027V365.589" stroke="#F5F1EE" stroke-width="2.11606" stroke-linecap="round" stroke-linejoin="round"/>
<path d="M620.542 365.589L561.081 373.841" stroke="#F5F1EE" stroke-width="2.11606" stroke-linecap="round" stroke-linejoin="round"/>
<path d="M620.538 365.587V197.255" stroke="#F5F1EE" stroke-width="2.11606" stroke-linecap="round" stroke-linejoin="round"/>
<path d="M620.542 197.255L561.081 200.006" stroke="#F5F1EE" stroke-width="2.11606" stroke-linecap="round" stroke-linejoin="round"/>
<path d="M620.538 197.255V28.8169" stroke="#F5F1EE" stroke-width="2.11606" stroke-linecap="round" stroke-linejoin="round"/>
<path d="M620.542 28.8141L561.081 26.0635" stroke="#F5F1EE" stroke-width="2.11606" stroke-linecap="round" stroke-linejoin="round"/>
<path d="M620.538 28.818V-139.62" stroke="#F5F1EE" stroke-width="2.11606" stroke-linecap="round" stroke-linejoin="round"/>
<path d="M676.412 1010.77L620.538 1039.24" stroke="#F5F1EE" stroke-width="2.11606" stroke-linecap="round" stroke-linejoin="round"/>
<path d="M676.419 1010.77V847.519" stroke="#F5F1EE" stroke-width="2.11606" stroke-linecap="round" stroke-linejoin="round"/>
<path d="M676.412 847.519L620.538 870.795" stroke="#F5F1EE" stroke-width="2.11606" stroke-linecap="round" stroke-linejoin="round"/>
<path d="M676.419 847.517V684.263" stroke="#F5F1EE" stroke-width="2.11606" stroke-linecap="round" stroke-linejoin="round"/>
<path d="M676.412 684.263L620.538 702.355" stroke="#F5F1EE" stroke-width="2.11606" stroke-linecap="round" stroke-linejoin="round"/>
<path d="M676.419 684.264V521.116" stroke="#F5F1EE" stroke-width="2.11606" stroke-linecap="round" stroke-linejoin="round"/>
<path d="M676.412 521.116L620.538 534.024" stroke="#F5F1EE" stroke-width="2.11606" stroke-linecap="round" stroke-linejoin="round"/>
<path d="M676.419 521.119V357.865" stroke="#F5F1EE" stroke-width="2.11606" stroke-linecap="round" stroke-linejoin="round"/>
<path d="M676.412 357.865L620.538 365.589" stroke="#F5F1EE" stroke-width="2.11606" stroke-linecap="round" stroke-linejoin="round"/>
<path d="M676.419 357.863V194.609" stroke="#F5F1EE" stroke-width="2.11606" stroke-linecap="round" stroke-linejoin="round"/>
<path d="M676.412 194.609L620.538 197.254" stroke="#F5F1EE" stroke-width="2.11606" stroke-linecap="round" stroke-linejoin="round"/>
<path d="M676.419 194.607V31.3535" stroke="#F5F1EE" stroke-width="2.11606" stroke-linecap="round" stroke-linejoin="round"/>
<path d="M676.412 31.3564L620.538 28.8169" stroke="#F5F1EE" stroke-width="2.11606" stroke-linecap="round" stroke-linejoin="round"/>
<path d="M676.419 31.3548V-131.793" stroke="#F5F1EE" stroke-width="2.11606" stroke-linecap="round" stroke-linejoin="round"/>
<path d="M1463 1353.79L1413.32 1303.21" stroke="#F5F1EE" stroke-width="2.11606" stroke-linecap="round" stroke-linejoin="round"/>
<path d="M1463 1128.21V1353.78" stroke="#F5F1EE" stroke-width="2.11606" stroke-linecap="round" stroke-linejoin="round"/>
<path d="M1413.32 1086.85V1303.21" stroke="#F5F1EE" stroke-width="2.11606" stroke-linecap="round" stroke-linejoin="round"/>
<path d="M1463 1128.22L1413.32 1086.85" stroke="#F5F1EE" stroke-width="2.11606" stroke-linecap="round" stroke-linejoin="round"/>
<path d="M1463 902.539V1128.22" stroke="#F5F1EE" stroke-width="2.11606" stroke-linecap="round" stroke-linejoin="round"/>
<path d="M1413.32 870.374V1086.85" stroke="#F5F1EE" stroke-width="2.11606" stroke-linecap="round" stroke-linejoin="round"/>
<path d="M1463 902.538L1413.32 870.374" stroke="#F5F1EE" stroke-width="2.11606" stroke-linecap="round" stroke-linejoin="round"/>
<path d="M1463 676.964V902.536" stroke="#F5F1EE" stroke-width="2.11606" stroke-linecap="round" stroke-linejoin="round"/>
<path d="M1413.32 654.005V870.372" stroke="#F5F1EE" stroke-width="2.11606" stroke-linecap="round" stroke-linejoin="round"/>
<path d="M1463 676.964L1413.32 654.005" stroke="#F5F1EE" stroke-width="2.11606" stroke-linecap="round" stroke-linejoin="round"/>
<path d="M1463 451.394V676.965" stroke="#F5F1EE" stroke-width="2.11606" stroke-linecap="round" stroke-linejoin="round"/>
<path d="M1413.32 437.642V654.008" stroke="#F5F1EE" stroke-width="2.11606" stroke-linecap="round" stroke-linejoin="round"/>
<path d="M1463 451.396L1413.32 437.642" stroke="#F5F1EE" stroke-width="2.11606" stroke-linecap="round" stroke-linejoin="round"/>
<path d="M1463 225.823V451.395" stroke="#F5F1EE" stroke-width="2.11606" stroke-linecap="round" stroke-linejoin="round"/>
<path d="M1413.32 221.164V437.637" stroke="#F5F1EE" stroke-width="2.11606" stroke-linecap="round" stroke-linejoin="round"/>
<path d="M1463 225.819L1413.32 221.164" stroke="#F5F1EE" stroke-width="2.11606" stroke-linecap="round" stroke-linejoin="round"/>
<path d="M1463 0.248535V225.82" stroke="#F5F1EE" stroke-width="2.11606" stroke-linecap="round" stroke-linejoin="round"/>
<path d="M1413.32 4.7998V221.167" stroke="#F5F1EE" stroke-width="2.11606" stroke-linecap="round" stroke-linejoin="round"/>
<path d="M1463 0.248535L1413.32 4.79798" stroke="#F5F1EE" stroke-width="2.11606" stroke-linecap="round" stroke-linejoin="round"/>
<path d="M1463 -225.43V0.247648" stroke="#F5F1EE" stroke-width="2.11606" stroke-linecap="round" stroke-linejoin="round"/>
<path d="M1413.32 -211.569V4.79778" stroke="#F5F1EE" stroke-width="2.11606" stroke-linecap="round" stroke-linejoin="round"/>
<path d="M1413.32 1303.22L1367.66 1256.66" stroke="#F5F1EE" stroke-width="2.11606" stroke-linecap="round" stroke-linejoin="round"/>
<path d="M1367.66 1048.76V1256.66" stroke="#F5F1EE" stroke-width="2.11606" stroke-linecap="round" stroke-linejoin="round"/>
<path d="M1413.32 1086.85L1367.66 1048.76" stroke="#F5F1EE" stroke-width="2.11606" stroke-linecap="round" stroke-linejoin="round"/>
<path d="M1367.66 840.746V1048.75" stroke="#F5F1EE" stroke-width="2.11606" stroke-linecap="round" stroke-linejoin="round"/>
<path d="M1413.32 870.371L1367.66 840.746" stroke="#F5F1EE" stroke-width="2.11606" stroke-linecap="round" stroke-linejoin="round"/>
<path d="M1367.66 632.845V840.748" stroke="#F5F1EE" stroke-width="2.11606" stroke-linecap="round" stroke-linejoin="round"/>
<path d="M1413.32 654.005L1367.66 632.845" stroke="#F5F1EE" stroke-width="2.11606" stroke-linecap="round" stroke-linejoin="round"/>
<path d="M1367.66 424.942V632.845" stroke="#F5F1EE" stroke-width="2.11606" stroke-linecap="round" stroke-linejoin="round"/>
<path d="M1413.32 437.639L1367.66 424.942" stroke="#F5F1EE" stroke-width="2.11606" stroke-linecap="round" stroke-linejoin="round"/>
<path d="M1367.66 216.933V424.941" stroke="#F5F1EE" stroke-width="2.11606" stroke-linecap="round" stroke-linejoin="round"/>
<path d="M1413.32 221.165L1367.66 216.933" stroke="#F5F1EE" stroke-width="2.11606" stroke-linecap="round" stroke-linejoin="round"/>
<path d="M1367.66 9.03076V216.933" stroke="#F5F1EE" stroke-width="2.11606" stroke-linecap="round" stroke-linejoin="round"/>
<path d="M1413.32 4.7998L1367.66 9.03186" stroke="#F5F1EE" stroke-width="2.11606" stroke-linecap="round" stroke-linejoin="round"/>
<path d="M1367.66 -198.871V9.03208" stroke="#F5F1EE" stroke-width="2.11606" stroke-linecap="round" stroke-linejoin="round"/>
<path d="M1367.67 1256.66L1325.38 1213.6" stroke="#F5F1EE" stroke-width="2.11606" stroke-linecap="round" stroke-linejoin="round"/>
<path d="M1325.38 1013.52V1213.6" stroke="#F5F1EE" stroke-width="2.11606" stroke-linecap="round" stroke-linejoin="round"/>
<path d="M1367.67 1048.76L1325.38 1013.52" stroke="#F5F1EE" stroke-width="2.11606" stroke-linecap="round" stroke-linejoin="round"/>
<path d="M1325.38 813.345V1013.52" stroke="#F5F1EE" stroke-width="2.11606" stroke-linecap="round" stroke-linejoin="round"/>
<path d="M1367.67 840.748L1325.38 813.345" stroke="#F5F1EE" stroke-width="2.11606" stroke-linecap="round" stroke-linejoin="round"/>
<path d="M1325.38 613.27V813.343" stroke="#F5F1EE" stroke-width="2.11606" stroke-linecap="round" stroke-linejoin="round"/>
<path d="M1367.67 632.843L1325.38 613.27" stroke="#F5F1EE" stroke-width="2.11606" stroke-linecap="round" stroke-linejoin="round"/>
<path d="M1325.38 413.2V613.274" stroke="#F5F1EE" stroke-width="2.11606" stroke-linecap="round" stroke-linejoin="round"/>
<path d="M1367.67 424.944L1325.38 413.2" stroke="#F5F1EE" stroke-width="2.11606" stroke-linecap="round" stroke-linejoin="round"/>
<path d="M1325.38 213.017V413.196" stroke="#F5F1EE" stroke-width="2.11606" stroke-linecap="round" stroke-linejoin="round"/>
<path d="M1367.67 216.931L1325.38 213.017" stroke="#F5F1EE" stroke-width="2.11606" stroke-linecap="round" stroke-linejoin="round"/>
<path d="M1325.38 12.9468V213.02" stroke="#F5F1EE" stroke-width="2.11606" stroke-linecap="round" stroke-linejoin="round"/>
<path d="M1367.67 9.03076L1325.38 12.9454" stroke="#F5F1EE" stroke-width="2.11606" stroke-linecap="round" stroke-linejoin="round"/>
<path d="M1325.38 -187.128V12.9454" stroke="#F5F1EE" stroke-width="2.11606" stroke-linecap="round" stroke-linejoin="round"/>
<path d="M1325.38 1213.6L1286.13 1173.71" stroke="#F5F1EE" stroke-width="2.11606" stroke-linecap="round" stroke-linejoin="round"/>
<path d="M1286.13 980.832V1173.71" stroke="#F5F1EE" stroke-width="2.11606" stroke-linecap="round" stroke-linejoin="round"/>
<path d="M1325.38 1013.53L1286.13 980.832" stroke="#F5F1EE" stroke-width="2.11606" stroke-linecap="round" stroke-linejoin="round"/>
<path d="M1286.13 787.953V980.832" stroke="#F5F1EE" stroke-width="2.11606" stroke-linecap="round" stroke-linejoin="round"/>
<path d="M1325.38 813.346L1286.13 787.953" stroke="#F5F1EE" stroke-width="2.11606" stroke-linecap="round" stroke-linejoin="round"/>
<path d="M1286.13 595.075V787.954" stroke="#F5F1EE" stroke-width="2.11606" stroke-linecap="round" stroke-linejoin="round"/>
<path d="M1325.38 613.273L1286.13 595.075" stroke="#F5F1EE" stroke-width="2.11606" stroke-linecap="round" stroke-linejoin="round"/>
<path d="M1286.13 402.3V595.073" stroke="#F5F1EE" stroke-width="2.11606" stroke-linecap="round" stroke-linejoin="round"/>
<path d="M1325.38 413.197L1286.13 402.3" stroke="#F5F1EE" stroke-width="2.11606" stroke-linecap="round" stroke-linejoin="round"/>
<path d="M1286.13 209.421V402.3" stroke="#F5F1EE" stroke-width="2.11606" stroke-linecap="round" stroke-linejoin="round"/>
<path d="M1325.38 213.018L1286.13 209.421" stroke="#F5F1EE" stroke-width="2.11606" stroke-linecap="round" stroke-linejoin="round"/>
<path d="M1286.13 16.5425V209.421" stroke="#F5F1EE" stroke-width="2.11606" stroke-linecap="round" stroke-linejoin="round"/>
<path d="M1325.38 12.9468L1286.13 16.544" stroke="#F5F1EE" stroke-width="2.11606" stroke-linecap="round" stroke-linejoin="round"/>
<path d="M1286.13 -176.228V16.5454" stroke="#F5F1EE" stroke-width="2.11606" stroke-linecap="round" stroke-linejoin="round"/>
<path d="M1286.14 1173.71L1249.72 1136.57" stroke="#F5F1EE" stroke-width="2.11606" stroke-linecap="round" stroke-linejoin="round"/>
<path d="M1249.72 950.465V1136.57" stroke="#F5F1EE" stroke-width="2.11606" stroke-linecap="round" stroke-linejoin="round"/>
<path d="M1286.14 980.83L1249.72 950.465" stroke="#F5F1EE" stroke-width="2.11606" stroke-linecap="round" stroke-linejoin="round"/>
<path d="M1249.72 764.359V950.467" stroke="#F5F1EE" stroke-width="2.11606" stroke-linecap="round" stroke-linejoin="round"/>
<path d="M1286.14 787.953L1249.72 764.359" stroke="#F5F1EE" stroke-width="2.11606" stroke-linecap="round" stroke-linejoin="round"/>
<path d="M1249.72 578.249V764.357" stroke="#F5F1EE" stroke-width="2.11606" stroke-linecap="round" stroke-linejoin="round"/>
<path d="M1286.14 595.072L1249.72 578.249" stroke="#F5F1EE" stroke-width="2.11606" stroke-linecap="round" stroke-linejoin="round"/>
<path d="M1249.72 392.143V578.25" stroke="#F5F1EE" stroke-width="2.11606" stroke-linecap="round" stroke-linejoin="round"/>
<path d="M1286.14 402.3L1249.72 392.143" stroke="#F5F1EE" stroke-width="2.11606" stroke-linecap="round" stroke-linejoin="round"/>
<path d="M1249.72 206.037V392.144" stroke="#F5F1EE" stroke-width="2.11606" stroke-linecap="round" stroke-linejoin="round"/>
<path d="M1286.14 209.423L1249.72 206.037" stroke="#F5F1EE" stroke-width="2.11606" stroke-linecap="round" stroke-linejoin="round"/>
<path d="M1249.72 19.9263V206.034" stroke="#F5F1EE" stroke-width="2.11606" stroke-linecap="round" stroke-linejoin="round"/>
<path d="M1286.14 16.5425L1249.72 19.9283" stroke="#F5F1EE" stroke-width="2.11606" stroke-linecap="round" stroke-linejoin="round"/>
<path d="M1249.72 -166.179V19.9281" stroke="#F5F1EE" stroke-width="2.11606" stroke-linecap="round" stroke-linejoin="round"/>
<path d="M1249.72 1136.57L1215.7 1101.87" stroke="#F5F1EE" stroke-width="2.11606" stroke-linecap="round" stroke-linejoin="round"/>
<path d="M1215.7 922.108V1101.87" stroke="#F5F1EE" stroke-width="2.11606" stroke-linecap="round" stroke-linejoin="round"/>
<path d="M1249.72 950.464L1215.7 922.108" stroke="#F5F1EE" stroke-width="2.11606" stroke-linecap="round" stroke-linejoin="round"/>
<path d="M1215.7 742.243V922.108" stroke="#F5F1EE" stroke-width="2.11606" stroke-linecap="round" stroke-linejoin="round"/>
<path d="M1249.72 764.356L1215.7 742.243" stroke="#F5F1EE" stroke-width="2.11606" stroke-linecap="round" stroke-linejoin="round"/>
<path d="M1215.7 562.486V742.245" stroke="#F5F1EE" stroke-width="2.11606" stroke-linecap="round" stroke-linejoin="round"/>
<path d="M1249.72 578.251L1215.7 562.486" stroke="#F5F1EE" stroke-width="2.11606" stroke-linecap="round" stroke-linejoin="round"/>
<path d="M1215.7 382.725V562.484" stroke="#F5F1EE" stroke-width="2.11606" stroke-linecap="round" stroke-linejoin="round"/>
<path d="M1249.72 392.141L1215.7 382.725" stroke="#F5F1EE" stroke-width="2.11606" stroke-linecap="round" stroke-linejoin="round"/>
<path d="M1215.7 202.86V382.725" stroke="#F5F1EE" stroke-width="2.11606" stroke-linecap="round" stroke-linejoin="round"/>
<path d="M1249.72 206.034L1215.7 202.86" stroke="#F5F1EE" stroke-width="2.11606" stroke-linecap="round" stroke-linejoin="round"/>
<path d="M1215.7 23.1035V202.863" stroke="#F5F1EE" stroke-width="2.11606" stroke-linecap="round" stroke-linejoin="round"/>
<path d="M1249.72 19.9263L1215.7 23.1002" stroke="#F5F1EE" stroke-width="2.11606" stroke-linecap="round" stroke-linejoin="round"/>
<path d="M1215.7 -156.658V23.1009" stroke="#F5F1EE" stroke-width="2.11606" stroke-linecap="round" stroke-linejoin="round"/>
<path d="M1215.69 1101.87L1183.95 1069.49" stroke="#F5F1EE" stroke-width="2.11606" stroke-linecap="round" stroke-linejoin="round"/>
<path d="M1183.95 895.657V1069.49" stroke="#F5F1EE" stroke-width="2.11606" stroke-linecap="round" stroke-linejoin="round"/>
<path d="M1215.69 922.108L1183.95 895.657" stroke="#F5F1EE" stroke-width="2.11606" stroke-linecap="round" stroke-linejoin="round"/>
<path d="M1183.95 721.718V895.657" stroke="#F5F1EE" stroke-width="2.11606" stroke-linecap="round" stroke-linejoin="round"/>
<path d="M1215.69 742.243L1183.95 721.718" stroke="#F5F1EE" stroke-width="2.11606" stroke-linecap="round" stroke-linejoin="round"/>
<path d="M1183.95 547.778V721.718" stroke="#F5F1EE" stroke-width="2.11606" stroke-linecap="round" stroke-linejoin="round"/>
<path d="M1215.69 562.485L1183.95 547.778" stroke="#F5F1EE" stroke-width="2.11606" stroke-linecap="round" stroke-linejoin="round"/>
<path d="M1183.95 373.839V547.779" stroke="#F5F1EE" stroke-width="2.11606" stroke-linecap="round" stroke-linejoin="round"/>
<path d="M1215.69 382.726L1183.95 373.839" stroke="#F5F1EE" stroke-width="2.11606" stroke-linecap="round" stroke-linejoin="round"/>
<path d="M1183.95 200.003V373.837" stroke="#F5F1EE" stroke-width="2.11606" stroke-linecap="round" stroke-linejoin="round"/>
<path d="M1215.69 202.86L1183.95 200.003" stroke="#F5F1EE" stroke-width="2.11606" stroke-linecap="round" stroke-linejoin="round"/>
<path d="M1183.95 26.064V200.004" stroke="#F5F1EE" stroke-width="2.11606" stroke-linecap="round" stroke-linejoin="round"/>
<path d="M1215.69 23.1035L1183.95 26.0663" stroke="#F5F1EE" stroke-width="2.11606" stroke-linecap="round" stroke-linejoin="round"/>
<path d="M1183.95 -147.875V26.0645" stroke="#F5F1EE" stroke-width="2.11606" stroke-linecap="round" stroke-linejoin="round"/>
<path d="M1183.96 1069.5L1154.17 1039.24" stroke="#F5F1EE" stroke-width="2.11606" stroke-linecap="round" stroke-linejoin="round"/>
<path d="M1154.17 870.798V1039.24" stroke="#F5F1EE" stroke-width="2.11606" stroke-linecap="round" stroke-linejoin="round"/>
<path d="M1183.96 895.661L1154.17 870.798" stroke="#F5F1EE" stroke-width="2.11606" stroke-linecap="round" stroke-linejoin="round"/>
<path d="M1154.17 702.355V870.794" stroke="#F5F1EE" stroke-width="2.11606" stroke-linecap="round" stroke-linejoin="round"/>
<path d="M1183.96 721.718L1154.17 702.355" stroke="#F5F1EE" stroke-width="2.11606" stroke-linecap="round" stroke-linejoin="round"/>
<path d="M1154.17 534.026V702.359" stroke="#F5F1EE" stroke-width="2.11606" stroke-linecap="round" stroke-linejoin="round"/>
<path d="M1183.96 547.781L1154.17 534.026" stroke="#F5F1EE" stroke-width="2.11606" stroke-linecap="round" stroke-linejoin="round"/>
<path d="M1154.17 365.589V534.027" stroke="#F5F1EE" stroke-width="2.11606" stroke-linecap="round" stroke-linejoin="round"/>
<path d="M1183.96 373.841L1154.17 365.589" stroke="#F5F1EE" stroke-width="2.11606" stroke-linecap="round" stroke-linejoin="round"/>
<path d="M1154.17 197.255V365.587" stroke="#F5F1EE" stroke-width="2.11606" stroke-linecap="round" stroke-linejoin="round"/>
<path d="M1183.96 200.006L1154.17 197.255" stroke="#F5F1EE" stroke-width="2.11606" stroke-linecap="round" stroke-linejoin="round"/>
<path d="M1154.17 28.8169V197.255" stroke="#F5F1EE" stroke-width="2.11606" stroke-linecap="round" stroke-linejoin="round"/>
<path d="M1183.96 26.0635L1154.17 28.8141" stroke="#F5F1EE" stroke-width="2.11606" stroke-linecap="round" stroke-linejoin="round"/>
<path d="M1154.17 -139.62V28.818" stroke="#F5F1EE" stroke-width="2.11606" stroke-linecap="round" stroke-linejoin="round"/>
<path d="M1154.17 1039.24L1126.23 1010.77" stroke="#F5F1EE" stroke-width="2.11606" stroke-linecap="round" stroke-linejoin="round"/>
<path d="M1126.23 847.519V1010.77" stroke="#F5F1EE" stroke-width="2.11606" stroke-linecap="round" stroke-linejoin="round"/>
<path d="M1154.17 870.795L1126.23 847.519" stroke="#F5F1EE" stroke-width="2.11606" stroke-linecap="round" stroke-linejoin="round"/>
<path d="M1126.23 684.263V847.517" stroke="#F5F1EE" stroke-width="2.11606" stroke-linecap="round" stroke-linejoin="round"/>
<path d="M1154.17 702.355L1126.23 684.263" stroke="#F5F1EE" stroke-width="2.11606" stroke-linecap="round" stroke-linejoin="round"/>
<path d="M1126.23 521.116V684.264" stroke="#F5F1EE" stroke-width="2.11606" stroke-linecap="round" stroke-linejoin="round"/>
<path d="M1154.17 534.024L1126.23 521.116" stroke="#F5F1EE" stroke-width="2.11606" stroke-linecap="round" stroke-linejoin="round"/>
<path d="M1126.23 357.865V521.119" stroke="#F5F1EE" stroke-width="2.11606" stroke-linecap="round" stroke-linejoin="round"/>
<path d="M1154.17 365.589L1126.23 357.865" stroke="#F5F1EE" stroke-width="2.11606" stroke-linecap="round" stroke-linejoin="round"/>
<path d="M1126.23 194.609V357.863" stroke="#F5F1EE" stroke-width="2.11606" stroke-linecap="round" stroke-linejoin="round"/>
<path d="M1154.17 197.254L1126.23 194.609" stroke="#F5F1EE" stroke-width="2.11606" stroke-linecap="round" stroke-linejoin="round"/>
<path d="M1126.23 31.3535V194.607" stroke="#F5F1EE" stroke-width="2.11606" stroke-linecap="round" stroke-linejoin="round"/>
<path d="M1154.17 28.8169L1126.23 31.3564" stroke="#F5F1EE" stroke-width="2.11606" stroke-linecap="round" stroke-linejoin="round"/>
<path d="M1126.23 -131.793V31.3548" stroke="#F5F1EE" stroke-width="2.11606" stroke-linecap="round" stroke-linejoin="round"/>
<path d="M1126.23 1010.77H676.419" stroke="#F5F1EE" stroke-width="2.11606" stroke-linecap="round" stroke-linejoin="round"/>
<path d="M1126.23 847.524H676.419" stroke="#F5F1EE" stroke-width="2.11606" stroke-linecap="round" stroke-linejoin="round"/>
<path d="M1126.23 684.269H676.419" stroke="#F5F1EE" stroke-width="2.11606" stroke-linecap="round" stroke-linejoin="round"/>
<path d="M1126.23 521.121H676.419" stroke="#F5F1EE" stroke-width="2.11606" stroke-linecap="round" stroke-linejoin="round"/>
<path d="M1126.23 357.865H676.419" stroke="#F5F1EE" stroke-width="2.11606" stroke-linecap="round" stroke-linejoin="round"/>
<path d="M1126.23 194.609H676.419" stroke="#F5F1EE" stroke-width="2.11606" stroke-linecap="round" stroke-linejoin="round"/>
<path d="M1126.23 31.3589H676.419" stroke="#F5F1EE" stroke-width="2.11606" stroke-linecap="round" stroke-linejoin="round"/>
<path d="M676.419 1010.78V-295.044" stroke="#F5F1EE" stroke-width="2.11606" stroke-linecap="round" stroke-linejoin="round"/>
<path d="M751.428 1010.78V-295.044" stroke="#F5F1EE" stroke-width="2.11606" stroke-linecap="round" stroke-linejoin="round"/>
<path d="M826.321 1010.78V-295.044" stroke="#F5F1EE" stroke-width="2.11606" stroke-linecap="round" stroke-linejoin="round"/>
<path d="M901.331 1010.78V-295.044" stroke="#F5F1EE" stroke-width="2.11606" stroke-linecap="round" stroke-linejoin="round"/>
<path d="M976.329 1010.78V-295.044" stroke="#F5F1EE" stroke-width="2.11606" stroke-linecap="round" stroke-linejoin="round"/>
<path d="M1051.22 1010.78V-295.044" stroke="#F5F1EE" stroke-width="2.11606" stroke-linecap="round" stroke-linejoin="round"/>
<path d="M1126.23 1010.78V-295.044" stroke="#F5F1EE" stroke-width="2.11606" stroke-linecap="round" stroke-linejoin="round"/>
<path d="M676.417 1010.77L3 1353.79V-451L676.417 -295.046H1126.23L1462.99 -451V1353.79L1126.23 1010.77H676.417Z" stroke="#F5F1EE" stroke-opacity="0.32" stroke-width="5.29015" stroke-linecap="round" stroke-linejoin="round"/>
<path d="M1126.23 -295.044V1010.78" stroke="#F5F1EE" stroke-opacity="0.32" stroke-width="5.29015" stroke-linecap="round" stroke-linejoin="round"/>
<path d="M676.419 -295.044V1010.78" stroke="#F5F1EE" stroke-opacity="0.32" stroke-width="5.29015" stroke-linecap="round" stroke-linejoin="round"/>
</g>
</svg>
