<svg width="1440" height="1357" viewBox="0 0 1440 1357" fill="none" xmlns="http://www.w3.org/2000/svg">
<g opacity="0.09">
<path d="M79.1374 1303.21L-20 1353.78" stroke="#F5F1EE" stroke-width="2.11606" stroke-linecap="round" stroke-linejoin="round"/>
<path d="M79.1383 1303.21V1086.85" stroke="#F5F1EE" stroke-width="2.11606" stroke-linecap="round" stroke-linejoin="round"/>
<path d="M79.1374 1086.85L-20 1128.22" stroke="#F5F1EE" stroke-width="2.11606" stroke-linecap="round" stroke-linejoin="round"/>
<path d="M79.1383 1086.85V870.374" stroke="#F5F1EE" stroke-width="2.11606" stroke-linecap="round" stroke-linejoin="round"/>
<path d="M79.1374 870.374L-20 902.538" stroke="#F5F1EE" stroke-width="2.11606" stroke-linecap="round" stroke-linejoin="round"/>
<path d="M79.1383 870.372V654.005" stroke="#F5F1EE" stroke-width="2.11606" stroke-linecap="round" stroke-linejoin="round"/>
<path d="M79.1374 654.005L-20 676.964" stroke="#F5F1EE" stroke-width="2.11606" stroke-linecap="round" stroke-linejoin="round"/>
<path d="M79.1383 654.007V437.641" stroke="#F5F1EE" stroke-width="2.11606" stroke-linecap="round" stroke-linejoin="round"/>
<path d="M79.1374 437.641L-20 451.395" stroke="#F5F1EE" stroke-width="2.11606" stroke-linecap="round" stroke-linejoin="round"/>
<path d="M79.1383 437.636V221.163" stroke="#F5F1EE" stroke-width="2.11606" stroke-linecap="round" stroke-linejoin="round"/>
<path d="M79.1374 221.163L-20 225.818" stroke="#F5F1EE" stroke-width="2.11606" stroke-linecap="round" stroke-linejoin="round"/>
<path d="M79.1383 221.167V4.7998" stroke="#F5F1EE" stroke-width="2.11606" stroke-linecap="round" stroke-linejoin="round"/>
<path d="M79.1374 4.7975L-20 0.248047" stroke="#F5F1EE" stroke-width="2.11606" stroke-linecap="round" stroke-linejoin="round"/>
<path d="M79.1383 4.79778V-211.569" stroke="#F5F1EE" stroke-width="2.11606" stroke-linecap="round" stroke-linejoin="round"/>
<path d="M170.558 1256.66L79.1383 1303.22" stroke="#F5F1EE" stroke-width="2.11606" stroke-linecap="round" stroke-linejoin="round"/>
<path d="M170.56 1256.66V1048.76" stroke="#F5F1EE" stroke-width="2.11606" stroke-linecap="round" stroke-linejoin="round"/>
<path d="M170.558 1048.76L79.1383 1086.84" stroke="#F5F1EE" stroke-width="2.11606" stroke-linecap="round" stroke-linejoin="round"/>
<path d="M170.56 1048.75V840.746" stroke="#F5F1EE" stroke-width="2.11606" stroke-linecap="round" stroke-linejoin="round"/>
<path d="M170.558 840.746L79.1383 870.371" stroke="#F5F1EE" stroke-width="2.11606" stroke-linecap="round" stroke-linejoin="round"/>
<path d="M170.56 840.748V632.845" stroke="#F5F1EE" stroke-width="2.11606" stroke-linecap="round" stroke-linejoin="round"/>
<path d="M170.558 632.845L79.1383 654.005" stroke="#F5F1EE" stroke-width="2.11606" stroke-linecap="round" stroke-linejoin="round"/>
<path d="M170.56 632.845V424.942" stroke="#F5F1EE" stroke-width="2.11606" stroke-linecap="round" stroke-linejoin="round"/>
<path d="M170.558 424.942L79.1383 437.639" stroke="#F5F1EE" stroke-width="2.11606" stroke-linecap="round" stroke-linejoin="round"/>
<path d="M170.56 424.941V216.933" stroke="#F5F1EE" stroke-width="2.11606" stroke-linecap="round" stroke-linejoin="round"/>
<path d="M170.558 216.933L79.1383 221.165" stroke="#F5F1EE" stroke-width="2.11606" stroke-linecap="round" stroke-linejoin="round"/>
<path d="M170.56 216.933V9.03076" stroke="#F5F1EE" stroke-width="2.11606" stroke-linecap="round" stroke-linejoin="round"/>
<path d="M170.558 9.03186L79.1383 4.7998" stroke="#F5F1EE" stroke-width="2.11606" stroke-linecap="round" stroke-linejoin="round"/>
<path d="M170.56 9.03159V-198.871" stroke="#F5F1EE" stroke-width="2.11606" stroke-linecap="round" stroke-linejoin="round"/>
<path d="M255.131 1213.6L170.56 1256.66" stroke="#F5F1EE" stroke-width="2.11606" stroke-linecap="round" stroke-linejoin="round"/>
<path d="M255.123 1213.6V1013.52" stroke="#F5F1EE" stroke-width="2.11606" stroke-linecap="round" stroke-linejoin="round"/>
<path d="M255.131 1013.52L170.56 1048.76" stroke="#F5F1EE" stroke-width="2.11606" stroke-linecap="round" stroke-linejoin="round"/>
<path d="M255.123 1013.52V813.345" stroke="#F5F1EE" stroke-width="2.11606" stroke-linecap="round" stroke-linejoin="round"/>
<path d="M255.131 813.345L170.56 840.748" stroke="#F5F1EE" stroke-width="2.11606" stroke-linecap="round" stroke-linejoin="round"/>
<path d="M255.123 813.343V613.27" stroke="#F5F1EE" stroke-width="2.11606" stroke-linecap="round" stroke-linejoin="round"/>
<path d="M255.131 613.27L170.56 632.843" stroke="#F5F1EE" stroke-width="2.11606" stroke-linecap="round" stroke-linejoin="round"/>
<path d="M255.123 613.274V413.2" stroke="#F5F1EE" stroke-width="2.11606" stroke-linecap="round" stroke-linejoin="round"/>
<path d="M255.131 413.2L170.56 424.944" stroke="#F5F1EE" stroke-width="2.11606" stroke-linecap="round" stroke-linejoin="round"/>
<path d="M255.123 413.196V213.017" stroke="#F5F1EE" stroke-width="2.11606" stroke-linecap="round" stroke-linejoin="round"/>
<path d="M255.131 213.017L170.56 216.931" stroke="#F5F1EE" stroke-width="2.11606" stroke-linecap="round" stroke-linejoin="round"/>
<path d="M255.123 213.02V12.9468" stroke="#F5F1EE" stroke-width="2.11606" stroke-linecap="round" stroke-linejoin="round"/>
<path d="M255.131 12.9454L170.56 9.03076" stroke="#F5F1EE" stroke-width="2.11606" stroke-linecap="round" stroke-linejoin="round"/>
<path d="M255.123 12.9449V-187.128" stroke="#F5F1EE" stroke-width="2.11606" stroke-linecap="round" stroke-linejoin="round"/>
<path d="M333.607 1173.71L255.123 1213.6" stroke="#F5F1EE" stroke-width="2.11606" stroke-linecap="round" stroke-linejoin="round"/>
<path d="M333.615 1173.71V980.832" stroke="#F5F1EE" stroke-width="2.11606" stroke-linecap="round" stroke-linejoin="round"/>
<path d="M333.607 980.832L255.123 1013.53" stroke="#F5F1EE" stroke-width="2.11606" stroke-linecap="round" stroke-linejoin="round"/>
<path d="M333.615 980.832V787.953" stroke="#F5F1EE" stroke-width="2.11606" stroke-linecap="round" stroke-linejoin="round"/>
<path d="M333.607 787.953L255.123 813.346" stroke="#F5F1EE" stroke-width="2.11606" stroke-linecap="round" stroke-linejoin="round"/>
<path d="M333.615 787.953V595.074" stroke="#F5F1EE" stroke-width="2.11606" stroke-linecap="round" stroke-linejoin="round"/>
<path d="M333.607 595.074L255.123 613.272" stroke="#F5F1EE" stroke-width="2.11606" stroke-linecap="round" stroke-linejoin="round"/>
<path d="M333.615 595.073V402.3" stroke="#F5F1EE" stroke-width="2.11606" stroke-linecap="round" stroke-linejoin="round"/>
<path d="M333.607 402.3L255.123 413.197" stroke="#F5F1EE" stroke-width="2.11606" stroke-linecap="round" stroke-linejoin="round"/>
<path d="M333.615 402.3V209.421" stroke="#F5F1EE" stroke-width="2.11606" stroke-linecap="round" stroke-linejoin="round"/>
<path d="M333.607 209.421L255.123 213.018" stroke="#F5F1EE" stroke-width="2.11606" stroke-linecap="round" stroke-linejoin="round"/>
<path d="M333.615 209.421V16.5425" stroke="#F5F1EE" stroke-width="2.11606" stroke-linecap="round" stroke-linejoin="round"/>
<path d="M333.607 16.544L255.123 12.9468" stroke="#F5F1EE" stroke-width="2.11606" stroke-linecap="round" stroke-linejoin="round"/>
<path d="M333.615 16.5454V-176.228" stroke="#F5F1EE" stroke-width="2.11606" stroke-linecap="round" stroke-linejoin="round"/>
<path d="M406.555 1136.57L333.615 1173.71" stroke="#F5F1EE" stroke-width="2.11606" stroke-linecap="round" stroke-linejoin="round"/>
<path d="M406.554 1136.57V950.465" stroke="#F5F1EE" stroke-width="2.11606" stroke-linecap="round" stroke-linejoin="round"/>
<path d="M406.555 950.465L333.615 980.83" stroke="#F5F1EE" stroke-width="2.11606" stroke-linecap="round" stroke-linejoin="round"/>
<path d="M406.554 950.467V764.359" stroke="#F5F1EE" stroke-width="2.11606" stroke-linecap="round" stroke-linejoin="round"/>
<path d="M406.555 764.359L333.615 787.953" stroke="#F5F1EE" stroke-width="2.11606" stroke-linecap="round" stroke-linejoin="round"/>
<path d="M406.554 764.356V578.248" stroke="#F5F1EE" stroke-width="2.11606" stroke-linecap="round" stroke-linejoin="round"/>
<path d="M406.555 578.248L333.615 595.071" stroke="#F5F1EE" stroke-width="2.11606" stroke-linecap="round" stroke-linejoin="round"/>
<path d="M406.554 578.25V392.143" stroke="#F5F1EE" stroke-width="2.11606" stroke-linecap="round" stroke-linejoin="round"/>
<path d="M406.555 392.143L333.615 402.3" stroke="#F5F1EE" stroke-width="2.11606" stroke-linecap="round" stroke-linejoin="round"/>
<path d="M406.554 392.144V206.037" stroke="#F5F1EE" stroke-width="2.11606" stroke-linecap="round" stroke-linejoin="round"/>
<path d="M406.555 206.037L333.615 209.423" stroke="#F5F1EE" stroke-width="2.11606" stroke-linecap="round" stroke-linejoin="round"/>
<path d="M406.554 206.034V19.9263" stroke="#F5F1EE" stroke-width="2.11606" stroke-linecap="round" stroke-linejoin="round"/>
<path d="M406.555 19.9283L333.615 16.5425" stroke="#F5F1EE" stroke-width="2.11606" stroke-linecap="round" stroke-linejoin="round"/>
<path d="M406.554 19.9276V-166.18" stroke="#F5F1EE" stroke-width="2.11606" stroke-linecap="round" stroke-linejoin="round"/>
<path d="M474.494 1101.87L406.554 1136.57" stroke="#F5F1EE" stroke-width="2.11606" stroke-linecap="round" stroke-linejoin="round"/>
<path d="M474.494 1101.87V922.107" stroke="#F5F1EE" stroke-width="2.11606" stroke-linecap="round" stroke-linejoin="round"/>
<path d="M474.494 922.107L406.554 950.463" stroke="#F5F1EE" stroke-width="2.11606" stroke-linecap="round" stroke-linejoin="round"/>
<path d="M474.494 922.108V742.243" stroke="#F5F1EE" stroke-width="2.11606" stroke-linecap="round" stroke-linejoin="round"/>
<path d="M474.494 742.243L406.554 764.356" stroke="#F5F1EE" stroke-width="2.11606" stroke-linecap="round" stroke-linejoin="round"/>
<path d="M474.494 742.245V562.486" stroke="#F5F1EE" stroke-width="2.11606" stroke-linecap="round" stroke-linejoin="round"/>
<path d="M474.494 562.486L406.554 578.251" stroke="#F5F1EE" stroke-width="2.11606" stroke-linecap="round" stroke-linejoin="round"/>
<path d="M474.494 562.484V382.725" stroke="#F5F1EE" stroke-width="2.11606" stroke-linecap="round" stroke-linejoin="round"/>
<path d="M474.494 382.725L406.554 392.141" stroke="#F5F1EE" stroke-width="2.11606" stroke-linecap="round" stroke-linejoin="round"/>
<path d="M474.494 382.724V202.859" stroke="#F5F1EE" stroke-width="2.11606" stroke-linecap="round" stroke-linejoin="round"/>
<path d="M474.494 202.859L406.554 206.033" stroke="#F5F1EE" stroke-width="2.11606" stroke-linecap="round" stroke-linejoin="round"/>
<path d="M474.494 202.863V23.1035" stroke="#F5F1EE" stroke-width="2.11606" stroke-linecap="round" stroke-linejoin="round"/>
<path d="M474.494 23.1002L406.554 19.9263" stroke="#F5F1EE" stroke-width="2.11606" stroke-linecap="round" stroke-linejoin="round"/>
<path d="M474.494 23.1009V-156.658" stroke="#F5F1EE" stroke-width="2.11606" stroke-linecap="round" stroke-linejoin="round"/>
<path d="M538.085 1069.49L474.494 1101.87" stroke="#F5F1EE" stroke-width="2.11606" stroke-linecap="round" stroke-linejoin="round"/>
<path d="M538.081 1069.49V895.657" stroke="#F5F1EE" stroke-width="2.11606" stroke-linecap="round" stroke-linejoin="round"/>
<path d="M538.085 895.657L474.494 922.108" stroke="#F5F1EE" stroke-width="2.11606" stroke-linecap="round" stroke-linejoin="round"/>
<path d="M538.081 895.657V721.718" stroke="#F5F1EE" stroke-width="2.11606" stroke-linecap="round" stroke-linejoin="round"/>
<path d="M538.085 721.718L474.494 742.243" stroke="#F5F1EE" stroke-width="2.11606" stroke-linecap="round" stroke-linejoin="round"/>
<path d="M538.081 721.718V547.778" stroke="#F5F1EE" stroke-width="2.11606" stroke-linecap="round" stroke-linejoin="round"/>
<path d="M538.085 547.778L474.494 562.485" stroke="#F5F1EE" stroke-width="2.11606" stroke-linecap="round" stroke-linejoin="round"/>
<path d="M538.081 547.779V373.839" stroke="#F5F1EE" stroke-width="2.11606" stroke-linecap="round" stroke-linejoin="round"/>
<path d="M538.085 373.839L474.494 382.726" stroke="#F5F1EE" stroke-width="2.11606" stroke-linecap="round" stroke-linejoin="round"/>
<path d="M538.081 373.837V200.003" stroke="#F5F1EE" stroke-width="2.11606" stroke-linecap="round" stroke-linejoin="round"/>
<path d="M538.085 200.003L474.494 202.86" stroke="#F5F1EE" stroke-width="2.11606" stroke-linecap="round" stroke-linejoin="round"/>
<path d="M538.081 200.003V26.0635" stroke="#F5F1EE" stroke-width="2.11606" stroke-linecap="round" stroke-linejoin="round"/>
<path d="M538.085 26.0663L474.494 23.1035" stroke="#F5F1EE" stroke-width="2.11606" stroke-linecap="round" stroke-linejoin="round"/>
<path d="M538.081 26.0641V-147.876" stroke="#F5F1EE" stroke-width="2.11606" stroke-linecap="round" stroke-linejoin="round"/>
<path d="M597.542 1039.24L538.081 1069.5" stroke="#F5F1EE" stroke-width="2.11606" stroke-linecap="round" stroke-linejoin="round"/>
<path d="M597.538 1039.24V870.798" stroke="#F5F1EE" stroke-width="2.11606" stroke-linecap="round" stroke-linejoin="round"/>
<path d="M597.542 870.798L538.081 895.661" stroke="#F5F1EE" stroke-width="2.11606" stroke-linecap="round" stroke-linejoin="round"/>
<path d="M597.538 870.794V702.355" stroke="#F5F1EE" stroke-width="2.11606" stroke-linecap="round" stroke-linejoin="round"/>
<path d="M597.542 702.355L538.081 721.718" stroke="#F5F1EE" stroke-width="2.11606" stroke-linecap="round" stroke-linejoin="round"/>
<path d="M597.538 702.359V534.026" stroke="#F5F1EE" stroke-width="2.11606" stroke-linecap="round" stroke-linejoin="round"/>
<path d="M597.542 534.026L538.081 547.781" stroke="#F5F1EE" stroke-width="2.11606" stroke-linecap="round" stroke-linejoin="round"/>
<path d="M597.538 534.027V365.589" stroke="#F5F1EE" stroke-width="2.11606" stroke-linecap="round" stroke-linejoin="round"/>
<path d="M597.542 365.589L538.081 373.841" stroke="#F5F1EE" stroke-width="2.11606" stroke-linecap="round" stroke-linejoin="round"/>
<path d="M597.538 365.587V197.255" stroke="#F5F1EE" stroke-width="2.11606" stroke-linecap="round" stroke-linejoin="round"/>
<path d="M597.542 197.255L538.081 200.006" stroke="#F5F1EE" stroke-width="2.11606" stroke-linecap="round" stroke-linejoin="round"/>
<path d="M597.538 197.255V28.8169" stroke="#F5F1EE" stroke-width="2.11606" stroke-linecap="round" stroke-linejoin="round"/>
<path d="M597.542 28.8141L538.081 26.0635" stroke="#F5F1EE" stroke-width="2.11606" stroke-linecap="round" stroke-linejoin="round"/>
<path d="M597.538 28.818V-139.62" stroke="#F5F1EE" stroke-width="2.11606" stroke-linecap="round" stroke-linejoin="round"/>
<path d="M653.412 1010.77L597.538 1039.24" stroke="#F5F1EE" stroke-width="2.11606" stroke-linecap="round" stroke-linejoin="round"/>
<path d="M653.419 1010.77V847.519" stroke="#F5F1EE" stroke-width="2.11606" stroke-linecap="round" stroke-linejoin="round"/>
<path d="M653.412 847.519L597.538 870.795" stroke="#F5F1EE" stroke-width="2.11606" stroke-linecap="round" stroke-linejoin="round"/>
<path d="M653.419 847.517V684.263" stroke="#F5F1EE" stroke-width="2.11606" stroke-linecap="round" stroke-linejoin="round"/>
<path d="M653.412 684.263L597.538 702.355" stroke="#F5F1EE" stroke-width="2.11606" stroke-linecap="round" stroke-linejoin="round"/>
<path d="M653.419 684.264V521.116" stroke="#F5F1EE" stroke-width="2.11606" stroke-linecap="round" stroke-linejoin="round"/>
<path d="M653.412 521.116L597.538 534.024" stroke="#F5F1EE" stroke-width="2.11606" stroke-linecap="round" stroke-linejoin="round"/>
<path d="M653.419 521.119V357.865" stroke="#F5F1EE" stroke-width="2.11606" stroke-linecap="round" stroke-linejoin="round"/>
<path d="M653.412 357.865L597.538 365.589" stroke="#F5F1EE" stroke-width="2.11606" stroke-linecap="round" stroke-linejoin="round"/>
<path d="M653.419 357.863V194.609" stroke="#F5F1EE" stroke-width="2.11606" stroke-linecap="round" stroke-linejoin="round"/>
<path d="M653.412 194.609L597.538 197.254" stroke="#F5F1EE" stroke-width="2.11606" stroke-linecap="round" stroke-linejoin="round"/>
<path d="M653.419 194.607V31.3535" stroke="#F5F1EE" stroke-width="2.11606" stroke-linecap="round" stroke-linejoin="round"/>
<path d="M653.412 31.3564L597.538 28.8169" stroke="#F5F1EE" stroke-width="2.11606" stroke-linecap="round" stroke-linejoin="round"/>
<path d="M653.419 31.3548V-131.793" stroke="#F5F1EE" stroke-width="2.11606" stroke-linecap="round" stroke-linejoin="round"/>
<path d="M1440 1353.79L1390.32 1303.21" stroke="#F5F1EE" stroke-width="2.11606" stroke-linecap="round" stroke-linejoin="round"/>
<path d="M1440 1128.21V1353.78" stroke="#F5F1EE" stroke-width="2.11606" stroke-linecap="round" stroke-linejoin="round"/>
<path d="M1390.32 1086.85V1303.21" stroke="#F5F1EE" stroke-width="2.11606" stroke-linecap="round" stroke-linejoin="round"/>
<path d="M1440 1128.22L1390.32 1086.85" stroke="#F5F1EE" stroke-width="2.11606" stroke-linecap="round" stroke-linejoin="round"/>
<path d="M1440 902.539V1128.22" stroke="#F5F1EE" stroke-width="2.11606" stroke-linecap="round" stroke-linejoin="round"/>
<path d="M1390.32 870.374V1086.85" stroke="#F5F1EE" stroke-width="2.11606" stroke-linecap="round" stroke-linejoin="round"/>
<path d="M1440 902.538L1390.32 870.374" stroke="#F5F1EE" stroke-width="2.11606" stroke-linecap="round" stroke-linejoin="round"/>
<path d="M1440 676.964V902.536" stroke="#F5F1EE" stroke-width="2.11606" stroke-linecap="round" stroke-linejoin="round"/>
<path d="M1390.32 654.005V870.372" stroke="#F5F1EE" stroke-width="2.11606" stroke-linecap="round" stroke-linejoin="round"/>
<path d="M1440 676.964L1390.32 654.005" stroke="#F5F1EE" stroke-width="2.11606" stroke-linecap="round" stroke-linejoin="round"/>
<path d="M1440 451.394V676.965" stroke="#F5F1EE" stroke-width="2.11606" stroke-linecap="round" stroke-linejoin="round"/>
<path d="M1390.32 437.642V654.008" stroke="#F5F1EE" stroke-width="2.11606" stroke-linecap="round" stroke-linejoin="round"/>
<path d="M1440 451.396L1390.32 437.642" stroke="#F5F1EE" stroke-width="2.11606" stroke-linecap="round" stroke-linejoin="round"/>
<path d="M1440 225.823V451.395" stroke="#F5F1EE" stroke-width="2.11606" stroke-linecap="round" stroke-linejoin="round"/>
<path d="M1390.32 221.164V437.637" stroke="#F5F1EE" stroke-width="2.11606" stroke-linecap="round" stroke-linejoin="round"/>
<path d="M1440 225.819L1390.32 221.164" stroke="#F5F1EE" stroke-width="2.11606" stroke-linecap="round" stroke-linejoin="round"/>
<path d="M1440 0.248535V225.82" stroke="#F5F1EE" stroke-width="2.11606" stroke-linecap="round" stroke-linejoin="round"/>
<path d="M1390.32 4.7998V221.167" stroke="#F5F1EE" stroke-width="2.11606" stroke-linecap="round" stroke-linejoin="round"/>
<path d="M1440 0.248535L1390.32 4.79798" stroke="#F5F1EE" stroke-width="2.11606" stroke-linecap="round" stroke-linejoin="round"/>
<path d="M1440 -225.43V0.247648" stroke="#F5F1EE" stroke-width="2.11606" stroke-linecap="round" stroke-linejoin="round"/>
<path d="M1390.32 -211.569V4.79778" stroke="#F5F1EE" stroke-width="2.11606" stroke-linecap="round" stroke-linejoin="round"/>
<path d="M1390.32 1303.22L1344.66 1256.66" stroke="#F5F1EE" stroke-width="2.11606" stroke-linecap="round" stroke-linejoin="round"/>
<path d="M1344.66 1048.76V1256.66" stroke="#F5F1EE" stroke-width="2.11606" stroke-linecap="round" stroke-linejoin="round"/>
<path d="M1390.32 1086.85L1344.66 1048.76" stroke="#F5F1EE" stroke-width="2.11606" stroke-linecap="round" stroke-linejoin="round"/>
<path d="M1344.66 840.746V1048.75" stroke="#F5F1EE" stroke-width="2.11606" stroke-linecap="round" stroke-linejoin="round"/>
<path d="M1390.32 870.371L1344.66 840.746" stroke="#F5F1EE" stroke-width="2.11606" stroke-linecap="round" stroke-linejoin="round"/>
<path d="M1344.66 632.845V840.748" stroke="#F5F1EE" stroke-width="2.11606" stroke-linecap="round" stroke-linejoin="round"/>
<path d="M1390.32 654.005L1344.66 632.845" stroke="#F5F1EE" stroke-width="2.11606" stroke-linecap="round" stroke-linejoin="round"/>
<path d="M1344.66 424.942V632.845" stroke="#F5F1EE" stroke-width="2.11606" stroke-linecap="round" stroke-linejoin="round"/>
<path d="M1390.32 437.639L1344.66 424.942" stroke="#F5F1EE" stroke-width="2.11606" stroke-linecap="round" stroke-linejoin="round"/>
<path d="M1344.66 216.933V424.941" stroke="#F5F1EE" stroke-width="2.11606" stroke-linecap="round" stroke-linejoin="round"/>
<path d="M1390.32 221.165L1344.66 216.933" stroke="#F5F1EE" stroke-width="2.11606" stroke-linecap="round" stroke-linejoin="round"/>
<path d="M1344.66 9.03076V216.933" stroke="#F5F1EE" stroke-width="2.11606" stroke-linecap="round" stroke-linejoin="round"/>
<path d="M1390.32 4.7998L1344.66 9.03186" stroke="#F5F1EE" stroke-width="2.11606" stroke-linecap="round" stroke-linejoin="round"/>
<path d="M1344.66 -198.871V9.03208" stroke="#F5F1EE" stroke-width="2.11606" stroke-linecap="round" stroke-linejoin="round"/>
<path d="M1344.67 1256.66L1302.38 1213.6" stroke="#F5F1EE" stroke-width="2.11606" stroke-linecap="round" stroke-linejoin="round"/>
<path d="M1302.38 1013.52V1213.6" stroke="#F5F1EE" stroke-width="2.11606" stroke-linecap="round" stroke-linejoin="round"/>
<path d="M1344.67 1048.76L1302.38 1013.52" stroke="#F5F1EE" stroke-width="2.11606" stroke-linecap="round" stroke-linejoin="round"/>
<path d="M1302.38 813.345V1013.52" stroke="#F5F1EE" stroke-width="2.11606" stroke-linecap="round" stroke-linejoin="round"/>
<path d="M1344.67 840.748L1302.38 813.345" stroke="#F5F1EE" stroke-width="2.11606" stroke-linecap="round" stroke-linejoin="round"/>
<path d="M1302.38 613.27V813.343" stroke="#F5F1EE" stroke-width="2.11606" stroke-linecap="round" stroke-linejoin="round"/>
<path d="M1344.67 632.843L1302.38 613.27" stroke="#F5F1EE" stroke-width="2.11606" stroke-linecap="round" stroke-linejoin="round"/>
<path d="M1302.38 413.2V613.274" stroke="#F5F1EE" stroke-width="2.11606" stroke-linecap="round" stroke-linejoin="round"/>
<path d="M1344.67 424.944L1302.38 413.2" stroke="#F5F1EE" stroke-width="2.11606" stroke-linecap="round" stroke-linejoin="round"/>
<path d="M1302.38 213.017V413.196" stroke="#F5F1EE" stroke-width="2.11606" stroke-linecap="round" stroke-linejoin="round"/>
<path d="M1344.67 216.931L1302.38 213.017" stroke="#F5F1EE" stroke-width="2.11606" stroke-linecap="round" stroke-linejoin="round"/>
<path d="M1302.38 12.9468V213.02" stroke="#F5F1EE" stroke-width="2.11606" stroke-linecap="round" stroke-linejoin="round"/>
<path d="M1344.67 9.03076L1302.38 12.9454" stroke="#F5F1EE" stroke-width="2.11606" stroke-linecap="round" stroke-linejoin="round"/>
<path d="M1302.38 -187.128V12.9454" stroke="#F5F1EE" stroke-width="2.11606" stroke-linecap="round" stroke-linejoin="round"/>
<path d="M1302.38 1213.6L1263.13 1173.71" stroke="#F5F1EE" stroke-width="2.11606" stroke-linecap="round" stroke-linejoin="round"/>
<path d="M1263.13 980.832V1173.71" stroke="#F5F1EE" stroke-width="2.11606" stroke-linecap="round" stroke-linejoin="round"/>
<path d="M1302.38 1013.53L1263.13 980.832" stroke="#F5F1EE" stroke-width="2.11606" stroke-linecap="round" stroke-linejoin="round"/>
<path d="M1263.13 787.953V980.832" stroke="#F5F1EE" stroke-width="2.11606" stroke-linecap="round" stroke-linejoin="round"/>
<path d="M1302.38 813.346L1263.13 787.953" stroke="#F5F1EE" stroke-width="2.11606" stroke-linecap="round" stroke-linejoin="round"/>
<path d="M1263.13 595.075V787.954" stroke="#F5F1EE" stroke-width="2.11606" stroke-linecap="round" stroke-linejoin="round"/>
<path d="M1302.38 613.273L1263.13 595.075" stroke="#F5F1EE" stroke-width="2.11606" stroke-linecap="round" stroke-linejoin="round"/>
<path d="M1263.13 402.3V595.073" stroke="#F5F1EE" stroke-width="2.11606" stroke-linecap="round" stroke-linejoin="round"/>
<path d="M1302.38 413.197L1263.13 402.3" stroke="#F5F1EE" stroke-width="2.11606" stroke-linecap="round" stroke-linejoin="round"/>
<path d="M1263.13 209.421V402.3" stroke="#F5F1EE" stroke-width="2.11606" stroke-linecap="round" stroke-linejoin="round"/>
<path d="M1302.38 213.018L1263.13 209.421" stroke="#F5F1EE" stroke-width="2.11606" stroke-linecap="round" stroke-linejoin="round"/>
<path d="M1263.13 16.5425V209.421" stroke="#F5F1EE" stroke-width="2.11606" stroke-linecap="round" stroke-linejoin="round"/>
<path d="M1302.38 12.9468L1263.13 16.544" stroke="#F5F1EE" stroke-width="2.11606" stroke-linecap="round" stroke-linejoin="round"/>
<path d="M1263.13 -176.228V16.5454" stroke="#F5F1EE" stroke-width="2.11606" stroke-linecap="round" stroke-linejoin="round"/>
<path d="M1263.14 1173.71L1226.72 1136.57" stroke="#F5F1EE" stroke-width="2.11606" stroke-linecap="round" stroke-linejoin="round"/>
<path d="M1226.72 950.465V1136.57" stroke="#F5F1EE" stroke-width="2.11606" stroke-linecap="round" stroke-linejoin="round"/>
<path d="M1263.14 980.83L1226.72 950.465" stroke="#F5F1EE" stroke-width="2.11606" stroke-linecap="round" stroke-linejoin="round"/>
<path d="M1226.72 764.359V950.467" stroke="#F5F1EE" stroke-width="2.11606" stroke-linecap="round" stroke-linejoin="round"/>
<path d="M1263.14 787.953L1226.72 764.359" stroke="#F5F1EE" stroke-width="2.11606" stroke-linecap="round" stroke-linejoin="round"/>
<path d="M1226.72 578.249V764.357" stroke="#F5F1EE" stroke-width="2.11606" stroke-linecap="round" stroke-linejoin="round"/>
<path d="M1263.14 595.072L1226.72 578.249" stroke="#F5F1EE" stroke-width="2.11606" stroke-linecap="round" stroke-linejoin="round"/>
<path d="M1226.72 392.143V578.25" stroke="#F5F1EE" stroke-width="2.11606" stroke-linecap="round" stroke-linejoin="round"/>
<path d="M1263.14 402.3L1226.72 392.143" stroke="#F5F1EE" stroke-width="2.11606" stroke-linecap="round" stroke-linejoin="round"/>
<path d="M1226.72 206.037V392.144" stroke="#F5F1EE" stroke-width="2.11606" stroke-linecap="round" stroke-linejoin="round"/>
<path d="M1263.14 209.423L1226.72 206.037" stroke="#F5F1EE" stroke-width="2.11606" stroke-linecap="round" stroke-linejoin="round"/>
<path d="M1226.72 19.9263V206.034" stroke="#F5F1EE" stroke-width="2.11606" stroke-linecap="round" stroke-linejoin="round"/>
<path d="M1263.14 16.5425L1226.72 19.9283" stroke="#F5F1EE" stroke-width="2.11606" stroke-linecap="round" stroke-linejoin="round"/>
<path d="M1226.72 -166.179V19.9281" stroke="#F5F1EE" stroke-width="2.11606" stroke-linecap="round" stroke-linejoin="round"/>
<path d="M1226.72 1136.57L1192.7 1101.87" stroke="#F5F1EE" stroke-width="2.11606" stroke-linecap="round" stroke-linejoin="round"/>
<path d="M1192.7 922.108V1101.87" stroke="#F5F1EE" stroke-width="2.11606" stroke-linecap="round" stroke-linejoin="round"/>
<path d="M1226.72 950.464L1192.7 922.108" stroke="#F5F1EE" stroke-width="2.11606" stroke-linecap="round" stroke-linejoin="round"/>
<path d="M1192.7 742.243V922.108" stroke="#F5F1EE" stroke-width="2.11606" stroke-linecap="round" stroke-linejoin="round"/>
<path d="M1226.72 764.356L1192.7 742.243" stroke="#F5F1EE" stroke-width="2.11606" stroke-linecap="round" stroke-linejoin="round"/>
<path d="M1192.7 562.486V742.245" stroke="#F5F1EE" stroke-width="2.11606" stroke-linecap="round" stroke-linejoin="round"/>
<path d="M1226.72 578.251L1192.7 562.486" stroke="#F5F1EE" stroke-width="2.11606" stroke-linecap="round" stroke-linejoin="round"/>
<path d="M1192.7 382.725V562.484" stroke="#F5F1EE" stroke-width="2.11606" stroke-linecap="round" stroke-linejoin="round"/>
<path d="M1226.72 392.141L1192.7 382.725" stroke="#F5F1EE" stroke-width="2.11606" stroke-linecap="round" stroke-linejoin="round"/>
<path d="M1192.7 202.86V382.725" stroke="#F5F1EE" stroke-width="2.11606" stroke-linecap="round" stroke-linejoin="round"/>
<path d="M1226.72 206.034L1192.7 202.86" stroke="#F5F1EE" stroke-width="2.11606" stroke-linecap="round" stroke-linejoin="round"/>
<path d="M1192.7 23.1035V202.863" stroke="#F5F1EE" stroke-width="2.11606" stroke-linecap="round" stroke-linejoin="round"/>
<path d="M1226.72 19.9263L1192.7 23.1002" stroke="#F5F1EE" stroke-width="2.11606" stroke-linecap="round" stroke-linejoin="round"/>
<path d="M1192.7 -156.658V23.1009" stroke="#F5F1EE" stroke-width="2.11606" stroke-linecap="round" stroke-linejoin="round"/>
<path d="M1192.69 1101.87L1160.95 1069.49" stroke="#F5F1EE" stroke-width="2.11606" stroke-linecap="round" stroke-linejoin="round"/>
<path d="M1160.95 895.657V1069.49" stroke="#F5F1EE" stroke-width="2.11606" stroke-linecap="round" stroke-linejoin="round"/>
<path d="M1192.69 922.108L1160.95 895.657" stroke="#F5F1EE" stroke-width="2.11606" stroke-linecap="round" stroke-linejoin="round"/>
<path d="M1160.95 721.718V895.657" stroke="#F5F1EE" stroke-width="2.11606" stroke-linecap="round" stroke-linejoin="round"/>
<path d="M1192.69 742.243L1160.95 721.718" stroke="#F5F1EE" stroke-width="2.11606" stroke-linecap="round" stroke-linejoin="round"/>
<path d="M1160.95 547.778V721.718" stroke="#F5F1EE" stroke-width="2.11606" stroke-linecap="round" stroke-linejoin="round"/>
<path d="M1192.69 562.485L1160.95 547.778" stroke="#F5F1EE" stroke-width="2.11606" stroke-linecap="round" stroke-linejoin="round"/>
<path d="M1160.95 373.839V547.779" stroke="#F5F1EE" stroke-width="2.11606" stroke-linecap="round" stroke-linejoin="round"/>
<path d="M1192.69 382.726L1160.95 373.839" stroke="#F5F1EE" stroke-width="2.11606" stroke-linecap="round" stroke-linejoin="round"/>
<path d="M1160.95 200.003V373.837" stroke="#F5F1EE" stroke-width="2.11606" stroke-linecap="round" stroke-linejoin="round"/>
<path d="M1192.69 202.86L1160.95 200.003" stroke="#F5F1EE" stroke-width="2.11606" stroke-linecap="round" stroke-linejoin="round"/>
<path d="M1160.95 26.064V200.004" stroke="#F5F1EE" stroke-width="2.11606" stroke-linecap="round" stroke-linejoin="round"/>
<path d="M1192.69 23.1035L1160.95 26.0663" stroke="#F5F1EE" stroke-width="2.11606" stroke-linecap="round" stroke-linejoin="round"/>
<path d="M1160.95 -147.875V26.0645" stroke="#F5F1EE" stroke-width="2.11606" stroke-linecap="round" stroke-linejoin="round"/>
<path d="M1160.96 1069.5L1131.17 1039.24" stroke="#F5F1EE" stroke-width="2.11606" stroke-linecap="round" stroke-linejoin="round"/>
<path d="M1131.17 870.798V1039.24" stroke="#F5F1EE" stroke-width="2.11606" stroke-linecap="round" stroke-linejoin="round"/>
<path d="M1160.96 895.661L1131.17 870.798" stroke="#F5F1EE" stroke-width="2.11606" stroke-linecap="round" stroke-linejoin="round"/>
<path d="M1131.17 702.355V870.794" stroke="#F5F1EE" stroke-width="2.11606" stroke-linecap="round" stroke-linejoin="round"/>
<path d="M1160.96 721.718L1131.17 702.355" stroke="#F5F1EE" stroke-width="2.11606" stroke-linecap="round" stroke-linejoin="round"/>
<path d="M1131.17 534.026V702.359" stroke="#F5F1EE" stroke-width="2.11606" stroke-linecap="round" stroke-linejoin="round"/>
<path d="M1160.96 547.781L1131.17 534.026" stroke="#F5F1EE" stroke-width="2.11606" stroke-linecap="round" stroke-linejoin="round"/>
<path d="M1131.17 365.589V534.027" stroke="#F5F1EE" stroke-width="2.11606" stroke-linecap="round" stroke-linejoin="round"/>
<path d="M1160.96 373.841L1131.17 365.589" stroke="#F5F1EE" stroke-width="2.11606" stroke-linecap="round" stroke-linejoin="round"/>
<path d="M1131.17 197.255V365.587" stroke="#F5F1EE" stroke-width="2.11606" stroke-linecap="round" stroke-linejoin="round"/>
<path d="M1160.96 200.006L1131.17 197.255" stroke="#F5F1EE" stroke-width="2.11606" stroke-linecap="round" stroke-linejoin="round"/>
<path d="M1131.17 28.8169V197.255" stroke="#F5F1EE" stroke-width="2.11606" stroke-linecap="round" stroke-linejoin="round"/>
<path d="M1160.96 26.0635L1131.17 28.8141" stroke="#F5F1EE" stroke-width="2.11606" stroke-linecap="round" stroke-linejoin="round"/>
<path d="M1131.17 -139.62V28.818" stroke="#F5F1EE" stroke-width="2.11606" stroke-linecap="round" stroke-linejoin="round"/>
<path d="M1131.17 1039.24L1103.23 1010.77" stroke="#F5F1EE" stroke-width="2.11606" stroke-linecap="round" stroke-linejoin="round"/>
<path d="M1103.23 847.519V1010.77" stroke="#F5F1EE" stroke-width="2.11606" stroke-linecap="round" stroke-linejoin="round"/>
<path d="M1131.17 870.795L1103.23 847.519" stroke="#F5F1EE" stroke-width="2.11606" stroke-linecap="round" stroke-linejoin="round"/>
<path d="M1103.23 684.263V847.517" stroke="#F5F1EE" stroke-width="2.11606" stroke-linecap="round" stroke-linejoin="round"/>
<path d="M1131.17 702.355L1103.23 684.263" stroke="#F5F1EE" stroke-width="2.11606" stroke-linecap="round" stroke-linejoin="round"/>
<path d="M1103.23 521.116V684.264" stroke="#F5F1EE" stroke-width="2.11606" stroke-linecap="round" stroke-linejoin="round"/>
<path d="M1131.17 534.024L1103.23 521.116" stroke="#F5F1EE" stroke-width="2.11606" stroke-linecap="round" stroke-linejoin="round"/>
<path d="M1103.23 357.865V521.119" stroke="#F5F1EE" stroke-width="2.11606" stroke-linecap="round" stroke-linejoin="round"/>
<path d="M1131.17 365.589L1103.23 357.865" stroke="#F5F1EE" stroke-width="2.11606" stroke-linecap="round" stroke-linejoin="round"/>
<path d="M1103.23 194.609V357.863" stroke="#F5F1EE" stroke-width="2.11606" stroke-linecap="round" stroke-linejoin="round"/>
<path d="M1131.17 197.254L1103.23 194.609" stroke="#F5F1EE" stroke-width="2.11606" stroke-linecap="round" stroke-linejoin="round"/>
<path d="M1103.23 31.3535V194.607" stroke="#F5F1EE" stroke-width="2.11606" stroke-linecap="round" stroke-linejoin="round"/>
<path d="M1131.17 28.8169L1103.23 31.3564" stroke="#F5F1EE" stroke-width="2.11606" stroke-linecap="round" stroke-linejoin="round"/>
<path d="M1103.23 -131.793V31.3548" stroke="#F5F1EE" stroke-width="2.11606" stroke-linecap="round" stroke-linejoin="round"/>
<path d="M1103.23 1010.77H653.419" stroke="#F5F1EE" stroke-width="2.11606" stroke-linecap="round" stroke-linejoin="round"/>
<path d="M1103.23 847.524H653.419" stroke="#F5F1EE" stroke-width="2.11606" stroke-linecap="round" stroke-linejoin="round"/>
<path d="M1103.23 684.269H653.419" stroke="#F5F1EE" stroke-width="2.11606" stroke-linecap="round" stroke-linejoin="round"/>
<path d="M1103.23 521.121H653.419" stroke="#F5F1EE" stroke-width="2.11606" stroke-linecap="round" stroke-linejoin="round"/>
<path d="M1103.23 357.865H653.419" stroke="#F5F1EE" stroke-width="2.11606" stroke-linecap="round" stroke-linejoin="round"/>
<path d="M1103.23 194.609H653.419" stroke="#F5F1EE" stroke-width="2.11606" stroke-linecap="round" stroke-linejoin="round"/>
<path d="M1103.23 31.3589H653.419" stroke="#F5F1EE" stroke-width="2.11606" stroke-linecap="round" stroke-linejoin="round"/>
<path d="M653.419 1010.78V-295.044" stroke="#F5F1EE" stroke-width="2.11606" stroke-linecap="round" stroke-linejoin="round"/>
<path d="M728.428 1010.78V-295.044" stroke="#F5F1EE" stroke-width="2.11606" stroke-linecap="round" stroke-linejoin="round"/>
<path d="M803.321 1010.78V-295.044" stroke="#F5F1EE" stroke-width="2.11606" stroke-linecap="round" stroke-linejoin="round"/>
<path d="M878.331 1010.78V-295.044" stroke="#F5F1EE" stroke-width="2.11606" stroke-linecap="round" stroke-linejoin="round"/>
<path d="M953.329 1010.78V-295.044" stroke="#F5F1EE" stroke-width="2.11606" stroke-linecap="round" stroke-linejoin="round"/>
<path d="M1028.22 1010.78V-295.044" stroke="#F5F1EE" stroke-width="2.11606" stroke-linecap="round" stroke-linejoin="round"/>
<path d="M1103.23 1010.78V-295.044" stroke="#F5F1EE" stroke-width="2.11606" stroke-linecap="round" stroke-linejoin="round"/>
<path d="M653.417 1010.77L-20 1353.79V-451L653.417 -295.046H1103.23L1439.99 -451V1353.79L1103.23 1010.77H653.417Z" stroke="#F5F1EE" stroke-opacity="0.32" stroke-width="5.29015" stroke-linecap="round" stroke-linejoin="round"/>
<path d="M1103.23 -295.044V1010.78" stroke="#F5F1EE" stroke-opacity="0.32" stroke-width="5.29015" stroke-linecap="round" stroke-linejoin="round"/>
<path d="M653.419 -295.044V1010.78" stroke="#F5F1EE" stroke-opacity="0.32" stroke-width="5.29015" stroke-linecap="round" stroke-linejoin="round"/>
</g>
</svg>
