<svg width="375" height="717" viewBox="0 0 375 717" fill="none" xmlns="http://www.w3.org/2000/svg">
<g opacity="0.09">
<path d="M23.9706 634.863L-10.4116 652.334" stroke="#F5F1EE" stroke-width="2.11606" stroke-linecap="round" stroke-linejoin="round"/>
<path d="M23.9741 634.863V550.381" stroke="#F5F1EE" stroke-width="2.11606" stroke-linecap="round" stroke-linejoin="round"/>
<path d="M23.9706 550.381L-10.4116 564.701" stroke="#F5F1EE" stroke-width="2.11606" stroke-linecap="round" stroke-linejoin="round"/>
<path d="M23.9741 550.381V465.899" stroke="#F5F1EE" stroke-width="2.11606" stroke-linecap="round" stroke-linejoin="round"/>
<path d="M23.9706 465.899L-10.4116 477.022" stroke="#F5F1EE" stroke-width="2.11606" stroke-linecap="round" stroke-linejoin="round"/>
<path d="M23.9741 465.899V381.417" stroke="#F5F1EE" stroke-width="2.11606" stroke-linecap="round" stroke-linejoin="round"/>
<path d="M23.9706 381.417L-10.4116 389.388" stroke="#F5F1EE" stroke-width="2.11606" stroke-linecap="round" stroke-linejoin="round"/>
<path d="M23.9741 381.417V296.981" stroke="#F5F1EE" stroke-width="2.11606" stroke-linecap="round" stroke-linejoin="round"/>
<path d="M23.9706 296.981L-10.4116 301.755" stroke="#F5F1EE" stroke-width="2.11606" stroke-linecap="round" stroke-linejoin="round"/>
<path d="M23.9741 296.981V212.5" stroke="#F5F1EE" stroke-width="2.11606" stroke-linecap="round" stroke-linejoin="round"/>
<path d="M23.9706 212.5L-10.4116 214.075" stroke="#F5F1EE" stroke-width="2.11606" stroke-linecap="round" stroke-linejoin="round"/>
<path d="M23.9741 212.5V128.018" stroke="#F5F1EE" stroke-width="2.11606" stroke-linecap="round" stroke-linejoin="round"/>
<path d="M23.9706 128.018L-10.4116 126.443" stroke="#F5F1EE" stroke-width="2.11606" stroke-linecap="round" stroke-linejoin="round"/>
<path d="M23.9741 128.019V43.5835" stroke="#F5F1EE" stroke-width="2.11606" stroke-linecap="round" stroke-linejoin="round"/>
<path d="M23.9706 43.5823L-10.4116 38.8091" stroke="#F5F1EE" stroke-width="2.11606" stroke-linecap="round" stroke-linejoin="round"/>
<path d="M23.9741 43.5838V-40.8979" stroke="#F5F1EE" stroke-width="2.11606" stroke-linecap="round" stroke-linejoin="round"/>
<path d="M55.9276 618.595L23.9741 634.861" stroke="#F5F1EE" stroke-width="2.11606" stroke-linecap="round" stroke-linejoin="round"/>
<path d="M55.9272 618.596V537.08" stroke="#F5F1EE" stroke-width="2.11606" stroke-linecap="round" stroke-linejoin="round"/>
<path d="M55.9276 537.08L23.9741 550.38" stroke="#F5F1EE" stroke-width="2.11606" stroke-linecap="round" stroke-linejoin="round"/>
<path d="M55.9272 537.081V455.565" stroke="#F5F1EE" stroke-width="2.11606" stroke-linecap="round" stroke-linejoin="round"/>
<path d="M55.9276 455.565L23.9741 465.9" stroke="#F5F1EE" stroke-width="2.11606" stroke-linecap="round" stroke-linejoin="round"/>
<path d="M55.9272 455.563V374.047" stroke="#F5F1EE" stroke-width="2.11606" stroke-linecap="round" stroke-linejoin="round"/>
<path d="M55.9276 374.047L23.9741 381.416" stroke="#F5F1EE" stroke-width="2.11606" stroke-linecap="round" stroke-linejoin="round"/>
<path d="M55.9272 374.048V292.532" stroke="#F5F1EE" stroke-width="2.11606" stroke-linecap="round" stroke-linejoin="round"/>
<path d="M55.9276 292.532L23.9741 296.981" stroke="#F5F1EE" stroke-width="2.11606" stroke-linecap="round" stroke-linejoin="round"/>
<path d="M55.9272 292.533V211.017" stroke="#F5F1EE" stroke-width="2.11606" stroke-linecap="round" stroke-linejoin="round"/>
<path d="M55.9276 211.017L23.9741 212.5" stroke="#F5F1EE" stroke-width="2.11606" stroke-linecap="round" stroke-linejoin="round"/>
<path d="M55.9272 211.016V129.5" stroke="#F5F1EE" stroke-width="2.11606" stroke-linecap="round" stroke-linejoin="round"/>
<path d="M55.9276 129.501L23.9741 128.018" stroke="#F5F1EE" stroke-width="2.11606" stroke-linecap="round" stroke-linejoin="round"/>
<path d="M55.9272 129.501V47.9849" stroke="#F5F1EE" stroke-width="2.11606" stroke-linecap="round" stroke-linejoin="round"/>
<path d="M55.9276 47.9861L23.9741 43.5835" stroke="#F5F1EE" stroke-width="2.11606" stroke-linecap="round" stroke-linejoin="round"/>
<path d="M55.9272 47.9842V-33.4854" stroke="#F5F1EE" stroke-width="2.11606" stroke-linecap="round" stroke-linejoin="round"/>
<path d="M85.6902 603.396L55.9272 618.597" stroke="#F5F1EE" stroke-width="2.11606" stroke-linecap="round" stroke-linejoin="round"/>
<path d="M85.6904 603.395V524.66" stroke="#F5F1EE" stroke-width="2.11606" stroke-linecap="round" stroke-linejoin="round"/>
<path d="M85.6902 524.66L55.9272 537.079" stroke="#F5F1EE" stroke-width="2.11606" stroke-linecap="round" stroke-linejoin="round"/>
<path d="M85.6904 524.66V445.878" stroke="#F5F1EE" stroke-width="2.11606" stroke-linecap="round" stroke-linejoin="round"/>
<path d="M85.6902 445.878L55.9272 455.564" stroke="#F5F1EE" stroke-width="2.11606" stroke-linecap="round" stroke-linejoin="round"/>
<path d="M85.6904 445.879V367.144" stroke="#F5F1EE" stroke-width="2.11606" stroke-linecap="round" stroke-linejoin="round"/>
<path d="M85.6902 367.144L55.9272 374.049" stroke="#F5F1EE" stroke-width="2.11606" stroke-linecap="round" stroke-linejoin="round"/>
<path d="M85.6904 367.143V288.407" stroke="#F5F1EE" stroke-width="2.11606" stroke-linecap="round" stroke-linejoin="round"/>
<path d="M85.6902 288.407L55.9272 292.532" stroke="#F5F1EE" stroke-width="2.11606" stroke-linecap="round" stroke-linejoin="round"/>
<path d="M85.6904 288.407V209.625" stroke="#F5F1EE" stroke-width="2.11606" stroke-linecap="round" stroke-linejoin="round"/>
<path d="M85.6902 209.625L55.9272 211.016" stroke="#F5F1EE" stroke-width="2.11606" stroke-linecap="round" stroke-linejoin="round"/>
<path d="M85.6904 209.627V130.892" stroke="#F5F1EE" stroke-width="2.11606" stroke-linecap="round" stroke-linejoin="round"/>
<path d="M85.6902 130.89L55.9272 129.5" stroke="#F5F1EE" stroke-width="2.11606" stroke-linecap="round" stroke-linejoin="round"/>
<path d="M85.6904 130.891V52.1553" stroke="#F5F1EE" stroke-width="2.11606" stroke-linecap="round" stroke-linejoin="round"/>
<path d="M85.6902 52.1556L55.9272 47.9849" stroke="#F5F1EE" stroke-width="2.11606" stroke-linecap="round" stroke-linejoin="round"/>
<path d="M85.6904 52.1548V-26.627" stroke="#F5F1EE" stroke-width="2.11606" stroke-linecap="round" stroke-linejoin="round"/>
<path d="M113.549 589.215L85.6904 603.396" stroke="#F5F1EE" stroke-width="2.11606" stroke-linecap="round" stroke-linejoin="round"/>
<path d="M113.547 589.215V513.074" stroke="#F5F1EE" stroke-width="2.11606" stroke-linecap="round" stroke-linejoin="round"/>
<path d="M113.549 513.074L85.6904 524.66" stroke="#F5F1EE" stroke-width="2.11606" stroke-linecap="round" stroke-linejoin="round"/>
<path d="M113.547 513.075V436.888" stroke="#F5F1EE" stroke-width="2.11606" stroke-linecap="round" stroke-linejoin="round"/>
<path d="M113.549 436.888L85.6904 445.878" stroke="#F5F1EE" stroke-width="2.11606" stroke-linecap="round" stroke-linejoin="round"/>
<path d="M113.547 436.888V360.702" stroke="#F5F1EE" stroke-width="2.11606" stroke-linecap="round" stroke-linejoin="round"/>
<path d="M113.549 360.702L85.6904 367.143" stroke="#F5F1EE" stroke-width="2.11606" stroke-linecap="round" stroke-linejoin="round"/>
<path d="M113.547 360.702V284.515" stroke="#F5F1EE" stroke-width="2.11606" stroke-linecap="round" stroke-linejoin="round"/>
<path d="M113.549 284.515L85.6904 288.408" stroke="#F5F1EE" stroke-width="2.11606" stroke-linecap="round" stroke-linejoin="round"/>
<path d="M113.547 284.515V208.375" stroke="#F5F1EE" stroke-width="2.11606" stroke-linecap="round" stroke-linejoin="round"/>
<path d="M113.549 208.375L85.6904 209.626" stroke="#F5F1EE" stroke-width="2.11606" stroke-linecap="round" stroke-linejoin="round"/>
<path d="M113.547 208.374V132.188" stroke="#F5F1EE" stroke-width="2.11606" stroke-linecap="round" stroke-linejoin="round"/>
<path d="M113.549 132.189L85.6904 130.892" stroke="#F5F1EE" stroke-width="2.11606" stroke-linecap="round" stroke-linejoin="round"/>
<path d="M113.547 132.189V56.002" stroke="#F5F1EE" stroke-width="2.11606" stroke-linecap="round" stroke-linejoin="round"/>
<path d="M113.549 56.0018L85.6904 52.1553" stroke="#F5F1EE" stroke-width="2.11606" stroke-linecap="round" stroke-linejoin="round"/>
<path d="M113.547 56.002V-20.1846" stroke="#F5F1EE" stroke-width="2.11606" stroke-linecap="round" stroke-linejoin="round"/>
<path d="M139.595 575.962L113.547 589.216" stroke="#F5F1EE" stroke-width="2.11606" stroke-linecap="round" stroke-linejoin="round"/>
<path d="M139.594 575.962V502.186" stroke="#F5F1EE" stroke-width="2.11606" stroke-linecap="round" stroke-linejoin="round"/>
<path d="M139.595 502.186L113.547 513.076" stroke="#F5F1EE" stroke-width="2.11606" stroke-linecap="round" stroke-linejoin="round"/>
<path d="M139.594 502.184V428.407" stroke="#F5F1EE" stroke-width="2.11606" stroke-linecap="round" stroke-linejoin="round"/>
<path d="M139.595 428.407L113.547 436.888" stroke="#F5F1EE" stroke-width="2.11606" stroke-linecap="round" stroke-linejoin="round"/>
<path d="M139.594 428.409V354.678" stroke="#F5F1EE" stroke-width="2.11606" stroke-linecap="round" stroke-linejoin="round"/>
<path d="M139.595 354.678L113.547 360.703" stroke="#F5F1EE" stroke-width="2.11606" stroke-linecap="round" stroke-linejoin="round"/>
<path d="M139.594 354.679V280.902" stroke="#F5F1EE" stroke-width="2.11606" stroke-linecap="round" stroke-linejoin="round"/>
<path d="M139.595 280.902L113.547 284.517" stroke="#F5F1EE" stroke-width="2.11606" stroke-linecap="round" stroke-linejoin="round"/>
<path d="M139.594 280.901V207.171" stroke="#F5F1EE" stroke-width="2.11606" stroke-linecap="round" stroke-linejoin="round"/>
<path d="M139.595 207.171L113.547 208.376" stroke="#F5F1EE" stroke-width="2.11606" stroke-linecap="round" stroke-linejoin="round"/>
<path d="M139.594 207.171V133.394" stroke="#F5F1EE" stroke-width="2.11606" stroke-linecap="round" stroke-linejoin="round"/>
<path d="M139.595 133.393L113.547 132.188" stroke="#F5F1EE" stroke-width="2.11606" stroke-linecap="round" stroke-linejoin="round"/>
<path d="M139.594 133.395V59.6182" stroke="#F5F1EE" stroke-width="2.11606" stroke-linecap="round" stroke-linejoin="round"/>
<path d="M139.595 59.6166L113.547 56.002" stroke="#F5F1EE" stroke-width="2.11606" stroke-linecap="round" stroke-linejoin="round"/>
<path d="M139.594 59.6172V-14.1133" stroke="#F5F1EE" stroke-width="2.11606" stroke-linecap="round" stroke-linejoin="round"/>
<path d="M164.071 563.496L139.594 575.962" stroke="#F5F1EE" stroke-width="2.11606" stroke-linecap="round" stroke-linejoin="round"/>
<path d="M164.074 563.495V491.989" stroke="#F5F1EE" stroke-width="2.11606" stroke-linecap="round" stroke-linejoin="round"/>
<path d="M164.071 491.989L139.594 502.185" stroke="#F5F1EE" stroke-width="2.11606" stroke-linecap="round" stroke-linejoin="round"/>
<path d="M164.074 491.988V420.482" stroke="#F5F1EE" stroke-width="2.11606" stroke-linecap="round" stroke-linejoin="round"/>
<path d="M164.071 420.482L139.594 428.407" stroke="#F5F1EE" stroke-width="2.11606" stroke-linecap="round" stroke-linejoin="round"/>
<path d="M164.074 420.483V349.023" stroke="#F5F1EE" stroke-width="2.11606" stroke-linecap="round" stroke-linejoin="round"/>
<path d="M164.071 349.023L139.594 354.677" stroke="#F5F1EE" stroke-width="2.11606" stroke-linecap="round" stroke-linejoin="round"/>
<path d="M164.074 349.025V277.519" stroke="#F5F1EE" stroke-width="2.11606" stroke-linecap="round" stroke-linejoin="round"/>
<path d="M164.071 277.519L139.594 280.902" stroke="#F5F1EE" stroke-width="2.11606" stroke-linecap="round" stroke-linejoin="round"/>
<path d="M164.074 277.518V206.012" stroke="#F5F1EE" stroke-width="2.11606" stroke-linecap="round" stroke-linejoin="round"/>
<path d="M164.071 206.012L139.594 207.17" stroke="#F5F1EE" stroke-width="2.11606" stroke-linecap="round" stroke-linejoin="round"/>
<path d="M164.074 206.011V134.505" stroke="#F5F1EE" stroke-width="2.11606" stroke-linecap="round" stroke-linejoin="round"/>
<path d="M164.071 134.506L139.594 133.394" stroke="#F5F1EE" stroke-width="2.11606" stroke-linecap="round" stroke-linejoin="round"/>
<path d="M164.074 134.506V63.0459" stroke="#F5F1EE" stroke-width="2.11606" stroke-linecap="round" stroke-linejoin="round"/>
<path d="M164.071 63.0474L139.594 59.6182" stroke="#F5F1EE" stroke-width="2.11606" stroke-linecap="round" stroke-linejoin="round"/>
<path d="M164.074 63.047V-8.45898" stroke="#F5F1EE" stroke-width="2.11606" stroke-linecap="round" stroke-linejoin="round"/>
<path d="M386.416 589.216L373.368 575.962" stroke="#F5F1EE" stroke-width="2.11606" stroke-linecap="round" stroke-linejoin="round"/>
<path d="M373.368 502.186V575.962" stroke="#F5F1EE" stroke-width="2.11606" stroke-linecap="round" stroke-linejoin="round"/>
<path d="M386.416 513.076L373.368 502.186" stroke="#F5F1EE" stroke-width="2.11606" stroke-linecap="round" stroke-linejoin="round"/>
<path d="M373.368 428.407V502.184" stroke="#F5F1EE" stroke-width="2.11606" stroke-linecap="round" stroke-linejoin="round"/>
<path d="M386.416 436.888L373.368 428.407" stroke="#F5F1EE" stroke-width="2.11606" stroke-linecap="round" stroke-linejoin="round"/>
<path d="M373.368 354.678V428.409" stroke="#F5F1EE" stroke-width="2.11606" stroke-linecap="round" stroke-linejoin="round"/>
<path d="M386.416 360.703L373.368 354.678" stroke="#F5F1EE" stroke-width="2.11606" stroke-linecap="round" stroke-linejoin="round"/>
<path d="M373.368 280.902V354.679" stroke="#F5F1EE" stroke-width="2.11606" stroke-linecap="round" stroke-linejoin="round"/>
<path d="M386.416 284.517L373.368 280.902" stroke="#F5F1EE" stroke-width="2.11606" stroke-linecap="round" stroke-linejoin="round"/>
<path d="M373.368 207.171V280.901" stroke="#F5F1EE" stroke-width="2.11606" stroke-linecap="round" stroke-linejoin="round"/>
<path d="M386.416 208.376L373.368 207.171" stroke="#F5F1EE" stroke-width="2.11606" stroke-linecap="round" stroke-linejoin="round"/>
<path d="M373.368 133.394V207.171" stroke="#F5F1EE" stroke-width="2.11606" stroke-linecap="round" stroke-linejoin="round"/>
<path d="M386.416 132.188L373.368 133.393" stroke="#F5F1EE" stroke-width="2.11606" stroke-linecap="round" stroke-linejoin="round"/>
<path d="M373.368 59.6182V133.395" stroke="#F5F1EE" stroke-width="2.11606" stroke-linecap="round" stroke-linejoin="round"/>
<path d="M386.416 56.002L373.368 59.6166" stroke="#F5F1EE" stroke-width="2.11606" stroke-linecap="round" stroke-linejoin="round"/>
<path d="M373.368 -14.1133V59.6172" stroke="#F5F1EE" stroke-width="2.11606" stroke-linecap="round" stroke-linejoin="round"/>
<path d="M373.367 575.962L361.128 563.496" stroke="#F5F1EE" stroke-width="2.11606" stroke-linecap="round" stroke-linejoin="round"/>
<path d="M361.128 491.989V563.495" stroke="#F5F1EE" stroke-width="2.11606" stroke-linecap="round" stroke-linejoin="round"/>
<path d="M373.367 502.185L361.128 491.989" stroke="#F5F1EE" stroke-width="2.11606" stroke-linecap="round" stroke-linejoin="round"/>
<path d="M361.128 420.482V491.988" stroke="#F5F1EE" stroke-width="2.11606" stroke-linecap="round" stroke-linejoin="round"/>
<path d="M373.367 428.407L361.128 420.482" stroke="#F5F1EE" stroke-width="2.11606" stroke-linecap="round" stroke-linejoin="round"/>
<path d="M361.128 349.023V420.483" stroke="#F5F1EE" stroke-width="2.11606" stroke-linecap="round" stroke-linejoin="round"/>
<path d="M373.367 354.677L361.128 349.023" stroke="#F5F1EE" stroke-width="2.11606" stroke-linecap="round" stroke-linejoin="round"/>
<path d="M361.128 277.519V349.025" stroke="#F5F1EE" stroke-width="2.11606" stroke-linecap="round" stroke-linejoin="round"/>
<path d="M373.367 280.902L361.128 277.519" stroke="#F5F1EE" stroke-width="2.11606" stroke-linecap="round" stroke-linejoin="round"/>
<path d="M361.128 206.012V277.518" stroke="#F5F1EE" stroke-width="2.11606" stroke-linecap="round" stroke-linejoin="round"/>
<path d="M373.367 207.17L361.128 206.012" stroke="#F5F1EE" stroke-width="2.11606" stroke-linecap="round" stroke-linejoin="round"/>
<path d="M361.128 134.505V206.011" stroke="#F5F1EE" stroke-width="2.11606" stroke-linecap="round" stroke-linejoin="round"/>
<path d="M373.367 133.394L361.128 134.506" stroke="#F5F1EE" stroke-width="2.11606" stroke-linecap="round" stroke-linejoin="round"/>
<path d="M361.128 63.0459V134.506" stroke="#F5F1EE" stroke-width="2.11606" stroke-linecap="round" stroke-linejoin="round"/>
<path d="M373.367 59.6182L361.128 63.0474" stroke="#F5F1EE" stroke-width="2.11606" stroke-linecap="round" stroke-linejoin="round"/>
<path d="M361.128 -8.45898V63.047" stroke="#F5F1EE" stroke-width="2.11606" stroke-linecap="round" stroke-linejoin="round"/>
<path d="M361.129 563.496H164.074" stroke="#F5F1EE" stroke-width="2.11606" stroke-linecap="round" stroke-linejoin="round"/>
<path d="M361.129 491.992H164.074" stroke="#F5F1EE" stroke-width="2.11606" stroke-linecap="round" stroke-linejoin="round"/>
<path d="M361.129 420.485H164.074" stroke="#F5F1EE" stroke-width="2.11606" stroke-linecap="round" stroke-linejoin="round"/>
<path d="M361.129 349.025H164.074" stroke="#F5F1EE" stroke-width="2.11606" stroke-linecap="round" stroke-linejoin="round"/>
<path d="M361.129 277.519H164.074" stroke="#F5F1EE" stroke-width="2.11606" stroke-linecap="round" stroke-linejoin="round"/>
<path d="M361.129 206.012H164.074" stroke="#F5F1EE" stroke-width="2.11606" stroke-linecap="round" stroke-linejoin="round"/>
<path d="M361.129 134.507H164.074" stroke="#F5F1EE" stroke-width="2.11606" stroke-linecap="round" stroke-linejoin="round"/>
<path d="M361.129 63.0479H164.074" stroke="#F5F1EE" stroke-width="2.11606" stroke-linecap="round" stroke-linejoin="round"/>
<path d="M164.074 563.496V-8.45898" stroke="#F5F1EE" stroke-width="2.11606" stroke-linecap="round" stroke-linejoin="round"/>
<path d="M196.934 563.496V-8.45898" stroke="#F5F1EE" stroke-width="2.11606" stroke-linecap="round" stroke-linejoin="round"/>
<path d="M229.743 563.496V-8.45898" stroke="#F5F1EE" stroke-width="2.11606" stroke-linecap="round" stroke-linejoin="round"/>
<path d="M262.604 563.496V-8.45898" stroke="#F5F1EE" stroke-width="2.11606" stroke-linecap="round" stroke-linejoin="round"/>
<path d="M295.459 563.496V-8.45898" stroke="#F5F1EE" stroke-width="2.11606" stroke-linecap="round" stroke-linejoin="round"/>
<path d="M328.268 563.496V-8.45898" stroke="#F5F1EE" stroke-width="2.11606" stroke-linecap="round" stroke-linejoin="round"/>
<path d="M361.128 563.496V-8.45898" stroke="#F5F1EE" stroke-width="2.11606" stroke-linecap="round" stroke-linejoin="round"/>
<path d="M164.073 563.496L-130.938 713.737V-76.7681L164.073 -8.45959H361.128L508.657 -76.7681V713.737L361.128 563.496H164.073Z" stroke="#F5F1EE" stroke-opacity="0.32" stroke-width="5.29015" stroke-linecap="round" stroke-linejoin="round"/>
<path d="M361.128 -8.45898V563.496" stroke="#F5F1EE" stroke-opacity="0.32" stroke-width="5.29015" stroke-linecap="round" stroke-linejoin="round"/>
<path d="M164.074 -8.45898V563.496" stroke="#F5F1EE" stroke-opacity="0.32" stroke-width="5.29015" stroke-linecap="round" stroke-linejoin="round"/>
</g>
</svg>
