<svg width="1366" height="1244" viewBox="0 0 1366 1244" fill="none" xmlns="http://www.w3.org/2000/svg">
<g opacity="0.17">
<path d="M1570.27 832.507C1576.6 826.382 1582.47 820.796 1587.87 815.412C1593.27 810.028 1598.49 804.711 1603.42 799.327C1822.28 563.101 1635.83 235.008 1093.44 65.7456C557.185 -101.632 46.4526 77.0522 3.23966 355.544C-8.58803 431.931 27.7334 514.24 81.4702 597.424C153.181 708.403 286.545 935.343 362.541 941.602C435.183 947.591 421.865 884.53 466.848 882.175C558.023 877.396 486.033 1105.08 618.279 1107.63C656.184 1108.37 728.361 1029.83 752.854 1029.83C834.624 1035.76 875.415 1094.78 901.957 1150.17C905.776 1156.83 909.501 1163.36 913.319 1169.75C936.23 1208.05 961.748 1239.88 1014.27 1242.44C1117.84 1250.31 1163.19 1174.19 1211.71 1097.67C1215.72 1091.28 1219.81 1084.89 1223.91 1078.56C1251.29 1035.69 1267.59 988.443 1324.87 964.82C1365.75 952.975 1348.89 1027.01 1416.23 1027.01C1512.34 1023.51 1524.54 899.942 1556.58 847.582C1561.23 841.929 1565.7 836.881 1570.08 832.372L1570.27 832.507Z" stroke="#F5F1EE" stroke-width="1.3378" stroke-miterlimit="10"/>
<path d="M490.503 865.213C472.342 858.147 445.334 854.782 420.282 886.75C400.165 912.526 362.634 941.667 306.755 854.782C303.216 849.263 198.443 682.962 129.712 609.2C121.703 598.836 114.159 588.471 107.081 578.04C57.7216 505.153 33.321 431.323 44.5899 366.445C88.1753 115.749 582.144 -59.6378 1081.05 96.5679C1574.65 251.091 1758.95 550.985 1583.12 772.338C1578.84 777.789 1464.38 998.2 1424.52 1003.38C1362.12 1011.53 1383.73 942.071 1351.04 940.658C1289.94 937.966 1243.19 1006.28 1214.97 1053.19C1212.74 1056.62 1210.59 1059.98 1208.36 1063.41C1160.3 1138.25 1120.63 1214.91 1030.76 1218.95C989.873 1218.95 959.14 1198.89 931.294 1171.7C925.706 1166.25 920.304 1160.53 914.903 1154.61C867.406 1100.77 827.173 986.019 723.145 1027.14C658.139 1052.85 654.414 1094.37 603.006 1083.07C540.421 1069.27 601.795 908.488 490.503 865.281V865.213Z" stroke="#F5F1EE" stroke-width="1.3378" stroke-miterlimit="10"/>
<path d="M1556.67 760.764C1560.77 755.313 1564.59 749.929 1568.22 744.41C1705.87 536.046 1531.9 266.505 1078.16 125.509C614.182 -18.7168 139.025 147.18 92.2732 376.744C80.2593 435.902 101.866 504.011 146.569 571.85C152.995 581.609 159.794 591.3 167.151 601.059C238.21 675.561 300.236 797.847 376.138 869.388C395.043 887.155 424.193 822.479 489.292 848.457C531.388 865.283 567.895 906.471 578.978 943.756C592.948 990.664 578.419 1033.74 615.485 1042.42C666.428 1051.24 683.751 1003.38 756.021 1003.32C826.614 1003.32 878.395 1048.88 902.33 1094.64C905.869 1101.44 910.898 1107.84 915.089 1114.3C948.616 1166.12 978.604 1207.17 1055.34 1183.41C1152.95 1153.26 1245.15 915.624 1350.01 912.663C1397.23 911.384 1375.34 979.089 1424.61 970.811C1461.96 964.484 1514.48 832.44 1556.67 760.697V760.764Z" stroke="#F5F1EE" stroke-width="1.3378" stroke-miterlimit="10"/>
<path d="M604.962 933.996C505.777 725.901 428.012 872.819 388.711 822.478C344.473 765.878 261.214 675.829 214.741 599.779C207.663 590.087 201.237 580.8 195.184 571.445C153.274 506.634 133.344 441.958 145.638 386.434C193.507 169.792 647.057 19.7108 1083.19 152.832C1509.64 282.993 1676.07 532.545 1552.01 729.535C1548.48 735.188 1461.77 939.582 1416.32 935.813C1380.19 932.784 1394.34 890.721 1349.83 885.808C1315 881.972 1245.71 933.39 1201 1006.21C1147.54 1093.43 1092.6 1177.83 998.162 1147.95C971.62 1139.06 882.493 1018.05 821.213 999.951C731.806 973.569 695.578 1006.82 642.4 1003.11C601.981 1000.35 610.829 946.312 604.868 933.928L604.962 933.996Z" stroke="#F5F1EE" stroke-width="1.3378" stroke-miterlimit="10"/>
<path d="M1527.89 734.45C1657.72 531.403 1502.28 303.185 1095.3 178.88C687.103 54.238 254.508 194.09 204.403 395.791C193.786 438.594 203.658 487.455 228.711 537.527C233.74 547.555 239.328 557.583 245.568 567.678C296.324 651.737 379.025 767.293 425.218 790.175C450.922 802.962 464.613 767.966 516.58 797.848C694.181 900.145 628.524 934.671 678.07 956.207C722.214 975.388 776.137 946.448 851.573 995.78C911.923 1035.22 1014.55 1124.33 1055.44 1112.48C1161.7 1077.01 1198.02 910.981 1308.76 876.253C1388.57 851.217 1394.81 921.345 1424.7 908.894C1449.66 898.53 1455.25 848.121 1527.99 734.383L1527.89 734.45Z" stroke="#F5F1EE" stroke-width="1.3378" stroke-miterlimit="10"/>
<path d="M505.125 769.444C408.454 710.489 446.638 781.02 384.799 702.682C379.584 693.461 288.967 543.38 284.869 534.227C264.101 488.53 257.023 444.044 268.012 404.807C320.911 215.758 731.434 87.2806 1113.37 203.913C1488.87 318.527 1638.25 546.072 1520.63 722.401C1516.81 728.121 1432.71 877.193 1424.7 879.885C1393.04 890.519 1383.26 842.533 1322.26 858.753C1312.67 861.31 1267.22 871.271 1231.74 912.728C1176.97 976.664 1137.21 1029.9 1039.14 1053.52C916.579 1077.14 898.884 976.462 805.66 934.736C767.848 917.843 742.144 923.496 708.524 905.662C645.567 872.28 577.209 813.325 505.218 769.444H505.125Z" stroke="#F5F1EE" stroke-width="1.3378" stroke-miterlimit="10"/>
<path d="M1476.21 762.783C1482.07 755.582 1487.38 749.39 1492.32 743.535C1497.25 737.949 1501.72 732.431 1505.91 726.845C1632.48 559.938 1493.9 336.97 1136.09 227.807C779.303 118.981 391.784 235.21 335.905 413.356C322.214 457.102 331.528 507.309 357.884 558.054C363.192 568.216 369.06 578.378 375.672 588.541C401.469 634.104 434.065 676.302 473.367 712.981C484.17 722.201 503.728 724.422 515.369 733.171C527.011 741.92 701.632 862.12 713.925 868.581C758.907 892.136 782.842 883.05 824.1 905.529C885.007 938.776 961.934 999.885 1022.19 1003.05C1093.62 1006.75 1157.14 950.553 1245.98 882.983C1360.26 796.097 1377.21 881.637 1424.61 848.323C1432.06 843.074 1471.74 767.966 1476.11 762.581L1476.21 762.783Z" stroke="#F5F1EE" stroke-width="1.3378" stroke-miterlimit="10"/>
<path d="M582.703 734.314C455.951 642.448 373.53 519.556 407.896 421.902C468.524 249.544 837.79 154.583 1163 251.16C1479.93 345.314 1611.43 546.006 1517.56 698.914C1510.85 709.816 1503.03 720.517 1493.99 730.882C1455.81 770.051 1446.5 804.643 1374.23 822.478C1369.48 823.69 1288.64 834.593 1241.7 869.858C1105.64 972.021 989.221 990.394 825.124 866.56C792.062 841.659 698.186 817.902 582.703 734.247V734.314Z" stroke="#F5F1EE" stroke-width="1.3378" stroke-miterlimit="10"/>
<path d="M1483.94 733.842C1489.24 728.66 1494.18 723.343 1498.74 717.959C1622.7 573.06 1504.14 366.042 1192.71 273.839C891.061 184.598 546.754 267.244 483.145 430.314C446.545 523.997 518.163 638.948 637.744 723.747C648.64 731.487 779.49 802.018 793.273 812.786C917.51 909.431 1089.71 942.745 1234.25 854.244C1249.8 844.687 1271.5 841.995 1289.66 835.332C1298.79 832.034 1307.82 828.602 1316.86 825.17C1325.89 821.737 1334.18 817.43 1343.59 814.94C1396.67 800.605 1439.6 775.973 1470.24 746.764C1475.09 742.389 1479.74 738.149 1484.03 733.842H1483.94Z" stroke="#F5F1EE" stroke-width="1.3378" stroke-miterlimit="10"/>
<path d="M701.818 716.749C589.967 635.315 522.261 528.979 561.097 438.661C626.382 286.898 945.45 213.674 1224.47 296.118C1519.88 383.407 1627.26 585.916 1491.01 720.653C1486.64 724.96 1482.07 729.133 1477.32 733.171C1439.51 770.119 1311.27 821.066 1172.6 848.323C1095.86 863.398 1011.57 864.812 940.235 834.661C860.607 800.943 769.339 765.946 701.911 716.817L701.818 716.749Z" stroke="#F5F1EE" stroke-width="1.3378" stroke-miterlimit="10"/>
<path d="M1499.4 707.192C1625.31 582.281 1517.37 401.376 1257.25 317.99C993.692 233.527 704.239 312.74 641.19 446.939C602.819 528.642 654.042 630.402 759.653 704.769C774.74 715.403 790.945 725.431 808.174 734.853C825.776 746.63 844.123 757.129 863.122 766.417C882.121 775.705 901.678 783.713 921.701 790.578C990.06 817.297 1071.74 823.219 1145.5 822.479C1163.84 821.536 1182.19 819.854 1200.54 817.566C1237.14 812.989 1273.46 805.923 1308.94 797.308C1318.81 795.222 1328.5 792.934 1338 790.376C1390.43 775.974 1439.51 758.273 1472.39 730.142C1477.32 726.575 1481.98 722.873 1486.45 719.037C1490.92 715.201 1495.2 711.297 1499.3 707.259L1499.4 707.192Z" stroke="#F5F1EE" stroke-width="1.3378" stroke-miterlimit="10"/>
<path d="M974.693 767.561C932.784 746.429 883.797 728.728 846.544 707.528C828.011 696.087 811.061 683.771 795.881 670.715C719.792 605.702 687.476 524.2 722.773 455.351C786.661 330.508 1052.55 263.543 1290.22 339.661C1522.86 414.096 1622.14 580.329 1508.34 693.597C1498.28 703.558 1486.82 712.845 1474.06 721.325C1469.78 724.152 1465.4 726.911 1460.93 729.536C1431.41 746.428 1398.72 758.206 1363.8 769.311C1358.58 770.724 1353.27 772.137 1347.87 773.416C1342.47 774.695 1337.07 775.974 1331.48 777.118C1313.13 781.021 1294.13 784.184 1274.67 786.607C1214.51 791.924 1153.41 796.568 1092.97 791.924C1072.85 790.376 1052.74 787.819 1032.81 783.915C1013.06 779.608 993.598 774.089 974.786 767.561H974.693Z" stroke="#F5F1EE" stroke-width="1.3378" stroke-miterlimit="10"/>
<path d="M1516.72 679.868C1616.55 580.061 1531.99 425.268 1322.17 361.265C1113.27 297.598 868.058 349.891 804.821 464.034C769.338 528.104 796.999 601.193 865.543 659.947C879.234 671.725 894.6 682.897 911.364 693.261C998.162 746.429 1112.53 781.896 1236.21 771.599C1259.49 770.859 1282.4 769.042 1304.56 766.081C1331.29 762.581 1357 757.399 1381.12 750.736C1389.13 748.515 1397.04 746.092 1404.68 743.535C1422.93 740.506 1431.13 734.584 1448.17 726.171C1454.97 722.941 1461.49 719.576 1467.82 716.009C1486.64 705.375 1503.12 693.261 1516.62 679.801L1516.72 679.868Z" stroke="#F5F1EE" stroke-width="1.3378" stroke-miterlimit="10"/>
<path d="M1082.07 726.238C1047.24 710.96 1006.36 699.183 977.021 679.127C962.027 669.705 948.337 659.61 936.23 649.043C875.601 596.01 852.784 530.19 887.057 472.782C947.033 372.369 1171.01 327.142 1352.62 382.733C1533.76 438.189 1610.22 579.185 1524.08 665.936C1474.72 715.604 1376 745.217 1270.48 748.851C1249.34 749.591 1228.01 749.255 1206.59 747.909C1185.26 746.563 1164.03 744.14 1143.07 740.573C1122.21 737.006 1101.72 732.295 1082.07 726.238Z" stroke="#F5F1EE" stroke-width="1.3378" stroke-miterlimit="10"/>
<path d="M1529.2 651.937C1599.98 579.992 1538.42 450.572 1380.37 404.201C1226.52 359.042 1020.98 399.423 968.174 481.867C918.814 558.994 1003.84 664.791 1135.81 706.383C1270.01 748.648 1463.45 718.767 1529.2 652.004V651.937Z" stroke="#F5F1EE" stroke-width="1.3378" stroke-miterlimit="10"/>
<path d="M1188.52 686.125C1073.51 649.85 1002.17 557.782 1047.43 491.221C1095.11 421.161 1274.67 387.51 1404.4 425.67C1537.11 464.705 1590.66 576.896 1531.15 637.87C1475.09 695.345 1304.75 722.804 1188.43 686.125H1188.52Z" stroke="#F5F1EE" stroke-width="1.3378" stroke-miterlimit="10"/>
<path d="M1529.1 623.873C1582.84 568.013 1523.98 481.194 1424.05 447.275C1315.37 410.326 1168.13 440.073 1123.8 500.981C1081.61 558.927 1130.97 635.92 1239.19 665.465C1338.56 692.587 1477.51 677.579 1529.1 623.873Z" stroke="#F5F1EE" stroke-width="1.3378" stroke-miterlimit="10"/>
<path d="M1286.87 644.334C1200.16 618.625 1159.19 558.929 1196.25 511.145C1234.53 461.881 1352.06 441.892 1438.21 468.947C1522.86 495.531 1562.35 567.207 1522.03 609.943C1483 651.333 1371.62 669.437 1286.87 644.334Z" stroke="#F5F1EE" stroke-width="1.3378" stroke-miterlimit="10"/>
<path d="M1508.99 596.213C1548.85 559.467 1521.28 511.75 1446.12 490.752C1371.06 469.822 1298.7 483.618 1263.68 521.778C1229.97 558.525 1260.33 603.145 1330.45 622.797C1400.68 642.449 1470.71 631.546 1508.99 596.213Z" stroke="#F5F1EE" stroke-width="1.3378" stroke-miterlimit="10"/>
<path d="M1368.73 600.991C1321.98 587.666 1302.14 557.515 1324.96 532.95C1348.34 507.779 1397.98 498.761 1446.96 512.692C1495.95 526.624 1514.48 558.188 1488.96 582.685C1464.1 606.577 1415.58 614.317 1368.73 600.991Z" stroke="#F5F1EE" stroke-width="1.3378" stroke-miterlimit="10"/>
<path d="M1424.61 556.839C1361.93 619.159 1273.55 664.049 1177.16 700.392C1157.88 707.727 1138.23 714.66 1118.49 721.457C1082.26 736.6 1043.89 748.647 1005.05 759.819C985.589 765.405 966.125 770.721 946.661 776.105C851.108 799.661 733.204 845.425 678.07 892.738C618.466 943.82 628.524 1106.42 628.524 1106.42" stroke="#F5F1EE" stroke-width="1.3378" stroke-miterlimit="10"/>
<path d="M1424.61 556.839C1398.16 626.832 1311.36 681.211 1221.86 726.303C1203.98 735.388 1185.92 744.07 1168.22 752.752C1152.11 763.049 1135.62 773.212 1119.05 783.441C1025.08 851.012 913.226 908.823 840.025 989.786C818.512 1013.54 796.067 1038.92 796.067 1038.92" stroke="#F5F1EE" stroke-width="1.3378" stroke-miterlimit="10"/>
<path d="M1424.61 556.839C1441.93 621.986 1381.4 679.192 1313.13 727.649C1299.44 737.34 1285.57 746.695 1271.88 755.646C1254.27 765.337 1238.16 775.702 1223.35 786.537C1207.34 799.661 1192.99 813.323 1179.95 827.523C1063.54 958.962 1030.85 1127.82 1043.7 1242.37" stroke="#F5F1EE" stroke-width="1.3378" stroke-miterlimit="10"/>
<path d="M1424.61 556.839C1461.12 644.532 1405.98 715.265 1346.66 781.624C1334.74 794.882 1322.72 808.006 1311.18 821.063C1299.91 832.235 1290.41 843.878 1282.59 855.857C1274.67 867.837 1268.34 880.153 1263.21 892.671C1259.21 903.574 1256.04 914.476 1253.44 925.245C1252.13 930.629 1251.01 936.013 1249.99 941.397C1235.18 976.797 1234.34 1023.03 1240.86 1050.69" stroke="#F5F1EE" stroke-width="1.3378" stroke-miterlimit="10"/>
<path d="M1424.61 556.838C1554.06 428.091 1280.91 351.57 1387.17 189.711" stroke="#F5F1EE" stroke-width="1.3378" stroke-miterlimit="10"/>
<path d="M1424.61 556.839C1498.09 366.444 1055.9 292.682 1093.53 65.743" stroke="#F5F1EE" stroke-width="1.3378" stroke-miterlimit="10"/>
<path d="M1424.61 556.839C1378.88 340.87 914.064 256.879 777.441 4.76874" stroke="#F5F1EE" stroke-width="1.3378" stroke-miterlimit="10"/>
<path d="M1424.61 556.839C1371.71 443.975 1131.34 368.329 972.272 299.951C800.817 226.257 609.898 142.87 486.871 15.1331" stroke="#F5F1EE" stroke-width="1.3378" stroke-miterlimit="10"/>
<path d="M1424.61 556.838C1303.54 447.608 1030.48 388.653 840.211 329.697C636.44 266.501 424.38 200.681 242.96 91.5858" stroke="#F5F1EE" stroke-width="1.3378" stroke-miterlimit="10"/>
<path d="M1424.61 556.841C1238.16 461.071 958.395 426.344 739.816 382.8C516.766 338.382 283.472 298.405 73.7401 213.336" stroke="#F5F1EE" stroke-width="1.3378" stroke-miterlimit="10"/>
<path d="M1424.61 556.838C939.024 419.948 442.913 477.558 3.33282 355.608" stroke="#F5F1EE" stroke-width="1.3378" stroke-miterlimit="10"/>
<path d="M1424.61 556.841C903.913 504.683 447.663 536.853 23.2631 500.914" stroke="#F5F1EE" stroke-width="1.3378" stroke-miterlimit="10"/>
<path d="M1424.61 556.839C1067.27 579.855 743.913 599.104 451.015 616.871C436.394 617.746 421.772 618.688 407.337 619.63C311.691 628.312 207.011 634.235 107.267 637.802" stroke="#F5F1EE" stroke-width="1.3378" stroke-miterlimit="10"/>
<path d="M1424.61 556.839C1107.03 635.379 790.852 669.5 521.05 709.747C506.894 711.833 492.738 713.987 478.862 716.207C393.46 734.715 368.873 793.738 319.886 840.984C303.588 852.829 269.689 852.559 254.788 853.838" stroke="#F5F1EE" stroke-width="1.3378" stroke-miterlimit="10"/>
<path d="M1424.61 556.839C1326.64 605.766 1218.7 642.378 1109.17 672.462C1087.29 678.452 1065.31 684.239 1043.33 689.758C957.371 711.025 875.601 728.725 783.96 748.849C769.059 752.079 754.251 755.377 739.629 758.607C676.952 778.326 611.946 790.104 550.2 805.92C543.308 807.67 536.51 809.487 529.804 811.371C488.827 820.255 415.625 831.629 388.71 940.455" stroke="#F5F1EE" stroke-width="1.3378" stroke-miterlimit="10"/>
</g>
</svg>
