<svg width="250" height="733" viewBox="0 0 250 733" fill="none" xmlns="http://www.w3.org/2000/svg">
<path d="M77.418 91.9031C114.401 91.9031 144.382 71.5538 144.382 46.4516C144.382 21.3494 114.401 1 77.418 1C40.4346 1 10.4536 21.3494 10.4536 46.4516C10.4536 71.5538 40.4346 91.9031 77.418 91.9031Z" stroke="#F5F1EE" stroke-opacity="0.27" stroke-width="1.30961" stroke-miterlimit="10"/>
<path d="M79.3046 137.944C116.288 137.944 146.269 117.594 146.269 92.4919C146.269 67.3897 116.288 47.0404 79.3046 47.0404C42.3212 47.0404 12.3402 67.3897 12.3402 92.4919C12.3402 117.594 42.3212 137.944 79.3046 137.944Z" stroke="#F5F1EE" stroke-opacity="0.27" stroke-width="1.30961" stroke-miterlimit="10"/>
<path d="M84.5605 171.873C121.544 171.873 151.525 151.523 151.525 126.421C151.525 101.319 121.544 80.9696 84.5605 80.9696C47.5771 80.9696 17.5961 101.319 17.5961 126.421C17.5961 151.523 47.5771 171.873 84.5605 171.873Z" stroke="#F5F1EE" stroke-opacity="0.27" stroke-width="1.30961" stroke-miterlimit="10"/>
<path d="M92.5385 196.191C129.522 196.191 159.503 175.842 159.503 150.74C159.503 125.638 129.522 105.288 92.5385 105.288C55.5551 105.288 25.5741 125.638 25.5741 150.74C25.5741 175.842 55.5551 196.191 92.5385 196.191Z" stroke="#F5F1EE" stroke-opacity="0.27" stroke-width="1.30961" stroke-miterlimit="10"/>
<path d="M102.619 213.352C139.602 213.352 169.583 193.003 169.583 167.901C169.583 142.799 139.602 122.449 102.619 122.449C65.6355 122.449 35.6545 142.799 35.6545 167.901C35.6545 193.003 65.6355 213.352 102.619 213.352Z" stroke="#F5F1EE" stroke-opacity="0.27" stroke-width="1.30961" stroke-miterlimit="10"/>
<path d="M114.141 225.806C151.125 225.806 181.106 205.457 181.106 180.355C181.106 155.252 151.125 134.903 114.141 134.903C77.1578 134.903 47.1768 155.252 47.1768 180.355C47.1768 205.457 77.1578 225.806 114.141 225.806Z" stroke="#F5F1EE" stroke-opacity="0.27" stroke-width="1.30961" stroke-miterlimit="10"/>
<path d="M126.472 236.053C163.456 236.053 193.437 215.703 193.437 190.601C193.437 165.499 163.456 145.15 126.472 145.15C89.4888 145.15 59.5078 165.499 59.5078 190.601C59.5078 215.703 89.4888 236.053 126.472 236.053Z" stroke="#F5F1EE" stroke-opacity="0.27" stroke-width="1.30961" stroke-miterlimit="10"/>
<path d="M138.992 246.496C175.975 246.496 205.956 226.147 205.956 201.045C205.956 175.943 175.975 155.593 138.992 155.593C102.008 155.593 72.0274 175.943 72.0274 201.045C72.0274 226.147 102.008 246.496 138.992 246.496Z" stroke="#F5F1EE" stroke-opacity="0.27" stroke-width="1.30961" stroke-miterlimit="10"/>
<path d="M151.053 259.59C188.037 259.59 218.018 239.24 218.018 214.138C218.018 189.036 188.037 168.687 151.053 168.687C114.07 168.687 84.0888 189.036 84.0888 214.138C84.0888 239.24 114.07 259.59 151.053 259.59Z" stroke="#F5F1EE" stroke-opacity="0.27" stroke-width="1.30961" stroke-miterlimit="10"/>
<path d="M162.023 277.878C199.007 277.878 228.988 257.529 228.988 232.426C228.988 207.324 199.007 186.975 162.023 186.975C125.04 186.975 95.0587 207.324 95.0587 232.426C95.0587 257.529 125.04 277.878 162.023 277.878Z" stroke="#F5F1EE" stroke-opacity="0.27" stroke-width="1.30961" stroke-miterlimit="10"/>
<path d="M171.268 303.717C208.251 303.717 238.232 283.368 238.232 258.265C238.232 233.163 208.251 212.814 171.268 212.814C134.284 212.814 104.303 233.163 104.303 258.265C104.303 283.368 134.284 303.717 171.268 303.717Z" stroke="#F5F1EE" stroke-opacity="0.27" stroke-width="1.30961" stroke-miterlimit="10"/>
<path d="M178.141 339.607C215.124 339.607 245.105 319.258 245.105 294.155C245.105 269.053 215.124 248.704 178.141 248.704C141.157 248.704 111.176 269.053 111.176 294.155C111.176 319.258 141.157 339.607 178.141 339.607Z" stroke="#F5F1EE" stroke-opacity="0.27" stroke-width="1.30961" stroke-miterlimit="10"/>
<path d="M181.631 382.018C218.615 382.018 248.596 361.669 248.596 336.566C248.596 311.464 218.615 291.115 181.631 291.115C144.648 291.115 114.667 311.464 114.667 336.566C114.667 361.669 144.648 382.018 181.631 382.018Z" stroke="#F5F1EE" stroke-opacity="0.27" stroke-width="1.30961" stroke-miterlimit="10"/>
<path d="M180.526 414.134C217.51 414.134 247.491 393.785 247.491 368.683C247.491 343.581 217.51 323.231 180.526 323.231C143.543 323.231 113.562 343.581 113.562 368.683C113.562 393.785 143.543 414.134 180.526 414.134Z" stroke="#F5F1EE" stroke-opacity="0.27" stroke-width="1.30961" stroke-miterlimit="10"/>
<path d="M175.661 439.09C212.645 439.09 242.626 418.74 242.626 393.638C242.626 368.536 212.645 348.187 175.661 348.187C138.678 348.187 108.697 368.536 108.697 393.638C108.697 418.74 138.678 439.09 175.661 439.09Z" stroke="#F5F1EE" stroke-opacity="0.27" stroke-width="1.30961" stroke-miterlimit="10"/>
<path d="M167.697 458.456C204.68 458.456 234.661 438.106 234.661 413.004C234.661 387.902 204.68 367.553 167.697 367.553C130.713 367.553 100.732 387.902 100.732 413.004C100.732 438.106 130.713 458.456 167.697 458.456Z" stroke="#F5F1EE" stroke-opacity="0.27" stroke-width="1.30961" stroke-miterlimit="10"/>
<path d="M157.347 473.754C194.33 473.754 224.311 453.405 224.311 428.303C224.311 403.201 194.33 382.851 157.347 382.851C120.363 382.851 90.3823 403.201 90.3823 428.303C90.3823 453.405 120.363 473.754 157.347 473.754Z" stroke="#F5F1EE" stroke-opacity="0.27" stroke-width="1.30961" stroke-miterlimit="10"/>
<path d="M145.272 486.405C182.255 486.405 212.236 466.055 212.236 440.953C212.236 415.851 182.255 395.502 145.272 395.502C108.288 395.502 78.3074 415.851 78.3074 440.953C78.3074 466.055 108.288 486.405 145.272 486.405Z" stroke="#F5F1EE" stroke-opacity="0.27" stroke-width="1.30961" stroke-miterlimit="10"/>
<path d="M132.146 498.026C169.129 498.026 199.11 477.676 199.11 452.574C199.11 427.472 169.129 407.123 132.146 407.123C95.1624 407.123 65.1814 427.472 65.1814 452.574C65.1814 477.676 95.1624 498.026 132.146 498.026Z" stroke="#F5F1EE" stroke-opacity="0.27" stroke-width="1.30961" stroke-miterlimit="10"/>
<path d="M118.669 510.036C155.653 510.036 185.634 489.687 185.634 464.585C185.634 439.482 155.653 419.133 118.669 419.133C81.686 419.133 51.705 439.482 51.705 464.585C51.705 489.687 81.686 510.036 118.669 510.036Z" stroke="#F5F1EE" stroke-opacity="0.27" stroke-width="1.30961" stroke-miterlimit="10"/>
<path d="M105.53 523.963C142.513 523.963 172.494 503.613 172.494 478.511C172.494 453.409 142.513 433.06 105.53 433.06C68.5464 433.06 38.5654 453.409 38.5654 478.511C38.5654 503.613 68.5464 523.963 105.53 523.963Z" stroke="#F5F1EE" stroke-opacity="0.27" stroke-width="1.30961" stroke-miterlimit="10"/>
<path d="M93.3741 541.319C130.358 541.319 160.339 520.97 160.339 495.868C160.339 470.765 130.358 450.416 93.3741 450.416C56.3907 450.416 26.4097 470.765 26.4097 495.868C26.4097 520.97 56.3907 541.319 93.3741 541.319Z" stroke="#F5F1EE" stroke-opacity="0.27" stroke-width="1.30961" stroke-miterlimit="10"/>
<path d="M82.9164 563.58C119.9 563.58 149.881 543.231 149.881 518.129C149.881 493.026 119.9 472.677 82.9164 472.677C45.933 472.677 15.952 493.026 15.952 518.129C15.952 543.231 45.933 563.58 82.9164 563.58Z" stroke="#F5F1EE" stroke-opacity="0.27" stroke-width="1.30961" stroke-miterlimit="10"/>
<path d="M74.8305 592.312C111.814 592.312 141.795 571.962 141.795 546.86C141.795 521.758 111.814 501.408 74.8305 501.408C37.8471 501.408 7.86609 521.758 7.86609 546.86C7.86609 571.962 37.8471 592.312 74.8305 592.312Z" stroke="#F5F1EE" stroke-opacity="0.27" stroke-width="1.30961" stroke-miterlimit="10"/>
<path d="M69.7903 628.937C106.774 628.937 136.755 608.587 136.755 583.485C136.755 558.383 106.774 538.034 69.7903 538.034C32.8069 538.034 2.82587 558.383 2.82587 583.485C2.82587 608.587 32.8069 628.937 69.7903 628.937Z" stroke="#F5F1EE" stroke-opacity="0.27" stroke-width="1.30961" stroke-miterlimit="10"/>
<path d="M68.4966 674.977C105.48 674.977 135.461 654.628 135.461 629.526C135.461 604.423 105.48 584.074 68.4966 584.074C31.5132 584.074 1.53217 604.423 1.53217 629.526C1.53217 654.628 31.5132 674.977 68.4966 674.977Z" stroke="#F5F1EE" stroke-opacity="0.27" stroke-width="1.30961" stroke-miterlimit="10"/>
<path d="M71.5961 731.999C108.58 731.999 138.561 711.65 138.561 686.548C138.561 661.445 108.58 641.096 71.5961 641.096C34.6127 641.096 4.63171 661.445 4.63171 686.548C4.63171 711.65 34.6127 731.999 71.5961 731.999Z" stroke="#F5F1EE" stroke-opacity="0.27" stroke-width="1.30961" stroke-miterlimit="10"/>
<path d="M10.4535 46.4519C10.7904 51.0608 7.36745 127.549 31.7868 171.431C56.2061 215.265 100.907 227.964 110.112 284.496C120.745 349.903 112.645 394.08 91.7165 412.565C67.2028 434.187 28.4716 453.26 7.69088 541.761C-5.31388 597.117 4.64519 686.549 4.64519 686.549" stroke="#F5F1EE" stroke-opacity="0.27" stroke-width="1.30961" stroke-miterlimit="10"/>
<path d="M33.3365 723.862C33.3365 723.862 21.5581 597.607 35.3175 540.928C35.6679 539.457 36.0453 538.035 36.4226 536.613C58.6318 453.849 102.403 436.247 123.17 396.385C139.18 365.643 145.11 327.448 133.601 271.406C121.984 214.873 78.496 203.89 57.6614 166.382C36.1665 127.598 38.5654 83.5198 38.5654 83.5198" stroke="#F5F1EE" stroke-opacity="0.27" stroke-width="1.30961" stroke-miterlimit="10"/>
<path d="M61.8257 732C61.8257 732 47.8641 593.341 63.928 535.632C64.3189 534.21 64.7366 532.788 65.1679 531.415C88.7112 454.192 136.876 442.719 154.638 380.155C165.608 341.519 169.098 305.629 157.104 258.314C142.806 201.929 100.786 192.466 83.5498 161.331C64.9658 127.647 65.2083 91.2169 65.2083 91.2169" stroke="#F5F1EE" stroke-opacity="0.27" stroke-width="1.30961" stroke-miterlimit="10"/>
<path d="M88.2126 730.578C88.2126 730.578 74.1297 588.977 92.525 530.337C92.9698 528.915 93.4145 527.542 93.8862 526.218C118.71 454.29 172.076 454.535 186.079 363.926C192.655 321.367 192.803 284.496 180.58 245.174C163.33 189.72 123.063 181.041 109.411 156.232C93.7514 127.598 92.552 89.9911 92.552 89.9911" stroke="#F5F1EE" stroke-opacity="0.27" stroke-width="1.30961" stroke-miterlimit="10"/>
<path d="M115.004 720.87C115.004 720.87 100.368 584.467 121.136 525.091C121.621 523.718 122.119 522.394 122.631 521.07C148.681 454.143 209.541 468.558 217.533 347.697C220.565 301.755 216.374 264.1 204.07 232.033C183.612 178.737 145.204 170.549 135.272 151.084C116.041 113.428 118.562 82.2936 118.562 82.2936" stroke="#F5F1EE" stroke-opacity="0.27" stroke-width="1.30961" stroke-miterlimit="10"/>
<path d="M138.561 686.55C138.561 686.55 126.593 579.81 149.746 519.845C175.688 452.624 249 482.925 249 331.518C249 181.19 170.998 164.519 161.161 146.084C151.336 127.648 142.819 92.2968 144.382 46.5021" stroke="#F5F1EE" stroke-opacity="0.27" stroke-width="1.30961" stroke-miterlimit="10"/>
<path d="M35.6545 10.9548C35.6545 10.9548 34.9402 42.0404 41.8537 84.9913" stroke="#F5F1EE" stroke-opacity="0.27" stroke-width="1.30961" stroke-miterlimit="10"/>
<path d="M69.7903 1.29443C69.7903 1.29443 67.2567 52.4826 72.0274 92.4917" stroke="#F5F1EE" stroke-opacity="0.27" stroke-width="1.30961" stroke-miterlimit="10"/>
<path d="M100.597 3.79614C100.597 3.79614 98.2121 50.4245 102.619 88.5704" stroke="#F5F1EE" stroke-opacity="0.27" stroke-width="1.30961" stroke-miterlimit="10"/>
<path d="M127.429 16.2484C127.577 16.3465 126.998 41.9405 130.919 73.8105" stroke="#F5F1EE" stroke-opacity="0.27" stroke-width="1.30961" stroke-miterlimit="10"/>
</svg>
